<?xml version="1.0" encoding="utf-8" standalone="no"?>
<!DOCTYPE svg PUBLIC "-//W3C//DTD SVG 1.1//EN"
  "http://www.w3.org/Graphics/SVG/1.1/DTD/svg11.dtd">
<svg xmlns:xlink="http://www.w3.org/1999/xlink" width="928.688875pt" height="403.160156pt" viewBox="0 0 928.688875 403.160156" xmlns="http://www.w3.org/2000/svg" version="1.1">
 <metadata>
  <rdf:RDF xmlns:dc="http://purl.org/dc/elements/1.1/" xmlns:cc="http://creativecommons.org/ns#" xmlns:rdf="http://www.w3.org/1999/02/22-rdf-syntax-ns#">
   <cc:Work>
    <dc:type rdf:resource="http://purl.org/dc/dcmitype/StillImage"/>
    <dc:date>2025-11-19T21:44:23.609919</dc:date>
    <dc:format>image/svg+xml</dc:format>
    <dc:creator>
     <cc:Agent>
      <dc:title>Matplotlib v3.10.6, https://matplotlib.org/</dc:title>
     </cc:Agent>
    </dc:creator>
   </cc:Work>
  </rdf:RDF>
 </metadata>
 <defs>
  <style type="text/css">*{stroke-linejoin: round; stroke-linecap: butt}</style>
 </defs>
 <g id="figure_1">
  <g id="patch_1">
   <path d="M 0 403.160156 
L 928.688875 403.160156 
L 928.688875 0 
L 0 0 
z
" style="fill: #ffffff"/>
  </g>
  <g id="axes_1">
   <g id="patch_2">
    <path d="M 43.78125 350.638125 
L 713.38125 350.638125 
L 713.38125 22.318125 
L 43.78125 22.318125 
z
" style="fill: #ffffff"/>
   </g>
   <g id="patch_3">
    <path d="M 74.217614 350.638125 
L 86.704327 350.638125 
L 86.704327 240.035657 
L 74.217614 240.035657 
z
" clip-path="url(#p4ccbe67724)" style="fill: #1f77b4; stroke: #000000; stroke-width: 0.5; stroke-linejoin: miter"/>
   </g>
   <g id="patch_4">
    <path d="M 152.259572 350.638125 
L 164.746285 350.638125 
L 164.746285 251.727534 
L 152.259572 251.727534 
z
" clip-path="url(#p4ccbe67724)" style="fill: #1f77b4; stroke: #000000; stroke-width: 0.5; stroke-linejoin: miter"/>
   </g>
   <g id="patch_5">
    <path d="M 230.30153 350.638125 
L 242.788243 350.638125 
L 242.788243 206.399912 
L 230.30153 206.399912 
z
" clip-path="url(#p4ccbe67724)" style="fill: #1f77b4; stroke: #000000; stroke-width: 0.5; stroke-linejoin: miter"/>
   </g>
   <g id="patch_6">
    <path d="M 308.343488 350.638125 
L 320.830201 350.638125 
L 320.830201 251.036388 
L 308.343488 251.036388 
z
" clip-path="url(#p4ccbe67724)" style="fill: #1f77b4; stroke: #000000; stroke-width: 0.5; stroke-linejoin: miter"/>
   </g>
   <g id="patch_7">
    <path d="M 386.385446 350.638125 
L 398.872159 350.638125 
L 398.872159 292.31313 
L 386.385446 292.31313 
z
" clip-path="url(#p4ccbe67724)" style="fill: #1f77b4; stroke: #000000; stroke-width: 0.5; stroke-linejoin: miter"/>
   </g>
   <g id="patch_8">
    <path d="M 464.427404 350.638125 
L 476.914117 350.638125 
L 476.914117 282.061139 
L 464.427404 282.061139 
z
" clip-path="url(#p4ccbe67724)" style="fill: #1f77b4; stroke: #000000; stroke-width: 0.5; stroke-linejoin: miter"/>
   </g>
   <g id="patch_9">
    <path d="M 542.469362 350.638125 
L 554.956075 350.638125 
L 554.956075 265.089679 
L 542.469362 265.089679 
z
" clip-path="url(#p4ccbe67724)" style="fill: #1f77b4; stroke: #000000; stroke-width: 0.5; stroke-linejoin: miter"/>
   </g>
   <g id="patch_10">
    <path d="M 620.51132 350.638125 
L 632.998033 350.638125 
L 632.998033 299.742943 
L 620.51132 299.742943 
z
" clip-path="url(#p4ccbe67724)" style="fill: #1f77b4; stroke: #000000; stroke-width: 0.5; stroke-linejoin: miter"/>
   </g>
   <g id="patch_11">
    <path d="M 86.704327 350.638125 
L 99.19104 350.638125 
L 99.19104 240.035657 
L 86.704327 240.035657 
z
" clip-path="url(#p4ccbe67724)" style="fill: #ff7f0e; stroke: #000000; stroke-width: 0.5; stroke-linejoin: miter"/>
   </g>
   <g id="patch_12">
    <path d="M 164.746285 350.638125 
L 177.232998 350.638125 
L 177.232998 251.497152 
L 164.746285 251.497152 
z
" clip-path="url(#p4ccbe67724)" style="fill: #ff7f0e; stroke: #000000; stroke-width: 0.5; stroke-linejoin: miter"/>
   </g>
   <g id="patch_13">
    <path d="M 242.788243 350.638125 
L 255.274956 350.638125 
L 255.274956 300.568478 
L 242.788243 300.568478 
z
" clip-path="url(#p4ccbe67724)" style="fill: #ff7f0e; stroke: #000000; stroke-width: 0.5; stroke-linejoin: miter"/>
   </g>
   <g id="patch_14">
    <path d="M 320.830201 350.638125 
L 333.316914 350.638125 
L 333.316914 324.60498 
L 320.830201 324.60498 
z
" clip-path="url(#p4ccbe67724)" style="fill: #ff7f0e; stroke: #000000; stroke-width: 0.5; stroke-linejoin: miter"/>
   </g>
   <g id="patch_15">
    <path d="M 398.872159 350.638125 
L 411.358872 350.638125 
L 411.358872 336.162468 
L 398.872159 336.162468 
z
" clip-path="url(#p4ccbe67724)" style="fill: #ff7f0e; stroke: #000000; stroke-width: 0.5; stroke-linejoin: miter"/>
   </g>
   <g id="patch_16">
    <path d="M 476.914117 350.638125 
L 489.40083 350.638125 
L 489.40083 338.773462 
L 476.914117 338.773462 
z
" clip-path="url(#p4ccbe67724)" style="fill: #ff7f0e; stroke: #000000; stroke-width: 0.5; stroke-linejoin: miter"/>
   </g>
   <g id="patch_17">
    <path d="M 554.956075 350.638125 
L 567.442788 350.638125 
L 567.442788 341.154074 
L 554.956075 341.154074 
z
" clip-path="url(#p4ccbe67724)" style="fill: #ff7f0e; stroke: #000000; stroke-width: 0.5; stroke-linejoin: miter"/>
   </g>
   <g id="patch_18">
    <path d="M 632.998033 350.638125 
L 645.484747 350.638125 
L 645.484747 341.115677 
L 632.998033 341.115677 
z
" clip-path="url(#p4ccbe67724)" style="fill: #ff7f0e; stroke: #000000; stroke-width: 0.5; stroke-linejoin: miter"/>
   </g>
   <g id="patch_19">
    <path d="M 99.19104 350.638125 
L 111.677753 350.638125 
L 111.677753 240.035657 
L 99.19104 240.035657 
z
" clip-path="url(#p4ccbe67724)" style="fill: #2ca02c; stroke: #000000; stroke-width: 0.5; stroke-linejoin: miter"/>
   </g>
   <g id="patch_20">
    <path d="M 177.232998 350.638125 
L 189.719712 350.638125 
L 189.719712 251.573946 
L 177.232998 251.573946 
z
" clip-path="url(#p4ccbe67724)" style="fill: #2ca02c; stroke: #000000; stroke-width: 0.5; stroke-linejoin: miter"/>
   </g>
   <g id="patch_21">
    <path d="M 255.274956 350.638125 
L 267.76167 350.638125 
L 267.76167 202.694605 
L 255.274956 202.694605 
z
" clip-path="url(#p4ccbe67724)" style="fill: #2ca02c; stroke: #000000; stroke-width: 0.5; stroke-linejoin: miter"/>
   </g>
   <g id="patch_22">
    <path d="M 333.316914 350.638125 
L 345.803628 350.638125 
L 345.803628 247.715051 
L 333.316914 247.715051 
z
" clip-path="url(#p4ccbe67724)" style="fill: #2ca02c; stroke: #000000; stroke-width: 0.5; stroke-linejoin: miter"/>
   </g>
   <g id="patch_23">
    <path d="M 411.358872 350.638125 
L 423.845586 350.638125 
L 423.845586 287.455913 
L 411.358872 287.455913 
z
" clip-path="url(#p4ccbe67724)" style="fill: #2ca02c; stroke: #000000; stroke-width: 0.5; stroke-linejoin: miter"/>
   </g>
   <g id="patch_24">
    <path d="M 489.40083 350.638125 
L 501.887544 350.638125 
L 501.887544 282.656292 
L 489.40083 282.656292 
z
" clip-path="url(#p4ccbe67724)" style="fill: #2ca02c; stroke: #000000; stroke-width: 0.5; stroke-linejoin: miter"/>
   </g>
   <g id="patch_25">
    <path d="M 567.442788 350.638125 
L 579.929502 350.638125 
L 579.929502 265.972809 
L 567.442788 265.972809 
z
" clip-path="url(#p4ccbe67724)" style="fill: #2ca02c; stroke: #000000; stroke-width: 0.5; stroke-linejoin: miter"/>
   </g>
   <g id="patch_26">
    <path d="M 645.484747 350.638125 
L 657.97146 350.638125 
L 657.97146 299.877332 
L 645.484747 299.877332 
z
" clip-path="url(#p4ccbe67724)" style="fill: #2ca02c; stroke: #000000; stroke-width: 0.5; stroke-linejoin: miter"/>
   </g>
   <g id="patch_27">
    <path d="M 111.677753 350.638125 
L 124.164467 350.638125 
L 124.164467 240.035657 
L 111.677753 240.035657 
z
" clip-path="url(#p4ccbe67724)" style="fill: #d62728; stroke: #000000; stroke-width: 0.5; stroke-linejoin: miter"/>
   </g>
   <g id="patch_28">
    <path d="M 189.719712 350.638125 
L 202.206425 350.638125 
L 202.206425 239.805275 
L 189.719712 239.805275 
z
" clip-path="url(#p4ccbe67724)" style="fill: #d62728; stroke: #000000; stroke-width: 0.5; stroke-linejoin: miter"/>
   </g>
   <g id="patch_29">
    <path d="M 267.76167 350.638125 
L 280.248383 350.638125 
L 280.248383 37.952411 
L 267.76167 37.952411 
z
" clip-path="url(#p4ccbe67724)" style="fill: #d62728; stroke: #000000; stroke-width: 0.5; stroke-linejoin: miter"/>
   </g>
   <g id="patch_30">
    <path d="M 345.803628 350.638125 
L 358.290341 350.638125 
L 358.290341 293.06187 
L 345.803628 293.06187 
z
" clip-path="url(#p4ccbe67724)" style="fill: #d62728; stroke: #000000; stroke-width: 0.5; stroke-linejoin: miter"/>
   </g>
   <g id="patch_31">
    <path d="M 423.845586 350.638125 
L 436.332299 350.638125 
L 436.332299 322.877117 
L 423.845586 322.877117 
z
" clip-path="url(#p4ccbe67724)" style="fill: #d62728; stroke: #000000; stroke-width: 0.5; stroke-linejoin: miter"/>
   </g>
   <g id="patch_32">
    <path d="M 501.887544 350.638125 
L 514.374257 350.638125 
L 514.374257 335.62491 
L 501.887544 335.62491 
z
" clip-path="url(#p4ccbe67724)" style="fill: #d62728; stroke: #000000; stroke-width: 0.5; stroke-linejoin: miter"/>
   </g>
   <g id="patch_33">
    <path d="M 579.929502 350.638125 
L 592.416215 350.638125 
L 592.416215 341.499646 
L 579.929502 341.499646 
z
" clip-path="url(#p4ccbe67724)" style="fill: #d62728; stroke: #000000; stroke-width: 0.5; stroke-linejoin: miter"/>
   </g>
   <g id="patch_34">
    <path d="M 657.97146 350.638125 
L 670.458173 350.638125 
L 670.458173 343.265907 
L 657.97146 343.265907 
z
" clip-path="url(#p4ccbe67724)" style="fill: #d62728; stroke: #000000; stroke-width: 0.5; stroke-linejoin: miter"/>
   </g>
   <g id="patch_35">
    <path d="M 124.164467 350.638125 
L 136.65118 350.638125 
L 136.65118 240.035657 
L 124.164467 240.035657 
z
" clip-path="url(#p4ccbe67724)" style="fill: #9467bd; stroke: #000000; stroke-width: 0.5; stroke-linejoin: miter"/>
   </g>
   <g id="patch_36">
    <path d="M 202.206425 350.638125 
L 214.693138 350.638125 
L 214.693138 239.901267 
L 202.206425 239.901267 
z
" clip-path="url(#p4ccbe67724)" style="fill: #9467bd; stroke: #000000; stroke-width: 0.5; stroke-linejoin: miter"/>
   </g>
   <g id="patch_37">
    <path d="M 280.248383 350.638125 
L 292.735096 350.638125 
L 292.735096 264.609717 
L 280.248383 264.609717 
z
" clip-path="url(#p4ccbe67724)" style="fill: #9467bd; stroke: #000000; stroke-width: 0.5; stroke-linejoin: miter"/>
   </g>
   <g id="patch_38">
    <path d="M 358.290341 350.638125 
L 370.777054 350.638125 
L 370.777054 264.129755 
L 358.290341 264.129755 
z
" clip-path="url(#p4ccbe67724)" style="fill: #9467bd; stroke: #000000; stroke-width: 0.5; stroke-linejoin: miter"/>
   </g>
   <g id="patch_39">
    <path d="M 436.332299 350.638125 
L 448.819012 350.638125 
L 448.819012 298.879011 
L 436.332299 298.879011 
z
" clip-path="url(#p4ccbe67724)" style="fill: #9467bd; stroke: #000000; stroke-width: 0.5; stroke-linejoin: miter"/>
   </g>
   <g id="patch_40">
    <path d="M 514.374257 350.638125 
L 526.86097 350.638125 
L 526.86097 318.15429 
L 514.374257 318.15429 
z
" clip-path="url(#p4ccbe67724)" style="fill: #9467bd; stroke: #000000; stroke-width: 0.5; stroke-linejoin: miter"/>
   </g>
   <g id="patch_41">
    <path d="M 592.416215 350.638125 
L 604.902928 350.638125 
L 604.902928 326.00647 
L 592.416215 326.00647 
z
" clip-path="url(#p4ccbe67724)" style="fill: #9467bd; stroke: #000000; stroke-width: 0.5; stroke-linejoin: miter"/>
   </g>
   <g id="patch_42">
    <path d="M 670.458173 350.638125 
L 682.944886 350.638125 
L 682.944886 326.851203 
L 670.458173 326.851203 
z
" clip-path="url(#p4ccbe67724)" style="fill: #9467bd; stroke: #000000; stroke-width: 0.5; stroke-linejoin: miter"/>
   </g>
   <g id="matplotlib.axis_1">
    <g id="xtick_1">
     <g id="line2d_1">
      <defs>
       <path id="mcf52363eff" d="M 0 0 
L 0 3.5 
" style="stroke: #000000; stroke-width: 0.8"/>
      </defs>
      <g>
       <use xlink:href="#mcf52363eff" x="105.434397" y="350.638125" style="stroke: #000000; stroke-width: 0.8"/>
      </g>
     </g>
     <g id="text_1">
      <!-- seq -->
      <g transform="translate(96.578928 365.236562) scale(0.1 -0.1)">
       <defs>
        <path id="DejaVuSans-73" d="M 2834 3397 
L 2834 2853 
Q 2591 2978 2328 3040 
Q 2066 3103 1784 3103 
Q 1356 3103 1142 2972 
Q 928 2841 928 2578 
Q 928 2378 1081 2264 
Q 1234 2150 1697 2047 
L 1894 2003 
Q 2506 1872 2764 1633 
Q 3022 1394 3022 966 
Q 3022 478 2636 193 
Q 2250 -91 1575 -91 
Q 1294 -91 989 -36 
Q 684 19 347 128 
L 347 722 
Q 666 556 975 473 
Q 1284 391 1588 391 
Q 1994 391 2212 530 
Q 2431 669 2431 922 
Q 2431 1156 2273 1281 
Q 2116 1406 1581 1522 
L 1381 1569 
Q 847 1681 609 1914 
Q 372 2147 372 2553 
Q 372 3047 722 3315 
Q 1072 3584 1716 3584 
Q 2034 3584 2315 3537 
Q 2597 3491 2834 3397 
z
" transform="scale(0.015625)"/>
        <path id="DejaVuSans-65" d="M 3597 1894 
L 3597 1613 
L 953 1613 
Q 991 1019 1311 708 
Q 1631 397 2203 397 
Q 2534 397 2845 478 
Q 3156 559 3463 722 
L 3463 178 
Q 3153 47 2828 -22 
Q 2503 -91 2169 -91 
Q 1331 -91 842 396 
Q 353 884 353 1716 
Q 353 2575 817 3079 
Q 1281 3584 2069 3584 
Q 2775 3584 3186 3129 
Q 3597 2675 3597 1894 
z
M 3022 2063 
Q 3016 2534 2758 2815 
Q 2500 3097 2075 3097 
Q 1594 3097 1305 2825 
Q 1016 2553 972 2059 
L 3022 2063 
z
" transform="scale(0.015625)"/>
        <path id="DejaVuSans-71" d="M 947 1747 
Q 947 1113 1208 752 
Q 1469 391 1925 391 
Q 2381 391 2643 752 
Q 2906 1113 2906 1747 
Q 2906 2381 2643 2742 
Q 2381 3103 1925 3103 
Q 1469 3103 1208 2742 
Q 947 2381 947 1747 
z
M 2906 525 
Q 2725 213 2448 61 
Q 2172 -91 1784 -91 
Q 1150 -91 751 415 
Q 353 922 353 1747 
Q 353 2572 751 3078 
Q 1150 3584 1784 3584 
Q 2172 3584 2448 3432 
Q 2725 3281 2906 2969 
L 2906 3500 
L 3481 3500 
L 3481 -1331 
L 2906 -1331 
L 2906 525 
z
" transform="scale(0.015625)"/>
       </defs>
       <use xlink:href="#DejaVuSans-73"/>
       <use xlink:href="#DejaVuSans-65" transform="translate(52.099609 0)"/>
       <use xlink:href="#DejaVuSans-71" transform="translate(113.623047 0)"/>
      </g>
     </g>
    </g>
    <g id="xtick_2">
     <g id="line2d_2">
      <g>
       <use xlink:href="#mcf52363eff" x="183.476355" y="350.638125" style="stroke: #000000; stroke-width: 0.8"/>
      </g>
     </g>
     <g id="text_2">
      <!-- 1 -->
      <g transform="translate(180.295105 365.236562) scale(0.1 -0.1)">
       <defs>
        <path id="DejaVuSans-31" d="M 794 531 
L 1825 531 
L 1825 4091 
L 703 3866 
L 703 4441 
L 1819 4666 
L 2450 4666 
L 2450 531 
L 3481 531 
L 3481 0 
L 794 0 
L 794 531 
z
" transform="scale(0.015625)"/>
       </defs>
       <use xlink:href="#DejaVuSans-31"/>
      </g>
     </g>
    </g>
    <g id="xtick_3">
     <g id="line2d_3">
      <g>
       <use xlink:href="#mcf52363eff" x="261.518313" y="350.638125" style="stroke: #000000; stroke-width: 0.8"/>
      </g>
     </g>
     <g id="text_3">
      <!-- 2 -->
      <g transform="translate(258.337063 365.236562) scale(0.1 -0.1)">
       <defs>
        <path id="DejaVuSans-32" d="M 1228 531 
L 3431 531 
L 3431 0 
L 469 0 
L 469 531 
Q 828 903 1448 1529 
Q 2069 2156 2228 2338 
Q 2531 2678 2651 2914 
Q 2772 3150 2772 3378 
Q 2772 3750 2511 3984 
Q 2250 4219 1831 4219 
Q 1534 4219 1204 4116 
Q 875 4013 500 3803 
L 500 4441 
Q 881 4594 1212 4672 
Q 1544 4750 1819 4750 
Q 2544 4750 2975 4387 
Q 3406 4025 3406 3419 
Q 3406 3131 3298 2873 
Q 3191 2616 2906 2266 
Q 2828 2175 2409 1742 
Q 1991 1309 1228 531 
z
" transform="scale(0.015625)"/>
       </defs>
       <use xlink:href="#DejaVuSans-32"/>
      </g>
     </g>
    </g>
    <g id="xtick_4">
     <g id="line2d_4">
      <g>
       <use xlink:href="#mcf52363eff" x="339.560271" y="350.638125" style="stroke: #000000; stroke-width: 0.8"/>
      </g>
     </g>
     <g id="text_4">
      <!-- 4 -->
      <g transform="translate(336.379021 365.236562) scale(0.1 -0.1)">
       <defs>
        <path id="DejaVuSans-34" d="M 2419 4116 
L 825 1625 
L 2419 1625 
L 2419 4116 
z
M 2253 4666 
L 3047 4666 
L 3047 1625 
L 3713 1625 
L 3713 1100 
L 3047 1100 
L 3047 0 
L 2419 0 
L 2419 1100 
L 313 1100 
L 313 1709 
L 2253 4666 
z
" transform="scale(0.015625)"/>
       </defs>
       <use xlink:href="#DejaVuSans-34"/>
      </g>
     </g>
    </g>
    <g id="xtick_5">
     <g id="line2d_5">
      <g>
       <use xlink:href="#mcf52363eff" x="417.602229" y="350.638125" style="stroke: #000000; stroke-width: 0.8"/>
      </g>
     </g>
     <g id="text_5">
      <!-- 8 -->
      <g transform="translate(414.420979 365.236562) scale(0.1 -0.1)">
       <defs>
        <path id="DejaVuSans-38" d="M 2034 2216 
Q 1584 2216 1326 1975 
Q 1069 1734 1069 1313 
Q 1069 891 1326 650 
Q 1584 409 2034 409 
Q 2484 409 2743 651 
Q 3003 894 3003 1313 
Q 3003 1734 2745 1975 
Q 2488 2216 2034 2216 
z
M 1403 2484 
Q 997 2584 770 2862 
Q 544 3141 544 3541 
Q 544 4100 942 4425 
Q 1341 4750 2034 4750 
Q 2731 4750 3128 4425 
Q 3525 4100 3525 3541 
Q 3525 3141 3298 2862 
Q 3072 2584 2669 2484 
Q 3125 2378 3379 2068 
Q 3634 1759 3634 1313 
Q 3634 634 3220 271 
Q 2806 -91 2034 -91 
Q 1263 -91 848 271 
Q 434 634 434 1313 
Q 434 1759 690 2068 
Q 947 2378 1403 2484 
z
M 1172 3481 
Q 1172 3119 1398 2916 
Q 1625 2713 2034 2713 
Q 2441 2713 2670 2916 
Q 2900 3119 2900 3481 
Q 2900 3844 2670 4047 
Q 2441 4250 2034 4250 
Q 1625 4250 1398 4047 
Q 1172 3844 1172 3481 
z
" transform="scale(0.015625)"/>
       </defs>
       <use xlink:href="#DejaVuSans-38"/>
      </g>
     </g>
    </g>
    <g id="xtick_6">
     <g id="line2d_6">
      <g>
       <use xlink:href="#mcf52363eff" x="495.644187" y="350.638125" style="stroke: #000000; stroke-width: 0.8"/>
      </g>
     </g>
     <g id="text_6">
      <!-- 16 -->
      <g transform="translate(489.281687 365.236562) scale(0.1 -0.1)">
       <defs>
        <path id="DejaVuSans-36" d="M 2113 2584 
Q 1688 2584 1439 2293 
Q 1191 2003 1191 1497 
Q 1191 994 1439 701 
Q 1688 409 2113 409 
Q 2538 409 2786 701 
Q 3034 994 3034 1497 
Q 3034 2003 2786 2293 
Q 2538 2584 2113 2584 
z
M 3366 4563 
L 3366 3988 
Q 3128 4100 2886 4159 
Q 2644 4219 2406 4219 
Q 1781 4219 1451 3797 
Q 1122 3375 1075 2522 
Q 1259 2794 1537 2939 
Q 1816 3084 2150 3084 
Q 2853 3084 3261 2657 
Q 3669 2231 3669 1497 
Q 3669 778 3244 343 
Q 2819 -91 2113 -91 
Q 1303 -91 875 529 
Q 447 1150 447 2328 
Q 447 3434 972 4092 
Q 1497 4750 2381 4750 
Q 2619 4750 2861 4703 
Q 3103 4656 3366 4563 
z
" transform="scale(0.015625)"/>
       </defs>
       <use xlink:href="#DejaVuSans-31"/>
       <use xlink:href="#DejaVuSans-36" transform="translate(63.623047 0)"/>
      </g>
     </g>
    </g>
    <g id="xtick_7">
     <g id="line2d_7">
      <g>
       <use xlink:href="#mcf52363eff" x="573.686145" y="350.638125" style="stroke: #000000; stroke-width: 0.8"/>
      </g>
     </g>
     <g id="text_7">
      <!-- 32 -->
      <g transform="translate(567.323645 365.236562) scale(0.1 -0.1)">
       <defs>
        <path id="DejaVuSans-33" d="M 2597 2516 
Q 3050 2419 3304 2112 
Q 3559 1806 3559 1356 
Q 3559 666 3084 287 
Q 2609 -91 1734 -91 
Q 1441 -91 1130 -33 
Q 819 25 488 141 
L 488 750 
Q 750 597 1062 519 
Q 1375 441 1716 441 
Q 2309 441 2620 675 
Q 2931 909 2931 1356 
Q 2931 1769 2642 2001 
Q 2353 2234 1838 2234 
L 1294 2234 
L 1294 2753 
L 1863 2753 
Q 2328 2753 2575 2939 
Q 2822 3125 2822 3475 
Q 2822 3834 2567 4026 
Q 2313 4219 1838 4219 
Q 1578 4219 1281 4162 
Q 984 4106 628 3988 
L 628 4550 
Q 988 4650 1302 4700 
Q 1616 4750 1894 4750 
Q 2613 4750 3031 4423 
Q 3450 4097 3450 3541 
Q 3450 3153 3228 2886 
Q 3006 2619 2597 2516 
z
" transform="scale(0.015625)"/>
       </defs>
       <use xlink:href="#DejaVuSans-33"/>
       <use xlink:href="#DejaVuSans-32" transform="translate(63.623047 0)"/>
      </g>
     </g>
    </g>
    <g id="xtick_8">
     <g id="line2d_8">
      <g>
       <use xlink:href="#mcf52363eff" x="651.728103" y="350.638125" style="stroke: #000000; stroke-width: 0.8"/>
      </g>
     </g>
     <g id="text_8">
      <!-- 64 -->
      <g transform="translate(645.365603 365.236562) scale(0.1 -0.1)">
       <use xlink:href="#DejaVuSans-36"/>
       <use xlink:href="#DejaVuSans-34" transform="translate(63.623047 0)"/>
      </g>
     </g>
    </g>
    <g id="text_9">
     <!-- Number of threads -->
     <g transform="translate(331.50625 378.914688) scale(0.1 -0.1)">
      <defs>
       <path id="DejaVuSans-4e" d="M 628 4666 
L 1478 4666 
L 3547 763 
L 3547 4666 
L 4159 4666 
L 4159 0 
L 3309 0 
L 1241 3903 
L 1241 0 
L 628 0 
L 628 4666 
z
" transform="scale(0.015625)"/>
       <path id="DejaVuSans-75" d="M 544 1381 
L 544 3500 
L 1119 3500 
L 1119 1403 
Q 1119 906 1312 657 
Q 1506 409 1894 409 
Q 2359 409 2629 706 
Q 2900 1003 2900 1516 
L 2900 3500 
L 3475 3500 
L 3475 0 
L 2900 0 
L 2900 538 
Q 2691 219 2414 64 
Q 2138 -91 1772 -91 
Q 1169 -91 856 284 
Q 544 659 544 1381 
z
M 1991 3584 
L 1991 3584 
z
" transform="scale(0.015625)"/>
       <path id="DejaVuSans-6d" d="M 3328 2828 
Q 3544 3216 3844 3400 
Q 4144 3584 4550 3584 
Q 5097 3584 5394 3201 
Q 5691 2819 5691 2113 
L 5691 0 
L 5113 0 
L 5113 2094 
Q 5113 2597 4934 2840 
Q 4756 3084 4391 3084 
Q 3944 3084 3684 2787 
Q 3425 2491 3425 1978 
L 3425 0 
L 2847 0 
L 2847 2094 
Q 2847 2600 2669 2842 
Q 2491 3084 2119 3084 
Q 1678 3084 1418 2786 
Q 1159 2488 1159 1978 
L 1159 0 
L 581 0 
L 581 3500 
L 1159 3500 
L 1159 2956 
Q 1356 3278 1631 3431 
Q 1906 3584 2284 3584 
Q 2666 3584 2933 3390 
Q 3200 3197 3328 2828 
z
" transform="scale(0.015625)"/>
       <path id="DejaVuSans-62" d="M 3116 1747 
Q 3116 2381 2855 2742 
Q 2594 3103 2138 3103 
Q 1681 3103 1420 2742 
Q 1159 2381 1159 1747 
Q 1159 1113 1420 752 
Q 1681 391 2138 391 
Q 2594 391 2855 752 
Q 3116 1113 3116 1747 
z
M 1159 2969 
Q 1341 3281 1617 3432 
Q 1894 3584 2278 3584 
Q 2916 3584 3314 3078 
Q 3713 2572 3713 1747 
Q 3713 922 3314 415 
Q 2916 -91 2278 -91 
Q 1894 -91 1617 61 
Q 1341 213 1159 525 
L 1159 0 
L 581 0 
L 581 4863 
L 1159 4863 
L 1159 2969 
z
" transform="scale(0.015625)"/>
       <path id="DejaVuSans-72" d="M 2631 2963 
Q 2534 3019 2420 3045 
Q 2306 3072 2169 3072 
Q 1681 3072 1420 2755 
Q 1159 2438 1159 1844 
L 1159 0 
L 581 0 
L 581 3500 
L 1159 3500 
L 1159 2956 
Q 1341 3275 1631 3429 
Q 1922 3584 2338 3584 
Q 2397 3584 2469 3576 
Q 2541 3569 2628 3553 
L 2631 2963 
z
" transform="scale(0.015625)"/>
       <path id="DejaVuSans-20" transform="scale(0.015625)"/>
       <path id="DejaVuSans-6f" d="M 1959 3097 
Q 1497 3097 1228 2736 
Q 959 2375 959 1747 
Q 959 1119 1226 758 
Q 1494 397 1959 397 
Q 2419 397 2687 759 
Q 2956 1122 2956 1747 
Q 2956 2369 2687 2733 
Q 2419 3097 1959 3097 
z
M 1959 3584 
Q 2709 3584 3137 3096 
Q 3566 2609 3566 1747 
Q 3566 888 3137 398 
Q 2709 -91 1959 -91 
Q 1206 -91 779 398 
Q 353 888 353 1747 
Q 353 2609 779 3096 
Q 1206 3584 1959 3584 
z
" transform="scale(0.015625)"/>
       <path id="DejaVuSans-66" d="M 2375 4863 
L 2375 4384 
L 1825 4384 
Q 1516 4384 1395 4259 
Q 1275 4134 1275 3809 
L 1275 3500 
L 2222 3500 
L 2222 3053 
L 1275 3053 
L 1275 0 
L 697 0 
L 697 3053 
L 147 3053 
L 147 3500 
L 697 3500 
L 697 3744 
Q 697 4328 969 4595 
Q 1241 4863 1831 4863 
L 2375 4863 
z
" transform="scale(0.015625)"/>
       <path id="DejaVuSans-74" d="M 1172 4494 
L 1172 3500 
L 2356 3500 
L 2356 3053 
L 1172 3053 
L 1172 1153 
Q 1172 725 1289 603 
Q 1406 481 1766 481 
L 2356 481 
L 2356 0 
L 1766 0 
Q 1100 0 847 248 
Q 594 497 594 1153 
L 594 3053 
L 172 3053 
L 172 3500 
L 594 3500 
L 594 4494 
L 1172 4494 
z
" transform="scale(0.015625)"/>
       <path id="DejaVuSans-68" d="M 3513 2113 
L 3513 0 
L 2938 0 
L 2938 2094 
Q 2938 2591 2744 2837 
Q 2550 3084 2163 3084 
Q 1697 3084 1428 2787 
Q 1159 2491 1159 1978 
L 1159 0 
L 581 0 
L 581 4863 
L 1159 4863 
L 1159 2956 
Q 1366 3272 1645 3428 
Q 1925 3584 2291 3584 
Q 2894 3584 3203 3211 
Q 3513 2838 3513 2113 
z
" transform="scale(0.015625)"/>
       <path id="DejaVuSans-61" d="M 2194 1759 
Q 1497 1759 1228 1600 
Q 959 1441 959 1056 
Q 959 750 1161 570 
Q 1363 391 1709 391 
Q 2188 391 2477 730 
Q 2766 1069 2766 1631 
L 2766 1759 
L 2194 1759 
z
M 3341 1997 
L 3341 0 
L 2766 0 
L 2766 531 
Q 2569 213 2275 61 
Q 1981 -91 1556 -91 
Q 1019 -91 701 211 
Q 384 513 384 1019 
Q 384 1609 779 1909 
Q 1175 2209 1959 2209 
L 2766 2209 
L 2766 2266 
Q 2766 2663 2505 2880 
Q 2244 3097 1772 3097 
Q 1472 3097 1187 3025 
Q 903 2953 641 2809 
L 641 3341 
Q 956 3463 1253 3523 
Q 1550 3584 1831 3584 
Q 2591 3584 2966 3190 
Q 3341 2797 3341 1997 
z
" transform="scale(0.015625)"/>
       <path id="DejaVuSans-64" d="M 2906 2969 
L 2906 4863 
L 3481 4863 
L 3481 0 
L 2906 0 
L 2906 525 
Q 2725 213 2448 61 
Q 2172 -91 1784 -91 
Q 1150 -91 751 415 
Q 353 922 353 1747 
Q 353 2572 751 3078 
Q 1150 3584 1784 3584 
Q 2172 3584 2448 3432 
Q 2725 3281 2906 2969 
z
M 947 1747 
Q 947 1113 1208 752 
Q 1469 391 1925 391 
Q 2381 391 2643 752 
Q 2906 1113 2906 1747 
Q 2906 2381 2643 2742 
Q 2381 3103 1925 3103 
Q 1469 3103 1208 2742 
Q 947 2381 947 1747 
z
" transform="scale(0.015625)"/>
      </defs>
      <use xlink:href="#DejaVuSans-4e"/>
      <use xlink:href="#DejaVuSans-75" transform="translate(74.804688 0)"/>
      <use xlink:href="#DejaVuSans-6d" transform="translate(138.183594 0)"/>
      <use xlink:href="#DejaVuSans-62" transform="translate(235.595703 0)"/>
      <use xlink:href="#DejaVuSans-65" transform="translate(299.072266 0)"/>
      <use xlink:href="#DejaVuSans-72" transform="translate(360.595703 0)"/>
      <use xlink:href="#DejaVuSans-20" transform="translate(401.708984 0)"/>
      <use xlink:href="#DejaVuSans-6f" transform="translate(433.496094 0)"/>
      <use xlink:href="#DejaVuSans-66" transform="translate(494.677734 0)"/>
      <use xlink:href="#DejaVuSans-20" transform="translate(529.882812 0)"/>
      <use xlink:href="#DejaVuSans-74" transform="translate(561.669922 0)"/>
      <use xlink:href="#DejaVuSans-68" transform="translate(600.878906 0)"/>
      <use xlink:href="#DejaVuSans-72" transform="translate(664.257812 0)"/>
      <use xlink:href="#DejaVuSans-65" transform="translate(703.121094 0)"/>
      <use xlink:href="#DejaVuSans-61" transform="translate(764.644531 0)"/>
      <use xlink:href="#DejaVuSans-64" transform="translate(825.923828 0)"/>
      <use xlink:href="#DejaVuSans-73" transform="translate(889.400391 0)"/>
     </g>
    </g>
   </g>
   <g id="matplotlib.axis_2">
    <g id="ytick_1">
     <g id="line2d_9">
      <path d="M 43.78125 350.638125 
L 713.38125 350.638125 
" clip-path="url(#p4ccbe67724)" style="fill: none; stroke-dasharray: 0.8,1.32; stroke-dashoffset: 0; stroke: #b0b0b0; stroke-opacity: 0.6; stroke-width: 0.8"/>
     </g>
     <g id="line2d_10">
      <defs>
       <path id="m53591e8709" d="M 0 0 
L -3.5 0 
" style="stroke: #000000; stroke-width: 0.8"/>
      </defs>
      <g>
       <use xlink:href="#m53591e8709" x="43.78125" y="350.638125" style="stroke: #000000; stroke-width: 0.8"/>
      </g>
     </g>
     <g id="text_10">
      <!-- 0.0 -->
      <g transform="translate(20.878125 354.437344) scale(0.1 -0.1)">
       <defs>
        <path id="DejaVuSans-30" d="M 2034 4250 
Q 1547 4250 1301 3770 
Q 1056 3291 1056 2328 
Q 1056 1369 1301 889 
Q 1547 409 2034 409 
Q 2525 409 2770 889 
Q 3016 1369 3016 2328 
Q 3016 3291 2770 3770 
Q 2525 4250 2034 4250 
z
M 2034 4750 
Q 2819 4750 3233 4129 
Q 3647 3509 3647 2328 
Q 3647 1150 3233 529 
Q 2819 -91 2034 -91 
Q 1250 -91 836 529 
Q 422 1150 422 2328 
Q 422 3509 836 4129 
Q 1250 4750 2034 4750 
z
" transform="scale(0.015625)"/>
        <path id="DejaVuSans-2e" d="M 684 794 
L 1344 794 
L 1344 0 
L 684 0 
L 684 794 
z
" transform="scale(0.015625)"/>
       </defs>
       <use xlink:href="#DejaVuSans-30"/>
       <use xlink:href="#DejaVuSans-2e" transform="translate(63.623047 0)"/>
       <use xlink:href="#DejaVuSans-30" transform="translate(95.410156 0)"/>
      </g>
     </g>
    </g>
    <g id="ytick_2">
     <g id="line2d_11">
      <path d="M 43.78125 312.241156 
L 713.38125 312.241156 
" clip-path="url(#p4ccbe67724)" style="fill: none; stroke-dasharray: 0.8,1.32; stroke-dashoffset: 0; stroke: #b0b0b0; stroke-opacity: 0.6; stroke-width: 0.8"/>
     </g>
     <g id="line2d_12">
      <g>
       <use xlink:href="#m53591e8709" x="43.78125" y="312.241156" style="stroke: #000000; stroke-width: 0.8"/>
      </g>
     </g>
     <g id="text_11">
      <!-- 0.2 -->
      <g transform="translate(20.878125 316.040375) scale(0.1 -0.1)">
       <use xlink:href="#DejaVuSans-30"/>
       <use xlink:href="#DejaVuSans-2e" transform="translate(63.623047 0)"/>
       <use xlink:href="#DejaVuSans-32" transform="translate(95.410156 0)"/>
      </g>
     </g>
    </g>
    <g id="ytick_3">
     <g id="line2d_13">
      <path d="M 43.78125 273.844188 
L 713.38125 273.844188 
" clip-path="url(#p4ccbe67724)" style="fill: none; stroke-dasharray: 0.8,1.32; stroke-dashoffset: 0; stroke: #b0b0b0; stroke-opacity: 0.6; stroke-width: 0.8"/>
     </g>
     <g id="line2d_14">
      <g>
       <use xlink:href="#m53591e8709" x="43.78125" y="273.844188" style="stroke: #000000; stroke-width: 0.8"/>
      </g>
     </g>
     <g id="text_12">
      <!-- 0.4 -->
      <g transform="translate(20.878125 277.643406) scale(0.1 -0.1)">
       <use xlink:href="#DejaVuSans-30"/>
       <use xlink:href="#DejaVuSans-2e" transform="translate(63.623047 0)"/>
       <use xlink:href="#DejaVuSans-34" transform="translate(95.410156 0)"/>
      </g>
     </g>
    </g>
    <g id="ytick_4">
     <g id="line2d_15">
      <path d="M 43.78125 235.447219 
L 713.38125 235.447219 
" clip-path="url(#p4ccbe67724)" style="fill: none; stroke-dasharray: 0.8,1.32; stroke-dashoffset: 0; stroke: #b0b0b0; stroke-opacity: 0.6; stroke-width: 0.8"/>
     </g>
     <g id="line2d_16">
      <g>
       <use xlink:href="#m53591e8709" x="43.78125" y="235.447219" style="stroke: #000000; stroke-width: 0.8"/>
      </g>
     </g>
     <g id="text_13">
      <!-- 0.6 -->
      <g transform="translate(20.878125 239.246438) scale(0.1 -0.1)">
       <use xlink:href="#DejaVuSans-30"/>
       <use xlink:href="#DejaVuSans-2e" transform="translate(63.623047 0)"/>
       <use xlink:href="#DejaVuSans-36" transform="translate(95.410156 0)"/>
      </g>
     </g>
    </g>
    <g id="ytick_5">
     <g id="line2d_17">
      <path d="M 43.78125 197.05025 
L 713.38125 197.05025 
" clip-path="url(#p4ccbe67724)" style="fill: none; stroke-dasharray: 0.8,1.32; stroke-dashoffset: 0; stroke: #b0b0b0; stroke-opacity: 0.6; stroke-width: 0.8"/>
     </g>
     <g id="line2d_18">
      <g>
       <use xlink:href="#m53591e8709" x="43.78125" y="197.05025" style="stroke: #000000; stroke-width: 0.8"/>
      </g>
     </g>
     <g id="text_14">
      <!-- 0.8 -->
      <g transform="translate(20.878125 200.849469) scale(0.1 -0.1)">
       <use xlink:href="#DejaVuSans-30"/>
       <use xlink:href="#DejaVuSans-2e" transform="translate(63.623047 0)"/>
       <use xlink:href="#DejaVuSans-38" transform="translate(95.410156 0)"/>
      </g>
     </g>
    </g>
    <g id="ytick_6">
     <g id="line2d_19">
      <path d="M 43.78125 158.653282 
L 713.38125 158.653282 
" clip-path="url(#p4ccbe67724)" style="fill: none; stroke-dasharray: 0.8,1.32; stroke-dashoffset: 0; stroke: #b0b0b0; stroke-opacity: 0.6; stroke-width: 0.8"/>
     </g>
     <g id="line2d_20">
      <g>
       <use xlink:href="#m53591e8709" x="43.78125" y="158.653282" style="stroke: #000000; stroke-width: 0.8"/>
      </g>
     </g>
     <g id="text_15">
      <!-- 1.0 -->
      <g transform="translate(20.878125 162.4525) scale(0.1 -0.1)">
       <use xlink:href="#DejaVuSans-31"/>
       <use xlink:href="#DejaVuSans-2e" transform="translate(63.623047 0)"/>
       <use xlink:href="#DejaVuSans-30" transform="translate(95.410156 0)"/>
      </g>
     </g>
    </g>
    <g id="ytick_7">
     <g id="line2d_21">
      <path d="M 43.78125 120.256313 
L 713.38125 120.256313 
" clip-path="url(#p4ccbe67724)" style="fill: none; stroke-dasharray: 0.8,1.32; stroke-dashoffset: 0; stroke: #b0b0b0; stroke-opacity: 0.6; stroke-width: 0.8"/>
     </g>
     <g id="line2d_22">
      <g>
       <use xlink:href="#m53591e8709" x="43.78125" y="120.256313" style="stroke: #000000; stroke-width: 0.8"/>
      </g>
     </g>
     <g id="text_16">
      <!-- 1.2 -->
      <g transform="translate(20.878125 124.055532) scale(0.1 -0.1)">
       <use xlink:href="#DejaVuSans-31"/>
       <use xlink:href="#DejaVuSans-2e" transform="translate(63.623047 0)"/>
       <use xlink:href="#DejaVuSans-32" transform="translate(95.410156 0)"/>
      </g>
     </g>
    </g>
    <g id="ytick_8">
     <g id="line2d_23">
      <path d="M 43.78125 81.859344 
L 713.38125 81.859344 
" clip-path="url(#p4ccbe67724)" style="fill: none; stroke-dasharray: 0.8,1.32; stroke-dashoffset: 0; stroke: #b0b0b0; stroke-opacity: 0.6; stroke-width: 0.8"/>
     </g>
     <g id="line2d_24">
      <g>
       <use xlink:href="#m53591e8709" x="43.78125" y="81.859344" style="stroke: #000000; stroke-width: 0.8"/>
      </g>
     </g>
     <g id="text_17">
      <!-- 1.4 -->
      <g transform="translate(20.878125 85.658563) scale(0.1 -0.1)">
       <use xlink:href="#DejaVuSans-31"/>
       <use xlink:href="#DejaVuSans-2e" transform="translate(63.623047 0)"/>
       <use xlink:href="#DejaVuSans-34" transform="translate(95.410156 0)"/>
      </g>
     </g>
    </g>
    <g id="ytick_9">
     <g id="line2d_25">
      <path d="M 43.78125 43.462376 
L 713.38125 43.462376 
" clip-path="url(#p4ccbe67724)" style="fill: none; stroke-dasharray: 0.8,1.32; stroke-dashoffset: 0; stroke: #b0b0b0; stroke-opacity: 0.6; stroke-width: 0.8"/>
     </g>
     <g id="line2d_26">
      <g>
       <use xlink:href="#m53591e8709" x="43.78125" y="43.462376" style="stroke: #000000; stroke-width: 0.8"/>
      </g>
     </g>
     <g id="text_18">
      <!-- 1.6 -->
      <g transform="translate(20.878125 47.261594) scale(0.1 -0.1)">
       <use xlink:href="#DejaVuSans-31"/>
       <use xlink:href="#DejaVuSans-2e" transform="translate(63.623047 0)"/>
       <use xlink:href="#DejaVuSans-36" transform="translate(95.410156 0)"/>
      </g>
     </g>
    </g>
    <g id="text_19">
     <!-- Per-loop time (s) -->
     <g transform="translate(14.798438 227.591406) rotate(-90) scale(0.1 -0.1)">
      <defs>
       <path id="DejaVuSans-50" d="M 1259 4147 
L 1259 2394 
L 2053 2394 
Q 2494 2394 2734 2622 
Q 2975 2850 2975 3272 
Q 2975 3691 2734 3919 
Q 2494 4147 2053 4147 
L 1259 4147 
z
M 628 4666 
L 2053 4666 
Q 2838 4666 3239 4311 
Q 3641 3956 3641 3272 
Q 3641 2581 3239 2228 
Q 2838 1875 2053 1875 
L 1259 1875 
L 1259 0 
L 628 0 
L 628 4666 
z
" transform="scale(0.015625)"/>
       <path id="DejaVuSans-2d" d="M 313 2009 
L 1997 2009 
L 1997 1497 
L 313 1497 
L 313 2009 
z
" transform="scale(0.015625)"/>
       <path id="DejaVuSans-6c" d="M 603 4863 
L 1178 4863 
L 1178 0 
L 603 0 
L 603 4863 
z
" transform="scale(0.015625)"/>
       <path id="DejaVuSans-70" d="M 1159 525 
L 1159 -1331 
L 581 -1331 
L 581 3500 
L 1159 3500 
L 1159 2969 
Q 1341 3281 1617 3432 
Q 1894 3584 2278 3584 
Q 2916 3584 3314 3078 
Q 3713 2572 3713 1747 
Q 3713 922 3314 415 
Q 2916 -91 2278 -91 
Q 1894 -91 1617 61 
Q 1341 213 1159 525 
z
M 3116 1747 
Q 3116 2381 2855 2742 
Q 2594 3103 2138 3103 
Q 1681 3103 1420 2742 
Q 1159 2381 1159 1747 
Q 1159 1113 1420 752 
Q 1681 391 2138 391 
Q 2594 391 2855 752 
Q 3116 1113 3116 1747 
z
" transform="scale(0.015625)"/>
       <path id="DejaVuSans-69" d="M 603 3500 
L 1178 3500 
L 1178 0 
L 603 0 
L 603 3500 
z
M 603 4863 
L 1178 4863 
L 1178 4134 
L 603 4134 
L 603 4863 
z
" transform="scale(0.015625)"/>
       <path id="DejaVuSans-28" d="M 1984 4856 
Q 1566 4138 1362 3434 
Q 1159 2731 1159 2009 
Q 1159 1288 1364 580 
Q 1569 -128 1984 -844 
L 1484 -844 
Q 1016 -109 783 600 
Q 550 1309 550 2009 
Q 550 2706 781 3412 
Q 1013 4119 1484 4856 
L 1984 4856 
z
" transform="scale(0.015625)"/>
       <path id="DejaVuSans-29" d="M 513 4856 
L 1013 4856 
Q 1481 4119 1714 3412 
Q 1947 2706 1947 2009 
Q 1947 1309 1714 600 
Q 1481 -109 1013 -844 
L 513 -844 
Q 928 -128 1133 580 
Q 1338 1288 1338 2009 
Q 1338 2731 1133 3434 
Q 928 4138 513 4856 
z
" transform="scale(0.015625)"/>
      </defs>
      <use xlink:href="#DejaVuSans-50"/>
      <use xlink:href="#DejaVuSans-65" transform="translate(56.677734 0)"/>
      <use xlink:href="#DejaVuSans-72" transform="translate(118.201172 0)"/>
      <use xlink:href="#DejaVuSans-2d" transform="translate(152.939453 0)"/>
      <use xlink:href="#DejaVuSans-6c" transform="translate(189.023438 0)"/>
      <use xlink:href="#DejaVuSans-6f" transform="translate(216.806641 0)"/>
      <use xlink:href="#DejaVuSans-6f" transform="translate(277.988281 0)"/>
      <use xlink:href="#DejaVuSans-70" transform="translate(339.169922 0)"/>
      <use xlink:href="#DejaVuSans-20" transform="translate(402.646484 0)"/>
      <use xlink:href="#DejaVuSans-74" transform="translate(434.433594 0)"/>
      <use xlink:href="#DejaVuSans-69" transform="translate(473.642578 0)"/>
      <use xlink:href="#DejaVuSans-6d" transform="translate(501.425781 0)"/>
      <use xlink:href="#DejaVuSans-65" transform="translate(598.837891 0)"/>
      <use xlink:href="#DejaVuSans-20" transform="translate(660.361328 0)"/>
      <use xlink:href="#DejaVuSans-28" transform="translate(692.148438 0)"/>
      <use xlink:href="#DejaVuSans-73" transform="translate(731.162109 0)"/>
      <use xlink:href="#DejaVuSans-29" transform="translate(783.261719 0)"/>
     </g>
    </g>
   </g>
   <g id="patch_43">
    <path d="M 43.78125 350.638125 
L 43.78125 22.318125 
" style="fill: none; stroke: #000000; stroke-width: 0.8; stroke-linejoin: miter; stroke-linecap: square"/>
   </g>
   <g id="patch_44">
    <path d="M 713.38125 350.638125 
L 713.38125 22.318125 
" style="fill: none; stroke: #000000; stroke-width: 0.8; stroke-linejoin: miter; stroke-linecap: square"/>
   </g>
   <g id="patch_45">
    <path d="M 43.78125 350.638125 
L 713.38125 350.638125 
" style="fill: none; stroke: #000000; stroke-width: 0.8; stroke-linejoin: miter; stroke-linecap: square"/>
   </g>
   <g id="patch_46">
    <path d="M 43.78125 22.318125 
L 713.38125 22.318125 
" style="fill: none; stroke: #000000; stroke-width: 0.8; stroke-linejoin: miter; stroke-linecap: square"/>
   </g>
   <g id="text_20">
    <!-- Execution time — all implementations -->
    <g transform="translate(264.28125 16.318125) scale(0.12 -0.12)">
     <defs>
      <path id="DejaVuSans-45" d="M 628 4666 
L 3578 4666 
L 3578 4134 
L 1259 4134 
L 1259 2753 
L 3481 2753 
L 3481 2222 
L 1259 2222 
L 1259 531 
L 3634 531 
L 3634 0 
L 628 0 
L 628 4666 
z
" transform="scale(0.015625)"/>
      <path id="DejaVuSans-78" d="M 3513 3500 
L 2247 1797 
L 3578 0 
L 2900 0 
L 1881 1375 
L 863 0 
L 184 0 
L 1544 1831 
L 300 3500 
L 978 3500 
L 1906 2253 
L 2834 3500 
L 3513 3500 
z
" transform="scale(0.015625)"/>
      <path id="DejaVuSans-63" d="M 3122 3366 
L 3122 2828 
Q 2878 2963 2633 3030 
Q 2388 3097 2138 3097 
Q 1578 3097 1268 2742 
Q 959 2388 959 1747 
Q 959 1106 1268 751 
Q 1578 397 2138 397 
Q 2388 397 2633 464 
Q 2878 531 3122 666 
L 3122 134 
Q 2881 22 2623 -34 
Q 2366 -91 2075 -91 
Q 1284 -91 818 406 
Q 353 903 353 1747 
Q 353 2603 823 3093 
Q 1294 3584 2113 3584 
Q 2378 3584 2631 3529 
Q 2884 3475 3122 3366 
z
" transform="scale(0.015625)"/>
      <path id="DejaVuSans-6e" d="M 3513 2113 
L 3513 0 
L 2938 0 
L 2938 2094 
Q 2938 2591 2744 2837 
Q 2550 3084 2163 3084 
Q 1697 3084 1428 2787 
Q 1159 2491 1159 1978 
L 1159 0 
L 581 0 
L 581 3500 
L 1159 3500 
L 1159 2956 
Q 1366 3272 1645 3428 
Q 1925 3584 2291 3584 
Q 2894 3584 3203 3211 
Q 3513 2838 3513 2113 
z
" transform="scale(0.015625)"/>
      <path id="DejaVuSans-2014" d="M 313 1978 
L 6088 1978 
L 6088 1528 
L 313 1528 
L 313 1978 
z
" transform="scale(0.015625)"/>
     </defs>
     <use xlink:href="#DejaVuSans-45"/>
     <use xlink:href="#DejaVuSans-78" transform="translate(63.183594 0)"/>
     <use xlink:href="#DejaVuSans-65" transform="translate(119.238281 0)"/>
     <use xlink:href="#DejaVuSans-63" transform="translate(180.761719 0)"/>
     <use xlink:href="#DejaVuSans-75" transform="translate(235.742188 0)"/>
     <use xlink:href="#DejaVuSans-74" transform="translate(299.121094 0)"/>
     <use xlink:href="#DejaVuSans-69" transform="translate(338.330078 0)"/>
     <use xlink:href="#DejaVuSans-6f" transform="translate(366.113281 0)"/>
     <use xlink:href="#DejaVuSans-6e" transform="translate(427.294922 0)"/>
     <use xlink:href="#DejaVuSans-20" transform="translate(490.673828 0)"/>
     <use xlink:href="#DejaVuSans-74" transform="translate(522.460938 0)"/>
     <use xlink:href="#DejaVuSans-69" transform="translate(561.669922 0)"/>
     <use xlink:href="#DejaVuSans-6d" transform="translate(589.453125 0)"/>
     <use xlink:href="#DejaVuSans-65" transform="translate(686.865234 0)"/>
     <use xlink:href="#DejaVuSans-20" transform="translate(748.388672 0)"/>
     <use xlink:href="#DejaVuSans-2014" transform="translate(780.175781 0)"/>
     <use xlink:href="#DejaVuSans-20" transform="translate(880.175781 0)"/>
     <use xlink:href="#DejaVuSans-61" transform="translate(911.962891 0)"/>
     <use xlink:href="#DejaVuSans-6c" transform="translate(973.242188 0)"/>
     <use xlink:href="#DejaVuSans-6c" transform="translate(1001.025391 0)"/>
     <use xlink:href="#DejaVuSans-20" transform="translate(1028.808594 0)"/>
     <use xlink:href="#DejaVuSans-69" transform="translate(1060.595703 0)"/>
     <use xlink:href="#DejaVuSans-6d" transform="translate(1088.378906 0)"/>
     <use xlink:href="#DejaVuSans-70" transform="translate(1185.791016 0)"/>
     <use xlink:href="#DejaVuSans-6c" transform="translate(1249.267578 0)"/>
     <use xlink:href="#DejaVuSans-65" transform="translate(1277.050781 0)"/>
     <use xlink:href="#DejaVuSans-6d" transform="translate(1338.574219 0)"/>
     <use xlink:href="#DejaVuSans-65" transform="translate(1435.986328 0)"/>
     <use xlink:href="#DejaVuSans-6e" transform="translate(1497.509766 0)"/>
     <use xlink:href="#DejaVuSans-74" transform="translate(1560.888672 0)"/>
     <use xlink:href="#DejaVuSans-61" transform="translate(1600.097656 0)"/>
     <use xlink:href="#DejaVuSans-74" transform="translate(1661.376953 0)"/>
     <use xlink:href="#DejaVuSans-69" transform="translate(1700.585938 0)"/>
     <use xlink:href="#DejaVuSans-6f" transform="translate(1728.369141 0)"/>
     <use xlink:href="#DejaVuSans-6e" transform="translate(1789.550781 0)"/>
     <use xlink:href="#DejaVuSans-73" transform="translate(1852.929688 0)"/>
    </g>
   </g>
   <g id="legend_1">
    <g id="patch_47">
     <path d="M 728.77325 99.543125 
L 919.488875 99.543125 
Q 921.488875 99.543125 921.488875 97.543125 
L 921.488875 24.318125 
Q 921.488875 22.318125 919.488875 22.318125 
L 728.77325 22.318125 
Q 726.77325 22.318125 726.77325 24.318125 
L 726.77325 97.543125 
Q 726.77325 99.543125 728.77325 99.543125 
z
" style="fill: #ffffff; opacity: 0.8; stroke: #cccccc; stroke-linejoin: miter"/>
    </g>
    <g id="patch_48">
     <path d="M 730.77325 33.916562 
L 750.77325 33.916562 
L 750.77325 26.916562 
L 730.77325 26.916562 
z
" style="fill: #1f77b4; stroke: #000000; stroke-width: 0.5; stroke-linejoin: miter"/>
    </g>
    <g id="text_21">
     <!-- reduction - false_sharing -->
     <g transform="translate(758.77325 33.916562) scale(0.1 -0.1)">
      <defs>
       <path id="DejaVuSans-5f" d="M 3263 -1063 
L 3263 -1509 
L -63 -1509 
L -63 -1063 
L 3263 -1063 
z
" transform="scale(0.015625)"/>
       <path id="DejaVuSans-67" d="M 2906 1791 
Q 2906 2416 2648 2759 
Q 2391 3103 1925 3103 
Q 1463 3103 1205 2759 
Q 947 2416 947 1791 
Q 947 1169 1205 825 
Q 1463 481 1925 481 
Q 2391 481 2648 825 
Q 2906 1169 2906 1791 
z
M 3481 434 
Q 3481 -459 3084 -895 
Q 2688 -1331 1869 -1331 
Q 1566 -1331 1297 -1286 
Q 1028 -1241 775 -1147 
L 775 -588 
Q 1028 -725 1275 -790 
Q 1522 -856 1778 -856 
Q 2344 -856 2625 -561 
Q 2906 -266 2906 331 
L 2906 616 
Q 2728 306 2450 153 
Q 2172 0 1784 0 
Q 1141 0 747 490 
Q 353 981 353 1791 
Q 353 2603 747 3093 
Q 1141 3584 1784 3584 
Q 2172 3584 2450 3431 
Q 2728 3278 2906 2969 
L 2906 3500 
L 3481 3500 
L 3481 434 
z
" transform="scale(0.015625)"/>
      </defs>
      <use xlink:href="#DejaVuSans-72"/>
      <use xlink:href="#DejaVuSans-65" transform="translate(38.863281 0)"/>
      <use xlink:href="#DejaVuSans-64" transform="translate(100.386719 0)"/>
      <use xlink:href="#DejaVuSans-75" transform="translate(163.863281 0)"/>
      <use xlink:href="#DejaVuSans-63" transform="translate(227.242188 0)"/>
      <use xlink:href="#DejaVuSans-74" transform="translate(282.222656 0)"/>
      <use xlink:href="#DejaVuSans-69" transform="translate(321.431641 0)"/>
      <use xlink:href="#DejaVuSans-6f" transform="translate(349.214844 0)"/>
      <use xlink:href="#DejaVuSans-6e" transform="translate(410.396484 0)"/>
      <use xlink:href="#DejaVuSans-20" transform="translate(473.775391 0)"/>
      <use xlink:href="#DejaVuSans-2d" transform="translate(505.5625 0)"/>
      <use xlink:href="#DejaVuSans-20" transform="translate(541.646484 0)"/>
      <use xlink:href="#DejaVuSans-66" transform="translate(573.433594 0)"/>
      <use xlink:href="#DejaVuSans-61" transform="translate(608.638672 0)"/>
      <use xlink:href="#DejaVuSans-6c" transform="translate(669.917969 0)"/>
      <use xlink:href="#DejaVuSans-73" transform="translate(697.701172 0)"/>
      <use xlink:href="#DejaVuSans-65" transform="translate(749.800781 0)"/>
      <use xlink:href="#DejaVuSans-5f" transform="translate(811.324219 0)"/>
      <use xlink:href="#DejaVuSans-73" transform="translate(861.324219 0)"/>
      <use xlink:href="#DejaVuSans-68" transform="translate(913.423828 0)"/>
      <use xlink:href="#DejaVuSans-61" transform="translate(976.802734 0)"/>
      <use xlink:href="#DejaVuSans-72" transform="translate(1038.082031 0)"/>
      <use xlink:href="#DejaVuSans-69" transform="translate(1079.195312 0)"/>
      <use xlink:href="#DejaVuSans-6e" transform="translate(1106.978516 0)"/>
      <use xlink:href="#DejaVuSans-67" transform="translate(1170.357422 0)"/>
     </g>
    </g>
    <g id="patch_49">
     <path d="M 730.77325 48.872812 
L 750.77325 48.872812 
L 750.77325 41.872812 
L 730.77325 41.872812 
z
" style="fill: #ff7f0e; stroke: #000000; stroke-width: 0.5; stroke-linejoin: miter"/>
    </g>
    <g id="text_22">
     <!-- reduction - false_sharing_fix -->
     <g transform="translate(758.77325 48.872812) scale(0.1 -0.1)">
      <use xlink:href="#DejaVuSans-72"/>
      <use xlink:href="#DejaVuSans-65" transform="translate(38.863281 0)"/>
      <use xlink:href="#DejaVuSans-64" transform="translate(100.386719 0)"/>
      <use xlink:href="#DejaVuSans-75" transform="translate(163.863281 0)"/>
      <use xlink:href="#DejaVuSans-63" transform="translate(227.242188 0)"/>
      <use xlink:href="#DejaVuSans-74" transform="translate(282.222656 0)"/>
      <use xlink:href="#DejaVuSans-69" transform="translate(321.431641 0)"/>
      <use xlink:href="#DejaVuSans-6f" transform="translate(349.214844 0)"/>
      <use xlink:href="#DejaVuSans-6e" transform="translate(410.396484 0)"/>
      <use xlink:href="#DejaVuSans-20" transform="translate(473.775391 0)"/>
      <use xlink:href="#DejaVuSans-2d" transform="translate(505.5625 0)"/>
      <use xlink:href="#DejaVuSans-20" transform="translate(541.646484 0)"/>
      <use xlink:href="#DejaVuSans-66" transform="translate(573.433594 0)"/>
      <use xlink:href="#DejaVuSans-61" transform="translate(608.638672 0)"/>
      <use xlink:href="#DejaVuSans-6c" transform="translate(669.917969 0)"/>
      <use xlink:href="#DejaVuSans-73" transform="translate(697.701172 0)"/>
      <use xlink:href="#DejaVuSans-65" transform="translate(749.800781 0)"/>
      <use xlink:href="#DejaVuSans-5f" transform="translate(811.324219 0)"/>
      <use xlink:href="#DejaVuSans-73" transform="translate(861.324219 0)"/>
      <use xlink:href="#DejaVuSans-68" transform="translate(913.423828 0)"/>
      <use xlink:href="#DejaVuSans-61" transform="translate(976.802734 0)"/>
      <use xlink:href="#DejaVuSans-72" transform="translate(1038.082031 0)"/>
      <use xlink:href="#DejaVuSans-69" transform="translate(1079.195312 0)"/>
      <use xlink:href="#DejaVuSans-6e" transform="translate(1106.978516 0)"/>
      <use xlink:href="#DejaVuSans-67" transform="translate(1170.357422 0)"/>
      <use xlink:href="#DejaVuSans-5f" transform="translate(1233.833984 0)"/>
      <use xlink:href="#DejaVuSans-66" transform="translate(1283.833984 0)"/>
      <use xlink:href="#DejaVuSans-69" transform="translate(1319.039062 0)"/>
      <use xlink:href="#DejaVuSans-78" transform="translate(1346.822266 0)"/>
     </g>
    </g>
    <g id="patch_50">
     <path d="M 730.77325 63.829062 
L 750.77325 63.829062 
L 750.77325 56.829062 
L 730.77325 56.829062 
z
" style="fill: #2ca02c; stroke: #000000; stroke-width: 0.5; stroke-linejoin: miter"/>
    </g>
    <g id="text_23">
     <!-- reduction - locals_shared_calloc -->
     <g transform="translate(758.77325 63.829062) scale(0.1 -0.1)">
      <use xlink:href="#DejaVuSans-72"/>
      <use xlink:href="#DejaVuSans-65" transform="translate(38.863281 0)"/>
      <use xlink:href="#DejaVuSans-64" transform="translate(100.386719 0)"/>
      <use xlink:href="#DejaVuSans-75" transform="translate(163.863281 0)"/>
      <use xlink:href="#DejaVuSans-63" transform="translate(227.242188 0)"/>
      <use xlink:href="#DejaVuSans-74" transform="translate(282.222656 0)"/>
      <use xlink:href="#DejaVuSans-69" transform="translate(321.431641 0)"/>
      <use xlink:href="#DejaVuSans-6f" transform="translate(349.214844 0)"/>
      <use xlink:href="#DejaVuSans-6e" transform="translate(410.396484 0)"/>
      <use xlink:href="#DejaVuSans-20" transform="translate(473.775391 0)"/>
      <use xlink:href="#DejaVuSans-2d" transform="translate(505.5625 0)"/>
      <use xlink:href="#DejaVuSans-20" transform="translate(541.646484 0)"/>
      <use xlink:href="#DejaVuSans-6c" transform="translate(573.433594 0)"/>
      <use xlink:href="#DejaVuSans-6f" transform="translate(601.216797 0)"/>
      <use xlink:href="#DejaVuSans-63" transform="translate(662.398438 0)"/>
      <use xlink:href="#DejaVuSans-61" transform="translate(717.378906 0)"/>
      <use xlink:href="#DejaVuSans-6c" transform="translate(778.658203 0)"/>
      <use xlink:href="#DejaVuSans-73" transform="translate(806.441406 0)"/>
      <use xlink:href="#DejaVuSans-5f" transform="translate(858.541016 0)"/>
      <use xlink:href="#DejaVuSans-73" transform="translate(908.541016 0)"/>
      <use xlink:href="#DejaVuSans-68" transform="translate(960.640625 0)"/>
      <use xlink:href="#DejaVuSans-61" transform="translate(1024.019531 0)"/>
      <use xlink:href="#DejaVuSans-72" transform="translate(1085.298828 0)"/>
      <use xlink:href="#DejaVuSans-65" transform="translate(1124.162109 0)"/>
      <use xlink:href="#DejaVuSans-64" transform="translate(1185.685547 0)"/>
      <use xlink:href="#DejaVuSans-5f" transform="translate(1249.162109 0)"/>
      <use xlink:href="#DejaVuSans-63" transform="translate(1299.162109 0)"/>
      <use xlink:href="#DejaVuSans-61" transform="translate(1354.142578 0)"/>
      <use xlink:href="#DejaVuSans-6c" transform="translate(1415.421875 0)"/>
      <use xlink:href="#DejaVuSans-6c" transform="translate(1443.205078 0)"/>
      <use xlink:href="#DejaVuSans-6f" transform="translate(1470.988281 0)"/>
      <use xlink:href="#DejaVuSans-63" transform="translate(1532.169922 0)"/>
     </g>
    </g>
    <g id="patch_51">
     <path d="M 730.77325 78.785312 
L 750.77325 78.785312 
L 750.77325 71.785312 
L 730.77325 71.785312 
z
" style="fill: #d62728; stroke: #000000; stroke-width: 0.5; stroke-linejoin: miter"/>
    </g>
    <g id="text_24">
     <!-- reduction - numa-aware -->
     <g transform="translate(758.77325 78.785312) scale(0.1 -0.1)">
      <defs>
       <path id="DejaVuSans-77" d="M 269 3500 
L 844 3500 
L 1563 769 
L 2278 3500 
L 2956 3500 
L 3675 769 
L 4391 3500 
L 4966 3500 
L 4050 0 
L 3372 0 
L 2619 2869 
L 1863 0 
L 1184 0 
L 269 3500 
z
" transform="scale(0.015625)"/>
      </defs>
      <use xlink:href="#DejaVuSans-72"/>
      <use xlink:href="#DejaVuSans-65" transform="translate(38.863281 0)"/>
      <use xlink:href="#DejaVuSans-64" transform="translate(100.386719 0)"/>
      <use xlink:href="#DejaVuSans-75" transform="translate(163.863281 0)"/>
      <use xlink:href="#DejaVuSans-63" transform="translate(227.242188 0)"/>
      <use xlink:href="#DejaVuSans-74" transform="translate(282.222656 0)"/>
      <use xlink:href="#DejaVuSans-69" transform="translate(321.431641 0)"/>
      <use xlink:href="#DejaVuSans-6f" transform="translate(349.214844 0)"/>
      <use xlink:href="#DejaVuSans-6e" transform="translate(410.396484 0)"/>
      <use xlink:href="#DejaVuSans-20" transform="translate(473.775391 0)"/>
      <use xlink:href="#DejaVuSans-2d" transform="translate(505.5625 0)"/>
      <use xlink:href="#DejaVuSans-20" transform="translate(541.646484 0)"/>
      <use xlink:href="#DejaVuSans-6e" transform="translate(573.433594 0)"/>
      <use xlink:href="#DejaVuSans-75" transform="translate(636.8125 0)"/>
      <use xlink:href="#DejaVuSans-6d" transform="translate(700.191406 0)"/>
      <use xlink:href="#DejaVuSans-61" transform="translate(797.603516 0)"/>
      <use xlink:href="#DejaVuSans-2d" transform="translate(858.882812 0)"/>
      <use xlink:href="#DejaVuSans-61" transform="translate(894.966797 0)"/>
      <use xlink:href="#DejaVuSans-77" transform="translate(956.246094 0)"/>
      <use xlink:href="#DejaVuSans-61" transform="translate(1038.033203 0)"/>
      <use xlink:href="#DejaVuSans-72" transform="translate(1099.3125 0)"/>
      <use xlink:href="#DejaVuSans-65" transform="translate(1138.175781 0)"/>
     </g>
    </g>
    <g id="patch_52">
     <path d="M 730.77325 93.463437 
L 750.77325 93.463437 
L 750.77325 86.463437 
L 730.77325 86.463437 
z
" style="fill: #9467bd; stroke: #000000; stroke-width: 0.5; stroke-linejoin: miter"/>
    </g>
    <g id="text_25">
     <!-- reduction -->
     <g transform="translate(758.77325 93.463437) scale(0.1 -0.1)">
      <use xlink:href="#DejaVuSans-72"/>
      <use xlink:href="#DejaVuSans-65" transform="translate(38.863281 0)"/>
      <use xlink:href="#DejaVuSans-64" transform="translate(100.386719 0)"/>
      <use xlink:href="#DejaVuSans-75" transform="translate(163.863281 0)"/>
      <use xlink:href="#DejaVuSans-63" transform="translate(227.242188 0)"/>
      <use xlink:href="#DejaVuSans-74" transform="translate(282.222656 0)"/>
      <use xlink:href="#DejaVuSans-69" transform="translate(321.431641 0)"/>
      <use xlink:href="#DejaVuSans-6f" transform="translate(349.214844 0)"/>
      <use xlink:href="#DejaVuSans-6e" transform="translate(410.396484 0)"/>
     </g>
    </g>
   </g>
  </g>
  <g id="text_26">
   <!-- Dataset: 256.00 MB  |  Coordinates: 1  |  Clusters: 4 -->
   <g transform="translate(208.367344 393.838125) scale(0.09 -0.09)">
    <defs>
     <path id="DejaVuSans-Oblique-44" d="M 1081 4666 
L 2438 4666 
Q 3519 4666 4070 4208 
Q 4622 3750 4622 2847 
Q 4622 2250 4412 1698 
Q 4203 1147 3834 769 
Q 3463 381 2891 190 
Q 2319 0 1538 0 
L 172 0 
L 1081 4666 
z
M 1613 4147 
L 909 519 
L 1734 519 
Q 2794 519 3375 1128 
Q 3956 1738 3956 2847 
Q 3956 3519 3581 3833 
Q 3206 4147 2406 4147 
L 1613 4147 
z
" transform="scale(0.015625)"/>
     <path id="DejaVuSans-Oblique-61" d="M 3438 1997 
L 3047 0 
L 2472 0 
L 2578 531 
Q 2325 219 2001 64 
Q 1678 -91 1281 -91 
Q 834 -91 548 182 
Q 263 456 263 884 
Q 263 1497 752 1853 
Q 1241 2209 2100 2209 
L 2900 2209 
L 2931 2363 
Q 2938 2388 2941 2417 
Q 2944 2447 2944 2509 
Q 2944 2788 2717 2942 
Q 2491 3097 2081 3097 
Q 1800 3097 1504 3025 
Q 1209 2953 897 2809 
L 997 3341 
Q 1322 3463 1633 3523 
Q 1944 3584 2234 3584 
Q 2853 3584 3176 3315 
Q 3500 3047 3500 2534 
Q 3500 2431 3484 2292 
Q 3469 2153 3438 1997 
z
M 2816 1759 
L 2241 1759 
Q 1534 1759 1195 1570 
Q 856 1381 856 984 
Q 856 709 1029 553 
Q 1203 397 1509 397 
Q 1978 397 2328 733 
Q 2678 1069 2791 1631 
L 2816 1759 
z
" transform="scale(0.015625)"/>
     <path id="DejaVuSans-Oblique-74" d="M 2706 3500 
L 2619 3053 
L 1472 3053 
L 1100 1153 
Q 1081 1047 1072 975 
Q 1063 903 1063 863 
Q 1063 663 1183 572 
Q 1303 481 1569 481 
L 2150 481 
L 2053 0 
L 1503 0 
Q 991 0 739 200 
Q 488 400 488 806 
Q 488 878 497 964 
Q 506 1050 525 1153 
L 897 3053 
L 409 3053 
L 500 3500 
L 978 3500 
L 1172 4494 
L 1747 4494 
L 1556 3500 
L 2706 3500 
z
" transform="scale(0.015625)"/>
     <path id="DejaVuSans-Oblique-73" d="M 3200 3397 
L 3091 2853 
Q 2863 2978 2609 3040 
Q 2356 3103 2088 3103 
Q 1634 3103 1373 2948 
Q 1113 2794 1113 2528 
Q 1113 2219 1719 2053 
Q 1766 2041 1788 2034 
L 1972 1978 
Q 2547 1819 2739 1644 
Q 2931 1469 2931 1166 
Q 2931 609 2489 259 
Q 2047 -91 1331 -91 
Q 1053 -91 747 -37 
Q 441 16 72 128 
L 184 722 
Q 500 559 806 475 
Q 1113 391 1394 391 
Q 1816 391 2080 572 
Q 2344 753 2344 1031 
Q 2344 1331 1650 1516 
L 1591 1531 
L 1394 1581 
Q 956 1697 753 1886 
Q 550 2075 550 2369 
Q 550 2928 970 3256 
Q 1391 3584 2113 3584 
Q 2397 3584 2667 3537 
Q 2938 3491 3200 3397 
z
" transform="scale(0.015625)"/>
     <path id="DejaVuSans-Oblique-65" d="M 3078 2063 
Q 3088 2113 3092 2166 
Q 3097 2219 3097 2272 
Q 3097 2653 2873 2875 
Q 2650 3097 2266 3097 
Q 1838 3097 1509 2826 
Q 1181 2556 1013 2059 
L 3078 2063 
z
M 3578 1613 
L 903 1613 
Q 884 1494 878 1425 
Q 872 1356 872 1306 
Q 872 872 1139 634 
Q 1406 397 1894 397 
Q 2269 397 2603 481 
Q 2938 566 3225 728 
L 3116 159 
Q 2806 34 2476 -28 
Q 2147 -91 1806 -91 
Q 1078 -91 686 257 
Q 294 606 294 1247 
Q 294 1794 489 2264 
Q 684 2734 1063 3103 
Q 1306 3334 1642 3459 
Q 1978 3584 2356 3584 
Q 2950 3584 3301 3228 
Q 3653 2872 3653 2272 
Q 3653 2128 3634 1964 
Q 3616 1800 3578 1613 
z
" transform="scale(0.015625)"/>
     <path id="DejaVuSans-Oblique-3a" d="M 978 3309 
L 1638 3309 
L 1484 2516 
L 825 2516 
L 978 3309 
z
M 488 794 
L 1147 794 
L 991 0 
L 331 0 
L 488 794 
z
" transform="scale(0.015625)"/>
     <path id="DejaVuSans-Oblique-20" transform="scale(0.015625)"/>
     <path id="DejaVuSans-Oblique-32" d="M 2950 2253 
L 934 525 
L 3163 525 
L 3053 0 
L 25 0 
L 128 531 
L 2234 2338 
Q 2656 2703 2832 2979 
Q 3009 3256 3009 3547 
Q 3009 3850 2796 4040 
Q 2584 4231 2241 4231 
Q 1944 4231 1581 4125 
Q 1219 4019 806 3816 
L 922 4441 
Q 1309 4594 1662 4672 
Q 2016 4750 2316 4750 
Q 2928 4750 3301 4425 
Q 3675 4100 3675 3572 
Q 3675 3216 3497 2892 
Q 3319 2569 2950 2253 
z
" transform="scale(0.015625)"/>
     <path id="DejaVuSans-Oblique-35" d="M 3719 4666 
L 3622 4141 
L 1691 4141 
L 1466 2988 
Q 1609 3034 1757 3056 
Q 1906 3078 2059 3078 
Q 2706 3078 3081 2731 
Q 3456 2384 3456 1791 
Q 3456 1375 3264 994 
Q 3072 613 2719 325 
Q 2469 125 2108 17 
Q 1747 -91 1319 -91 
Q 1038 -91 744 -41 
Q 450 9 128 109 
L 244 697 
Q 531 556 820 486 
Q 1109 416 1403 416 
Q 2013 416 2411 781 
Q 2809 1147 2809 1697 
Q 2809 2103 2548 2328 
Q 2288 2553 1819 2553 
Q 1572 2553 1305 2495 
Q 1038 2438 756 2322 
L 1209 4666 
L 3719 4666 
z
" transform="scale(0.015625)"/>
     <path id="DejaVuSans-Oblique-36" d="M 2938 1728 
Q 2938 2125 2734 2354 
Q 2531 2584 2181 2584 
Q 1697 2584 1367 2211 
Q 1038 1838 1038 1288 
Q 1038 875 1239 642 
Q 1441 409 1797 409 
Q 2284 409 2611 792 
Q 2938 1175 2938 1728 
z
M 3788 4556 
L 3681 3981 
Q 3500 4100 3265 4162 
Q 3031 4225 2766 4225 
Q 2119 4225 1726 3819 
Q 1334 3413 1141 2547 
Q 1369 2813 1670 2948 
Q 1972 3084 2322 3084 
Q 2894 3084 3233 2754 
Q 3572 2425 3572 1869 
Q 3572 1413 3405 1020 
Q 3238 628 2919 331 
Q 2700 128 2409 18 
Q 2119 -91 1791 -91 
Q 1147 -91 775 318 
Q 403 728 403 1441 
Q 403 2103 573 2717 
Q 744 3331 1050 3781 
Q 1372 4256 1830 4503 
Q 2288 4750 2841 4750 
Q 3084 4750 3321 4701 
Q 3559 4653 3788 4556 
z
" transform="scale(0.015625)"/>
     <path id="DejaVuSans-Oblique-2e" d="M 525 794 
L 1184 794 
L 1031 0 
L 372 0 
L 525 794 
z
" transform="scale(0.015625)"/>
     <path id="DejaVuSans-Oblique-30" d="M 2444 4750 
Q 3078 4750 3414 4328 
Q 3750 3906 3750 3116 
Q 3750 2516 3592 1923 
Q 3434 1331 3150 863 
Q 2859 394 2467 151 
Q 2075 -91 1600 -91 
Q 988 -91 653 334 
Q 319 759 319 1544 
Q 319 2138 480 2733 
Q 641 3328 928 3794 
Q 1216 4263 1602 4506 
Q 1988 4750 2444 4750 
z
M 2406 4250 
Q 2169 4250 1955 4123 
Q 1741 3997 1569 3750 
Q 1281 3338 1111 2720 
Q 941 2103 941 1453 
Q 941 938 1123 673 
Q 1306 409 1663 409 
Q 1913 409 2125 536 
Q 2338 663 2509 909 
Q 2794 1319 2961 1936 
Q 3128 2553 3128 3206 
Q 3128 3722 2945 3986 
Q 2763 4250 2406 4250 
z
" transform="scale(0.015625)"/>
     <path id="DejaVuSans-Oblique-4d" d="M 1081 4666 
L 2028 4666 
L 2572 1522 
L 4378 4666 
L 5350 4666 
L 4441 0 
L 3828 0 
L 4622 4091 
L 2791 897 
L 2175 897 
L 1581 4103 
L 788 0 
L 172 0 
L 1081 4666 
z
" transform="scale(0.015625)"/>
     <path id="DejaVuSans-Oblique-42" d="M 1081 4666 
L 2694 4666 
Q 3350 4666 3675 4422 
Q 4000 4178 4000 3688 
Q 4000 3238 3720 2911 
Q 3441 2584 2988 2516 
Q 3375 2428 3569 2181 
Q 3763 1934 3763 1522 
Q 3763 819 3242 409 
Q 2722 0 1819 0 
L 172 0 
L 1081 4666 
z
M 1234 2228 
L 903 519 
L 1919 519 
Q 2491 519 2800 781 
Q 3109 1044 3109 1522 
Q 3109 1891 2904 2059 
Q 2700 2228 2247 2228 
L 1234 2228 
z
M 1606 4147 
L 1331 2741 
L 2272 2741 
Q 2775 2741 3058 2959 
Q 3341 3178 3341 3566 
Q 3341 3869 3150 4008 
Q 2959 4147 2541 4147 
L 1606 4147 
z
" transform="scale(0.015625)"/>
     <path id="DejaVuSans-Oblique-7c" d="M 1344 4891 
L 1344 -1509 
L 813 -1509 
L 813 4891 
L 1344 4891 
z
" transform="scale(0.015625)"/>
     <path id="DejaVuSans-Oblique-43" d="M 4447 4306 
L 4319 3641 
Q 4019 3944 3683 4091 
Q 3347 4238 2956 4238 
Q 2422 4238 2017 3981 
Q 1613 3725 1319 3200 
Q 1131 2863 1032 2486 
Q 934 2109 934 1728 
Q 934 1091 1264 756 
Q 1594 422 2222 422 
Q 2656 422 3056 561 
Q 3456 700 3834 978 
L 3688 231 
Q 3316 72 2936 -9 
Q 2556 -91 2175 -91 
Q 1278 -91 773 396 
Q 269 884 269 1753 
Q 269 2309 461 2846 
Q 653 3384 1013 3828 
Q 1394 4300 1883 4525 
Q 2372 4750 3022 4750 
Q 3422 4750 3780 4639 
Q 4138 4528 4447 4306 
z
" transform="scale(0.015625)"/>
     <path id="DejaVuSans-Oblique-6f" d="M 1625 -91 
Q 1009 -91 651 289 
Q 294 669 294 1325 
Q 294 1706 417 2101 
Q 541 2497 738 2766 
Q 1047 3184 1428 3384 
Q 1809 3584 2291 3584 
Q 2888 3584 3255 3212 
Q 3622 2841 3622 2241 
Q 3622 1825 3500 1412 
Q 3378 1000 3181 728 
Q 2875 309 2494 109 
Q 2113 -91 1625 -91 
z
M 891 1344 
Q 891 869 1089 633 
Q 1288 397 1691 397 
Q 2269 397 2648 901 
Q 3028 1406 3028 2181 
Q 3028 2634 2825 2865 
Q 2622 3097 2228 3097 
Q 1903 3097 1650 2945 
Q 1397 2794 1197 2484 
Q 1050 2253 970 1956 
Q 891 1659 891 1344 
z
" transform="scale(0.015625)"/>
     <path id="DejaVuSans-Oblique-72" d="M 2853 2969 
Q 2766 3016 2653 3041 
Q 2541 3066 2413 3066 
Q 1953 3066 1609 2717 
Q 1266 2369 1153 1784 
L 800 0 
L 225 0 
L 909 3500 
L 1484 3500 
L 1375 2956 
Q 1603 3259 1920 3421 
Q 2238 3584 2597 3584 
Q 2691 3584 2781 3573 
Q 2872 3563 2963 3538 
L 2853 2969 
z
" transform="scale(0.015625)"/>
     <path id="DejaVuSans-Oblique-64" d="M 2675 525 
Q 2444 222 2128 65 
Q 1813 -91 1428 -91 
Q 903 -91 598 267 
Q 294 625 294 1247 
Q 294 1766 478 2236 
Q 663 2706 1013 3078 
Q 1244 3325 1534 3454 
Q 1825 3584 2144 3584 
Q 2481 3584 2739 3421 
Q 2997 3259 3138 2956 
L 3513 4863 
L 4091 4863 
L 3144 0 
L 2566 0 
L 2675 525 
z
M 891 1350 
Q 891 897 1095 644 
Q 1300 391 1663 391 
Q 1931 391 2161 520 
Q 2391 650 2566 903 
Q 2750 1166 2856 1509 
Q 2963 1853 2963 2188 
Q 2963 2622 2758 2865 
Q 2553 3109 2194 3109 
Q 1922 3109 1687 2981 
Q 1453 2853 1288 2613 
Q 1106 2353 998 2009 
Q 891 1666 891 1350 
z
" transform="scale(0.015625)"/>
     <path id="DejaVuSans-Oblique-69" d="M 1172 4863 
L 1747 4863 
L 1606 4134 
L 1031 4134 
L 1172 4863 
z
M 909 3500 
L 1484 3500 
L 800 0 
L 225 0 
L 909 3500 
z
" transform="scale(0.015625)"/>
     <path id="DejaVuSans-Oblique-6e" d="M 3566 2113 
L 3156 0 
L 2578 0 
L 2988 2091 
Q 3016 2238 3031 2350 
Q 3047 2463 3047 2528 
Q 3047 2791 2881 2937 
Q 2716 3084 2419 3084 
Q 1956 3084 1622 2776 
Q 1288 2469 1184 1941 
L 800 0 
L 225 0 
L 903 3500 
L 1478 3500 
L 1363 2950 
Q 1603 3253 1940 3418 
Q 2278 3584 2650 3584 
Q 3113 3584 3367 3334 
Q 3622 3084 3622 2631 
Q 3622 2519 3608 2391 
Q 3594 2263 3566 2113 
z
" transform="scale(0.015625)"/>
     <path id="DejaVuSans-Oblique-31" d="M 416 531 
L 1447 531 
L 2144 4122 
L 978 3897 
L 1088 4441 
L 2247 4666 
L 2881 4666 
L 2075 531 
L 3103 531 
L 3003 0 
L 313 0 
L 416 531 
z
" transform="scale(0.015625)"/>
     <path id="DejaVuSans-Oblique-6c" d="M 1172 4863 
L 1747 4863 
L 800 0 
L 225 0 
L 1172 4863 
z
" transform="scale(0.015625)"/>
     <path id="DejaVuSans-Oblique-75" d="M 428 1388 
L 838 3500 
L 1416 3500 
L 1006 1409 
Q 975 1256 961 1147 
Q 947 1038 947 966 
Q 947 700 1109 554 
Q 1272 409 1569 409 
Q 2031 409 2368 721 
Q 2706 1034 2809 1563 
L 3194 3500 
L 3769 3500 
L 3091 0 
L 2516 0 
L 2631 550 
Q 2388 244 2052 76 
Q 1716 -91 1338 -91 
Q 878 -91 622 161 
Q 366 413 366 863 
Q 366 956 381 1097 
Q 397 1238 428 1388 
z
" transform="scale(0.015625)"/>
     <path id="DejaVuSans-Oblique-34" d="M 2753 4666 
L 3547 4666 
L 2950 1625 
L 3616 1625 
L 3513 1100 
L 2847 1100 
L 2638 0 
L 2009 0 
L 2222 1100 
L 116 1100 
L 238 1709 
L 2753 4666 
z
M 2809 4116 
L 728 1625 
L 2322 1625 
L 2809 4116 
z
" transform="scale(0.015625)"/>
    </defs>
    <use xlink:href="#DejaVuSans-Oblique-44"/>
    <use xlink:href="#DejaVuSans-Oblique-61" transform="translate(77.001953 0)"/>
    <use xlink:href="#DejaVuSans-Oblique-74" transform="translate(138.28125 0)"/>
    <use xlink:href="#DejaVuSans-Oblique-61" transform="translate(177.490234 0)"/>
    <use xlink:href="#DejaVuSans-Oblique-73" transform="translate(238.769531 0)"/>
    <use xlink:href="#DejaVuSans-Oblique-65" transform="translate(290.869141 0)"/>
    <use xlink:href="#DejaVuSans-Oblique-74" transform="translate(352.392578 0)"/>
    <use xlink:href="#DejaVuSans-Oblique-3a" transform="translate(391.601562 0)"/>
    <use xlink:href="#DejaVuSans-Oblique-20" transform="translate(425.292969 0)"/>
    <use xlink:href="#DejaVuSans-Oblique-32" transform="translate(457.080078 0)"/>
    <use xlink:href="#DejaVuSans-Oblique-35" transform="translate(520.703125 0)"/>
    <use xlink:href="#DejaVuSans-Oblique-36" transform="translate(584.326172 0)"/>
    <use xlink:href="#DejaVuSans-Oblique-2e" transform="translate(647.949219 0)"/>
    <use xlink:href="#DejaVuSans-Oblique-30" transform="translate(679.736328 0)"/>
    <use xlink:href="#DejaVuSans-Oblique-30" transform="translate(743.359375 0)"/>
    <use xlink:href="#DejaVuSans-Oblique-20" transform="translate(806.982422 0)"/>
    <use xlink:href="#DejaVuSans-Oblique-4d" transform="translate(838.769531 0)"/>
    <use xlink:href="#DejaVuSans-Oblique-42" transform="translate(925.048828 0)"/>
    <use xlink:href="#DejaVuSans-Oblique-20" transform="translate(993.652344 0)"/>
    <use xlink:href="#DejaVuSans-Oblique-20" transform="translate(1025.439453 0)"/>
    <use xlink:href="#DejaVuSans-Oblique-7c" transform="translate(1057.226562 0)"/>
    <use xlink:href="#DejaVuSans-Oblique-20" transform="translate(1090.917969 0)"/>
    <use xlink:href="#DejaVuSans-Oblique-20" transform="translate(1122.705078 0)"/>
    <use xlink:href="#DejaVuSans-Oblique-43" transform="translate(1154.492188 0)"/>
    <use xlink:href="#DejaVuSans-Oblique-6f" transform="translate(1224.316406 0)"/>
    <use xlink:href="#DejaVuSans-Oblique-6f" transform="translate(1285.498047 0)"/>
    <use xlink:href="#DejaVuSans-Oblique-72" transform="translate(1346.679688 0)"/>
    <use xlink:href="#DejaVuSans-Oblique-64" transform="translate(1387.792969 0)"/>
    <use xlink:href="#DejaVuSans-Oblique-69" transform="translate(1451.269531 0)"/>
    <use xlink:href="#DejaVuSans-Oblique-6e" transform="translate(1479.052734 0)"/>
    <use xlink:href="#DejaVuSans-Oblique-61" transform="translate(1542.431641 0)"/>
    <use xlink:href="#DejaVuSans-Oblique-74" transform="translate(1603.710938 0)"/>
    <use xlink:href="#DejaVuSans-Oblique-65" transform="translate(1642.919922 0)"/>
    <use xlink:href="#DejaVuSans-Oblique-73" transform="translate(1704.443359 0)"/>
    <use xlink:href="#DejaVuSans-Oblique-3a" transform="translate(1756.542969 0)"/>
    <use xlink:href="#DejaVuSans-Oblique-20" transform="translate(1790.234375 0)"/>
    <use xlink:href="#DejaVuSans-Oblique-31" transform="translate(1822.021484 0)"/>
    <use xlink:href="#DejaVuSans-Oblique-20" transform="translate(1885.644531 0)"/>
    <use xlink:href="#DejaVuSans-Oblique-20" transform="translate(1917.431641 0)"/>
    <use xlink:href="#DejaVuSans-Oblique-7c" transform="translate(1949.21875 0)"/>
    <use xlink:href="#DejaVuSans-Oblique-20" transform="translate(1982.910156 0)"/>
    <use xlink:href="#DejaVuSans-Oblique-20" transform="translate(2014.697266 0)"/>
    <use xlink:href="#DejaVuSans-Oblique-43" transform="translate(2046.484375 0)"/>
    <use xlink:href="#DejaVuSans-Oblique-6c" transform="translate(2116.308594 0)"/>
    <use xlink:href="#DejaVuSans-Oblique-75" transform="translate(2144.091797 0)"/>
    <use xlink:href="#DejaVuSans-Oblique-73" transform="translate(2207.470703 0)"/>
    <use xlink:href="#DejaVuSans-Oblique-74" transform="translate(2259.570312 0)"/>
    <use xlink:href="#DejaVuSans-Oblique-65" transform="translate(2298.779297 0)"/>
    <use xlink:href="#DejaVuSans-Oblique-72" transform="translate(2360.302734 0)"/>
    <use xlink:href="#DejaVuSans-Oblique-73" transform="translate(2401.416016 0)"/>
    <use xlink:href="#DejaVuSans-Oblique-3a" transform="translate(2453.515625 0)"/>
    <use xlink:href="#DejaVuSans-Oblique-20" transform="translate(2487.207031 0)"/>
    <use xlink:href="#DejaVuSans-Oblique-34" transform="translate(2518.994141 0)"/>
   </g>
  </g>
 </g>
 <defs>
  <clipPath id="p4ccbe67724">
   <rect x="43.78125" y="22.318125" width="669.6" height="328.32"/>
  </clipPath>
 </defs>
</svg>
