<?xml version="1.0" encoding="utf-8" standalone="no"?>
<!DOCTYPE svg PUBLIC "-//W3C//DTD SVG 1.1//EN"
  "http://www.w3.org/Graphics/SVG/1.1/DTD/svg11.dtd">
<svg xmlns:xlink="http://www.w3.org/1999/xlink" width="960.546687pt" height="403.160156pt" viewBox="0 0 960.546687 403.160156" xmlns="http://www.w3.org/2000/svg" version="1.1">
 <metadata>
  <rdf:RDF xmlns:dc="http://purl.org/dc/elements/1.1/" xmlns:cc="http://creativecommons.org/ns#" xmlns:rdf="http://www.w3.org/1999/02/22-rdf-syntax-ns#">
   <cc:Work>
    <dc:type rdf:resource="http://purl.org/dc/dcmitype/StillImage"/>
    <dc:date>2025-11-19T21:44:23.521320</dc:date>
    <dc:format>image/svg+xml</dc:format>
    <dc:creator>
     <cc:Agent>
      <dc:title>Matplotlib v3.10.6, https://matplotlib.org/</dc:title>
     </cc:Agent>
    </dc:creator>
   </cc:Work>
  </rdf:RDF>
 </metadata>
 <defs>
  <style type="text/css">*{stroke-linejoin: round; stroke-linecap: butt}</style>
 </defs>
 <g id="figure_1">
  <g id="patch_1">
   <path d="M 0 403.160156 
L 960.546687 403.160156 
L 960.546687 0 
L 0 0 
z
" style="fill: #ffffff"/>
  </g>
  <g id="axes_1">
   <g id="patch_2">
    <path d="M 40.603125 350.638125 
L 710.203125 350.638125 
L 710.203125 22.318125 
L 40.603125 22.318125 
z
" style="fill: #ffffff"/>
   </g>
   <g id="patch_3">
    <path d="M 71.039489 350.638125 
L 83.526202 350.638125 
L 83.526202 339.262745 
L 71.039489 339.262745 
z
" clip-path="url(#p6244d1522e)" style="fill: #1f77b4; stroke: #000000; stroke-width: 0.5; stroke-linejoin: miter"/>
   </g>
   <g id="patch_4">
    <path d="M 149.081447 350.638125 
L 161.56816 350.638125 
L 161.56816 341.741049 
L 149.081447 341.741049 
z
" clip-path="url(#p6244d1522e)" style="fill: #1f77b4; stroke: #000000; stroke-width: 0.5; stroke-linejoin: miter"/>
   </g>
   <g id="patch_5">
    <path d="M 227.123405 350.638125 
L 239.610118 350.638125 
L 239.610118 335.926751 
L 227.123405 335.926751 
z
" clip-path="url(#p6244d1522e)" style="fill: #1f77b4; stroke: #000000; stroke-width: 0.5; stroke-linejoin: miter"/>
   </g>
   <g id="patch_6">
    <path d="M 305.165363 350.638125 
L 317.652076 350.638125 
L 317.652076 327.199264 
L 305.165363 327.199264 
z
" clip-path="url(#p6244d1522e)" style="fill: #1f77b4; stroke: #000000; stroke-width: 0.5; stroke-linejoin: miter"/>
   </g>
   <g id="patch_7">
    <path d="M 383.207321 350.638125 
L 395.694034 350.638125 
L 395.694034 317.885592 
L 383.207321 317.885592 
z
" clip-path="url(#p6244d1522e)" style="fill: #1f77b4; stroke: #000000; stroke-width: 0.5; stroke-linejoin: miter"/>
   </g>
   <g id="patch_8">
    <path d="M 461.249279 350.638125 
L 473.735992 350.638125 
L 473.735992 335.208601 
L 461.249279 335.208601 
z
" clip-path="url(#p6244d1522e)" style="fill: #1f77b4; stroke: #000000; stroke-width: 0.5; stroke-linejoin: miter"/>
   </g>
   <g id="patch_9">
    <path d="M 539.291237 350.638125 
L 551.77795 350.638125 
L 551.77795 340.233863 
L 539.291237 340.233863 
z
" clip-path="url(#p6244d1522e)" style="fill: #1f77b4; stroke: #000000; stroke-width: 0.5; stroke-linejoin: miter"/>
   </g>
   <g id="patch_10">
    <path d="M 617.333195 350.638125 
L 629.819908 350.638125 
L 629.819908 338.524314 
L 617.333195 338.524314 
z
" clip-path="url(#p6244d1522e)" style="fill: #1f77b4; stroke: #000000; stroke-width: 0.5; stroke-linejoin: miter"/>
   </g>
   <g id="patch_11">
    <path d="M 83.526202 350.638125 
L 96.012915 350.638125 
L 96.012915 339.262745 
L 83.526202 339.262745 
z
" clip-path="url(#p6244d1522e)" style="fill: #ff7f0e; stroke: #000000; stroke-width: 0.5; stroke-linejoin: miter"/>
   </g>
   <g id="patch_12">
    <path d="M 161.56816 350.638125 
L 174.054873 350.638125 
L 174.054873 341.738333 
L 161.56816 341.738333 
z
" clip-path="url(#p6244d1522e)" style="fill: #ff7f0e; stroke: #000000; stroke-width: 0.5; stroke-linejoin: miter"/>
   </g>
   <g id="patch_13">
    <path d="M 239.610118 350.638125 
L 252.096831 350.638125 
L 252.096831 335.96377 
L 239.610118 335.96377 
z
" clip-path="url(#p6244d1522e)" style="fill: #ff7f0e; stroke: #000000; stroke-width: 0.5; stroke-linejoin: miter"/>
   </g>
   <g id="patch_14">
    <path d="M 317.652076 350.638125 
L 330.138789 350.638125 
L 330.138789 327.18984 
L 317.652076 327.18984 
z
" clip-path="url(#p6244d1522e)" style="fill: #ff7f0e; stroke: #000000; stroke-width: 0.5; stroke-linejoin: miter"/>
   </g>
   <g id="patch_15">
    <path d="M 395.694034 350.638125 
L 408.180747 350.638125 
L 408.180747 317.857976 
L 395.694034 317.857976 
z
" clip-path="url(#p6244d1522e)" style="fill: #ff7f0e; stroke: #000000; stroke-width: 0.5; stroke-linejoin: miter"/>
   </g>
   <g id="patch_16">
    <path d="M 473.735992 350.638125 
L 486.222705 350.638125 
L 486.222705 335.047726 
L 473.735992 335.047726 
z
" clip-path="url(#p6244d1522e)" style="fill: #ff7f0e; stroke: #000000; stroke-width: 0.5; stroke-linejoin: miter"/>
   </g>
   <g id="patch_17">
    <path d="M 551.77795 350.638125 
L 564.264663 350.638125 
L 564.264663 340.280064 
L 551.77795 340.280064 
z
" clip-path="url(#p6244d1522e)" style="fill: #ff7f0e; stroke: #000000; stroke-width: 0.5; stroke-linejoin: miter"/>
   </g>
   <g id="patch_18">
    <path d="M 629.819908 350.638125 
L 642.306622 350.638125 
L 642.306622 338.025194 
L 629.819908 338.025194 
z
" clip-path="url(#p6244d1522e)" style="fill: #ff7f0e; stroke: #000000; stroke-width: 0.5; stroke-linejoin: miter"/>
   </g>
   <g id="patch_19">
    <path d="M 96.012915 350.638125 
L 108.499628 350.638125 
L 108.499628 339.262745 
L 96.012915 339.262745 
z
" clip-path="url(#p6244d1522e)" style="fill: #2ca02c; stroke: #000000; stroke-width: 0.5; stroke-linejoin: miter"/>
   </g>
   <g id="patch_20">
    <path d="M 174.054873 350.638125 
L 186.541587 350.638125 
L 186.541587 341.631811 
L 174.054873 341.631811 
z
" clip-path="url(#p6244d1522e)" style="fill: #2ca02c; stroke: #000000; stroke-width: 0.5; stroke-linejoin: miter"/>
   </g>
   <g id="patch_21">
    <path d="M 252.096831 350.638125 
L 264.583545 350.638125 
L 264.583545 340.416234 
L 252.096831 340.416234 
z
" clip-path="url(#p6244d1522e)" style="fill: #2ca02c; stroke: #000000; stroke-width: 0.5; stroke-linejoin: miter"/>
   </g>
   <g id="patch_22">
    <path d="M 330.138789 350.638125 
L 342.625503 350.638125 
L 342.625503 339.264963 
L 330.138789 339.264963 
z
" clip-path="url(#p6244d1522e)" style="fill: #2ca02c; stroke: #000000; stroke-width: 0.5; stroke-linejoin: miter"/>
   </g>
   <g id="patch_23">
    <path d="M 408.180747 350.638125 
L 420.667461 350.638125 
L 420.667461 339.452571 
L 408.180747 339.452571 
z
" clip-path="url(#p6244d1522e)" style="fill: #2ca02c; stroke: #000000; stroke-width: 0.5; stroke-linejoin: miter"/>
   </g>
   <g id="patch_24">
    <path d="M 486.222705 350.638125 
L 498.709419 350.638125 
L 498.709419 339.000551 
L 486.222705 339.000551 
z
" clip-path="url(#p6244d1522e)" style="fill: #2ca02c; stroke: #000000; stroke-width: 0.5; stroke-linejoin: miter"/>
   </g>
   <g id="patch_25">
    <path d="M 564.264663 350.638125 
L 576.751377 350.638125 
L 576.751377 338.22917 
L 564.264663 338.22917 
z
" clip-path="url(#p6244d1522e)" style="fill: #2ca02c; stroke: #000000; stroke-width: 0.5; stroke-linejoin: miter"/>
   </g>
   <g id="patch_26">
    <path d="M 642.306622 350.638125 
L 654.793335 350.638125 
L 654.793335 334.765538 
L 642.306622 334.765538 
z
" clip-path="url(#p6244d1522e)" style="fill: #2ca02c; stroke: #000000; stroke-width: 0.5; stroke-linejoin: miter"/>
   </g>
   <g id="patch_27">
    <path d="M 108.499628 350.638125 
L 120.986342 350.638125 
L 120.986342 339.262745 
L 108.499628 339.262745 
z
" clip-path="url(#p6244d1522e)" style="fill: #d62728; stroke: #000000; stroke-width: 0.5; stroke-linejoin: miter"/>
   </g>
   <g id="patch_28">
    <path d="M 186.541587 350.638125 
L 199.0283 350.638125 
L 199.0283 341.635981 
L 186.541587 341.635981 
z
" clip-path="url(#p6244d1522e)" style="fill: #d62728; stroke: #000000; stroke-width: 0.5; stroke-linejoin: miter"/>
   </g>
   <g id="patch_29">
    <path d="M 264.583545 350.638125 
L 277.070258 350.638125 
L 277.070258 335.4021 
L 264.583545 335.4021 
z
" clip-path="url(#p6244d1522e)" style="fill: #d62728; stroke: #000000; stroke-width: 0.5; stroke-linejoin: miter"/>
   </g>
   <g id="patch_30">
    <path d="M 342.625503 350.638125 
L 355.112216 350.638125 
L 355.112216 338.0714 
L 342.625503 338.0714 
z
" clip-path="url(#p6244d1522e)" style="fill: #d62728; stroke: #000000; stroke-width: 0.5; stroke-linejoin: miter"/>
   </g>
   <g id="patch_31">
    <path d="M 420.667461 350.638125 
L 433.154174 350.638125 
L 433.154174 339.579836 
L 420.667461 339.579836 
z
" clip-path="url(#p6244d1522e)" style="fill: #d62728; stroke: #000000; stroke-width: 0.5; stroke-linejoin: miter"/>
   </g>
   <g id="patch_32">
    <path d="M 498.709419 350.638125 
L 511.196132 350.638125 
L 511.196132 338.943372 
L 498.709419 338.943372 
z
" clip-path="url(#p6244d1522e)" style="fill: #d62728; stroke: #000000; stroke-width: 0.5; stroke-linejoin: miter"/>
   </g>
   <g id="patch_33">
    <path d="M 576.751377 350.638125 
L 589.23809 350.638125 
L 589.23809 338.063271 
L 576.751377 338.063271 
z
" clip-path="url(#p6244d1522e)" style="fill: #d62728; stroke: #000000; stroke-width: 0.5; stroke-linejoin: miter"/>
   </g>
   <g id="patch_34">
    <path d="M 654.793335 350.638125 
L 667.280048 350.638125 
L 667.280048 334.30543 
L 654.793335 334.30543 
z
" clip-path="url(#p6244d1522e)" style="fill: #d62728; stroke: #000000; stroke-width: 0.5; stroke-linejoin: miter"/>
   </g>
   <g id="patch_35">
    <path d="M 120.986342 350.638125 
L 133.473055 350.638125 
L 133.473055 339.262745 
L 120.986342 339.262745 
z
" clip-path="url(#p6244d1522e)" style="fill: #9467bd; stroke: #000000; stroke-width: 0.5; stroke-linejoin: miter"/>
   </g>
   <g id="patch_36">
    <path d="M 199.0283 350.638125 
L 211.515013 350.638125 
L 211.515013 339.354091 
L 199.0283 339.354091 
z
" clip-path="url(#p6244d1522e)" style="fill: #9467bd; stroke: #000000; stroke-width: 0.5; stroke-linejoin: miter"/>
   </g>
   <g id="patch_37">
    <path d="M 277.070258 350.638125 
L 289.556971 350.638125 
L 289.556971 328.490048 
L 277.070258 328.490048 
z
" clip-path="url(#p6244d1522e)" style="fill: #9467bd; stroke: #000000; stroke-width: 0.5; stroke-linejoin: miter"/>
   </g>
   <g id="patch_38">
    <path d="M 355.112216 350.638125 
L 367.598929 350.638125 
L 367.598929 308.303544 
L 355.112216 308.303544 
z
" clip-path="url(#p6244d1522e)" style="fill: #9467bd; stroke: #000000; stroke-width: 0.5; stroke-linejoin: miter"/>
   </g>
   <g id="patch_39">
    <path d="M 433.154174 350.638125 
L 445.640887 350.638125 
L 445.640887 270.75335 
L 433.154174 270.75335 
z
" clip-path="url(#p6244d1522e)" style="fill: #9467bd; stroke: #000000; stroke-width: 0.5; stroke-linejoin: miter"/>
   </g>
   <g id="patch_40">
    <path d="M 511.196132 350.638125 
L 523.682845 350.638125 
L 523.682845 199.951082 
L 511.196132 199.951082 
z
" clip-path="url(#p6244d1522e)" style="fill: #9467bd; stroke: #000000; stroke-width: 0.5; stroke-linejoin: miter"/>
   </g>
   <g id="patch_41">
    <path d="M 589.23809 350.638125 
L 601.724803 350.638125 
L 601.724803 81.901324 
L 589.23809 81.901324 
z
" clip-path="url(#p6244d1522e)" style="fill: #9467bd; stroke: #000000; stroke-width: 0.5; stroke-linejoin: miter"/>
   </g>
   <g id="patch_42">
    <path d="M 667.280048 350.638125 
L 679.766761 350.638125 
L 679.766761 37.952411 
L 667.280048 37.952411 
z
" clip-path="url(#p6244d1522e)" style="fill: #9467bd; stroke: #000000; stroke-width: 0.5; stroke-linejoin: miter"/>
   </g>
   <g id="matplotlib.axis_1">
    <g id="xtick_1">
     <g id="line2d_1">
      <defs>
       <path id="mc8ba6a98a7" d="M 0 0 
L 0 3.5 
" style="stroke: #000000; stroke-width: 0.8"/>
      </defs>
      <g>
       <use xlink:href="#mc8ba6a98a7" x="102.256272" y="350.638125" style="stroke: #000000; stroke-width: 0.8"/>
      </g>
     </g>
     <g id="text_1">
      <!-- seq -->
      <g transform="translate(93.400803 365.236562) scale(0.1 -0.1)">
       <defs>
        <path id="DejaVuSans-73" d="M 2834 3397 
L 2834 2853 
Q 2591 2978 2328 3040 
Q 2066 3103 1784 3103 
Q 1356 3103 1142 2972 
Q 928 2841 928 2578 
Q 928 2378 1081 2264 
Q 1234 2150 1697 2047 
L 1894 2003 
Q 2506 1872 2764 1633 
Q 3022 1394 3022 966 
Q 3022 478 2636 193 
Q 2250 -91 1575 -91 
Q 1294 -91 989 -36 
Q 684 19 347 128 
L 347 722 
Q 666 556 975 473 
Q 1284 391 1588 391 
Q 1994 391 2212 530 
Q 2431 669 2431 922 
Q 2431 1156 2273 1281 
Q 2116 1406 1581 1522 
L 1381 1569 
Q 847 1681 609 1914 
Q 372 2147 372 2553 
Q 372 3047 722 3315 
Q 1072 3584 1716 3584 
Q 2034 3584 2315 3537 
Q 2597 3491 2834 3397 
z
" transform="scale(0.015625)"/>
        <path id="DejaVuSans-65" d="M 3597 1894 
L 3597 1613 
L 953 1613 
Q 991 1019 1311 708 
Q 1631 397 2203 397 
Q 2534 397 2845 478 
Q 3156 559 3463 722 
L 3463 178 
Q 3153 47 2828 -22 
Q 2503 -91 2169 -91 
Q 1331 -91 842 396 
Q 353 884 353 1716 
Q 353 2575 817 3079 
Q 1281 3584 2069 3584 
Q 2775 3584 3186 3129 
Q 3597 2675 3597 1894 
z
M 3022 2063 
Q 3016 2534 2758 2815 
Q 2500 3097 2075 3097 
Q 1594 3097 1305 2825 
Q 1016 2553 972 2059 
L 3022 2063 
z
" transform="scale(0.015625)"/>
        <path id="DejaVuSans-71" d="M 947 1747 
Q 947 1113 1208 752 
Q 1469 391 1925 391 
Q 2381 391 2643 752 
Q 2906 1113 2906 1747 
Q 2906 2381 2643 2742 
Q 2381 3103 1925 3103 
Q 1469 3103 1208 2742 
Q 947 2381 947 1747 
z
M 2906 525 
Q 2725 213 2448 61 
Q 2172 -91 1784 -91 
Q 1150 -91 751 415 
Q 353 922 353 1747 
Q 353 2572 751 3078 
Q 1150 3584 1784 3584 
Q 2172 3584 2448 3432 
Q 2725 3281 2906 2969 
L 2906 3500 
L 3481 3500 
L 3481 -1331 
L 2906 -1331 
L 2906 525 
z
" transform="scale(0.015625)"/>
       </defs>
       <use xlink:href="#DejaVuSans-73"/>
       <use xlink:href="#DejaVuSans-65" transform="translate(52.099609 0)"/>
       <use xlink:href="#DejaVuSans-71" transform="translate(113.623047 0)"/>
      </g>
     </g>
    </g>
    <g id="xtick_2">
     <g id="line2d_2">
      <g>
       <use xlink:href="#mc8ba6a98a7" x="180.29823" y="350.638125" style="stroke: #000000; stroke-width: 0.8"/>
      </g>
     </g>
     <g id="text_2">
      <!-- 1 -->
      <g transform="translate(177.11698 365.236562) scale(0.1 -0.1)">
       <defs>
        <path id="DejaVuSans-31" d="M 794 531 
L 1825 531 
L 1825 4091 
L 703 3866 
L 703 4441 
L 1819 4666 
L 2450 4666 
L 2450 531 
L 3481 531 
L 3481 0 
L 794 0 
L 794 531 
z
" transform="scale(0.015625)"/>
       </defs>
       <use xlink:href="#DejaVuSans-31"/>
      </g>
     </g>
    </g>
    <g id="xtick_3">
     <g id="line2d_3">
      <g>
       <use xlink:href="#mc8ba6a98a7" x="258.340188" y="350.638125" style="stroke: #000000; stroke-width: 0.8"/>
      </g>
     </g>
     <g id="text_3">
      <!-- 2 -->
      <g transform="translate(255.158938 365.236562) scale(0.1 -0.1)">
       <defs>
        <path id="DejaVuSans-32" d="M 1228 531 
L 3431 531 
L 3431 0 
L 469 0 
L 469 531 
Q 828 903 1448 1529 
Q 2069 2156 2228 2338 
Q 2531 2678 2651 2914 
Q 2772 3150 2772 3378 
Q 2772 3750 2511 3984 
Q 2250 4219 1831 4219 
Q 1534 4219 1204 4116 
Q 875 4013 500 3803 
L 500 4441 
Q 881 4594 1212 4672 
Q 1544 4750 1819 4750 
Q 2544 4750 2975 4387 
Q 3406 4025 3406 3419 
Q 3406 3131 3298 2873 
Q 3191 2616 2906 2266 
Q 2828 2175 2409 1742 
Q 1991 1309 1228 531 
z
" transform="scale(0.015625)"/>
       </defs>
       <use xlink:href="#DejaVuSans-32"/>
      </g>
     </g>
    </g>
    <g id="xtick_4">
     <g id="line2d_4">
      <g>
       <use xlink:href="#mc8ba6a98a7" x="336.382146" y="350.638125" style="stroke: #000000; stroke-width: 0.8"/>
      </g>
     </g>
     <g id="text_4">
      <!-- 4 -->
      <g transform="translate(333.200896 365.236562) scale(0.1 -0.1)">
       <defs>
        <path id="DejaVuSans-34" d="M 2419 4116 
L 825 1625 
L 2419 1625 
L 2419 4116 
z
M 2253 4666 
L 3047 4666 
L 3047 1625 
L 3713 1625 
L 3713 1100 
L 3047 1100 
L 3047 0 
L 2419 0 
L 2419 1100 
L 313 1100 
L 313 1709 
L 2253 4666 
z
" transform="scale(0.015625)"/>
       </defs>
       <use xlink:href="#DejaVuSans-34"/>
      </g>
     </g>
    </g>
    <g id="xtick_5">
     <g id="line2d_5">
      <g>
       <use xlink:href="#mc8ba6a98a7" x="414.424104" y="350.638125" style="stroke: #000000; stroke-width: 0.8"/>
      </g>
     </g>
     <g id="text_5">
      <!-- 8 -->
      <g transform="translate(411.242854 365.236562) scale(0.1 -0.1)">
       <defs>
        <path id="DejaVuSans-38" d="M 2034 2216 
Q 1584 2216 1326 1975 
Q 1069 1734 1069 1313 
Q 1069 891 1326 650 
Q 1584 409 2034 409 
Q 2484 409 2743 651 
Q 3003 894 3003 1313 
Q 3003 1734 2745 1975 
Q 2488 2216 2034 2216 
z
M 1403 2484 
Q 997 2584 770 2862 
Q 544 3141 544 3541 
Q 544 4100 942 4425 
Q 1341 4750 2034 4750 
Q 2731 4750 3128 4425 
Q 3525 4100 3525 3541 
Q 3525 3141 3298 2862 
Q 3072 2584 2669 2484 
Q 3125 2378 3379 2068 
Q 3634 1759 3634 1313 
Q 3634 634 3220 271 
Q 2806 -91 2034 -91 
Q 1263 -91 848 271 
Q 434 634 434 1313 
Q 434 1759 690 2068 
Q 947 2378 1403 2484 
z
M 1172 3481 
Q 1172 3119 1398 2916 
Q 1625 2713 2034 2713 
Q 2441 2713 2670 2916 
Q 2900 3119 2900 3481 
Q 2900 3844 2670 4047 
Q 2441 4250 2034 4250 
Q 1625 4250 1398 4047 
Q 1172 3844 1172 3481 
z
" transform="scale(0.015625)"/>
       </defs>
       <use xlink:href="#DejaVuSans-38"/>
      </g>
     </g>
    </g>
    <g id="xtick_6">
     <g id="line2d_6">
      <g>
       <use xlink:href="#mc8ba6a98a7" x="492.466062" y="350.638125" style="stroke: #000000; stroke-width: 0.8"/>
      </g>
     </g>
     <g id="text_6">
      <!-- 16 -->
      <g transform="translate(486.103562 365.236562) scale(0.1 -0.1)">
       <defs>
        <path id="DejaVuSans-36" d="M 2113 2584 
Q 1688 2584 1439 2293 
Q 1191 2003 1191 1497 
Q 1191 994 1439 701 
Q 1688 409 2113 409 
Q 2538 409 2786 701 
Q 3034 994 3034 1497 
Q 3034 2003 2786 2293 
Q 2538 2584 2113 2584 
z
M 3366 4563 
L 3366 3988 
Q 3128 4100 2886 4159 
Q 2644 4219 2406 4219 
Q 1781 4219 1451 3797 
Q 1122 3375 1075 2522 
Q 1259 2794 1537 2939 
Q 1816 3084 2150 3084 
Q 2853 3084 3261 2657 
Q 3669 2231 3669 1497 
Q 3669 778 3244 343 
Q 2819 -91 2113 -91 
Q 1303 -91 875 529 
Q 447 1150 447 2328 
Q 447 3434 972 4092 
Q 1497 4750 2381 4750 
Q 2619 4750 2861 4703 
Q 3103 4656 3366 4563 
z
" transform="scale(0.015625)"/>
       </defs>
       <use xlink:href="#DejaVuSans-31"/>
       <use xlink:href="#DejaVuSans-36" transform="translate(63.623047 0)"/>
      </g>
     </g>
    </g>
    <g id="xtick_7">
     <g id="line2d_7">
      <g>
       <use xlink:href="#mc8ba6a98a7" x="570.50802" y="350.638125" style="stroke: #000000; stroke-width: 0.8"/>
      </g>
     </g>
     <g id="text_7">
      <!-- 32 -->
      <g transform="translate(564.14552 365.236562) scale(0.1 -0.1)">
       <defs>
        <path id="DejaVuSans-33" d="M 2597 2516 
Q 3050 2419 3304 2112 
Q 3559 1806 3559 1356 
Q 3559 666 3084 287 
Q 2609 -91 1734 -91 
Q 1441 -91 1130 -33 
Q 819 25 488 141 
L 488 750 
Q 750 597 1062 519 
Q 1375 441 1716 441 
Q 2309 441 2620 675 
Q 2931 909 2931 1356 
Q 2931 1769 2642 2001 
Q 2353 2234 1838 2234 
L 1294 2234 
L 1294 2753 
L 1863 2753 
Q 2328 2753 2575 2939 
Q 2822 3125 2822 3475 
Q 2822 3834 2567 4026 
Q 2313 4219 1838 4219 
Q 1578 4219 1281 4162 
Q 984 4106 628 3988 
L 628 4550 
Q 988 4650 1302 4700 
Q 1616 4750 1894 4750 
Q 2613 4750 3031 4423 
Q 3450 4097 3450 3541 
Q 3450 3153 3228 2886 
Q 3006 2619 2597 2516 
z
" transform="scale(0.015625)"/>
       </defs>
       <use xlink:href="#DejaVuSans-33"/>
       <use xlink:href="#DejaVuSans-32" transform="translate(63.623047 0)"/>
      </g>
     </g>
    </g>
    <g id="xtick_8">
     <g id="line2d_8">
      <g>
       <use xlink:href="#mc8ba6a98a7" x="648.549978" y="350.638125" style="stroke: #000000; stroke-width: 0.8"/>
      </g>
     </g>
     <g id="text_8">
      <!-- 64 -->
      <g transform="translate(642.187478 365.236562) scale(0.1 -0.1)">
       <use xlink:href="#DejaVuSans-36"/>
       <use xlink:href="#DejaVuSans-34" transform="translate(63.623047 0)"/>
      </g>
     </g>
    </g>
    <g id="text_9">
     <!-- Number of threads -->
     <g transform="translate(328.328125 378.914688) scale(0.1 -0.1)">
      <defs>
       <path id="DejaVuSans-4e" d="M 628 4666 
L 1478 4666 
L 3547 763 
L 3547 4666 
L 4159 4666 
L 4159 0 
L 3309 0 
L 1241 3903 
L 1241 0 
L 628 0 
L 628 4666 
z
" transform="scale(0.015625)"/>
       <path id="DejaVuSans-75" d="M 544 1381 
L 544 3500 
L 1119 3500 
L 1119 1403 
Q 1119 906 1312 657 
Q 1506 409 1894 409 
Q 2359 409 2629 706 
Q 2900 1003 2900 1516 
L 2900 3500 
L 3475 3500 
L 3475 0 
L 2900 0 
L 2900 538 
Q 2691 219 2414 64 
Q 2138 -91 1772 -91 
Q 1169 -91 856 284 
Q 544 659 544 1381 
z
M 1991 3584 
L 1991 3584 
z
" transform="scale(0.015625)"/>
       <path id="DejaVuSans-6d" d="M 3328 2828 
Q 3544 3216 3844 3400 
Q 4144 3584 4550 3584 
Q 5097 3584 5394 3201 
Q 5691 2819 5691 2113 
L 5691 0 
L 5113 0 
L 5113 2094 
Q 5113 2597 4934 2840 
Q 4756 3084 4391 3084 
Q 3944 3084 3684 2787 
Q 3425 2491 3425 1978 
L 3425 0 
L 2847 0 
L 2847 2094 
Q 2847 2600 2669 2842 
Q 2491 3084 2119 3084 
Q 1678 3084 1418 2786 
Q 1159 2488 1159 1978 
L 1159 0 
L 581 0 
L 581 3500 
L 1159 3500 
L 1159 2956 
Q 1356 3278 1631 3431 
Q 1906 3584 2284 3584 
Q 2666 3584 2933 3390 
Q 3200 3197 3328 2828 
z
" transform="scale(0.015625)"/>
       <path id="DejaVuSans-62" d="M 3116 1747 
Q 3116 2381 2855 2742 
Q 2594 3103 2138 3103 
Q 1681 3103 1420 2742 
Q 1159 2381 1159 1747 
Q 1159 1113 1420 752 
Q 1681 391 2138 391 
Q 2594 391 2855 752 
Q 3116 1113 3116 1747 
z
M 1159 2969 
Q 1341 3281 1617 3432 
Q 1894 3584 2278 3584 
Q 2916 3584 3314 3078 
Q 3713 2572 3713 1747 
Q 3713 922 3314 415 
Q 2916 -91 2278 -91 
Q 1894 -91 1617 61 
Q 1341 213 1159 525 
L 1159 0 
L 581 0 
L 581 4863 
L 1159 4863 
L 1159 2969 
z
" transform="scale(0.015625)"/>
       <path id="DejaVuSans-72" d="M 2631 2963 
Q 2534 3019 2420 3045 
Q 2306 3072 2169 3072 
Q 1681 3072 1420 2755 
Q 1159 2438 1159 1844 
L 1159 0 
L 581 0 
L 581 3500 
L 1159 3500 
L 1159 2956 
Q 1341 3275 1631 3429 
Q 1922 3584 2338 3584 
Q 2397 3584 2469 3576 
Q 2541 3569 2628 3553 
L 2631 2963 
z
" transform="scale(0.015625)"/>
       <path id="DejaVuSans-20" transform="scale(0.015625)"/>
       <path id="DejaVuSans-6f" d="M 1959 3097 
Q 1497 3097 1228 2736 
Q 959 2375 959 1747 
Q 959 1119 1226 758 
Q 1494 397 1959 397 
Q 2419 397 2687 759 
Q 2956 1122 2956 1747 
Q 2956 2369 2687 2733 
Q 2419 3097 1959 3097 
z
M 1959 3584 
Q 2709 3584 3137 3096 
Q 3566 2609 3566 1747 
Q 3566 888 3137 398 
Q 2709 -91 1959 -91 
Q 1206 -91 779 398 
Q 353 888 353 1747 
Q 353 2609 779 3096 
Q 1206 3584 1959 3584 
z
" transform="scale(0.015625)"/>
       <path id="DejaVuSans-66" d="M 2375 4863 
L 2375 4384 
L 1825 4384 
Q 1516 4384 1395 4259 
Q 1275 4134 1275 3809 
L 1275 3500 
L 2222 3500 
L 2222 3053 
L 1275 3053 
L 1275 0 
L 697 0 
L 697 3053 
L 147 3053 
L 147 3500 
L 697 3500 
L 697 3744 
Q 697 4328 969 4595 
Q 1241 4863 1831 4863 
L 2375 4863 
z
" transform="scale(0.015625)"/>
       <path id="DejaVuSans-74" d="M 1172 4494 
L 1172 3500 
L 2356 3500 
L 2356 3053 
L 1172 3053 
L 1172 1153 
Q 1172 725 1289 603 
Q 1406 481 1766 481 
L 2356 481 
L 2356 0 
L 1766 0 
Q 1100 0 847 248 
Q 594 497 594 1153 
L 594 3053 
L 172 3053 
L 172 3500 
L 594 3500 
L 594 4494 
L 1172 4494 
z
" transform="scale(0.015625)"/>
       <path id="DejaVuSans-68" d="M 3513 2113 
L 3513 0 
L 2938 0 
L 2938 2094 
Q 2938 2591 2744 2837 
Q 2550 3084 2163 3084 
Q 1697 3084 1428 2787 
Q 1159 2491 1159 1978 
L 1159 0 
L 581 0 
L 581 4863 
L 1159 4863 
L 1159 2956 
Q 1366 3272 1645 3428 
Q 1925 3584 2291 3584 
Q 2894 3584 3203 3211 
Q 3513 2838 3513 2113 
z
" transform="scale(0.015625)"/>
       <path id="DejaVuSans-61" d="M 2194 1759 
Q 1497 1759 1228 1600 
Q 959 1441 959 1056 
Q 959 750 1161 570 
Q 1363 391 1709 391 
Q 2188 391 2477 730 
Q 2766 1069 2766 1631 
L 2766 1759 
L 2194 1759 
z
M 3341 1997 
L 3341 0 
L 2766 0 
L 2766 531 
Q 2569 213 2275 61 
Q 1981 -91 1556 -91 
Q 1019 -91 701 211 
Q 384 513 384 1019 
Q 384 1609 779 1909 
Q 1175 2209 1959 2209 
L 2766 2209 
L 2766 2266 
Q 2766 2663 2505 2880 
Q 2244 3097 1772 3097 
Q 1472 3097 1187 3025 
Q 903 2953 641 2809 
L 641 3341 
Q 956 3463 1253 3523 
Q 1550 3584 1831 3584 
Q 2591 3584 2966 3190 
Q 3341 2797 3341 1997 
z
" transform="scale(0.015625)"/>
       <path id="DejaVuSans-64" d="M 2906 2969 
L 2906 4863 
L 3481 4863 
L 3481 0 
L 2906 0 
L 2906 525 
Q 2725 213 2448 61 
Q 2172 -91 1784 -91 
Q 1150 -91 751 415 
Q 353 922 353 1747 
Q 353 2572 751 3078 
Q 1150 3584 1784 3584 
Q 2172 3584 2448 3432 
Q 2725 3281 2906 2969 
z
M 947 1747 
Q 947 1113 1208 752 
Q 1469 391 1925 391 
Q 2381 391 2643 752 
Q 2906 1113 2906 1747 
Q 2906 2381 2643 2742 
Q 2381 3103 1925 3103 
Q 1469 3103 1208 2742 
Q 947 2381 947 1747 
z
" transform="scale(0.015625)"/>
      </defs>
      <use xlink:href="#DejaVuSans-4e"/>
      <use xlink:href="#DejaVuSans-75" transform="translate(74.804688 0)"/>
      <use xlink:href="#DejaVuSans-6d" transform="translate(138.183594 0)"/>
      <use xlink:href="#DejaVuSans-62" transform="translate(235.595703 0)"/>
      <use xlink:href="#DejaVuSans-65" transform="translate(299.072266 0)"/>
      <use xlink:href="#DejaVuSans-72" transform="translate(360.595703 0)"/>
      <use xlink:href="#DejaVuSans-20" transform="translate(401.708984 0)"/>
      <use xlink:href="#DejaVuSans-6f" transform="translate(433.496094 0)"/>
      <use xlink:href="#DejaVuSans-66" transform="translate(494.677734 0)"/>
      <use xlink:href="#DejaVuSans-20" transform="translate(529.882812 0)"/>
      <use xlink:href="#DejaVuSans-74" transform="translate(561.669922 0)"/>
      <use xlink:href="#DejaVuSans-68" transform="translate(600.878906 0)"/>
      <use xlink:href="#DejaVuSans-72" transform="translate(664.257812 0)"/>
      <use xlink:href="#DejaVuSans-65" transform="translate(703.121094 0)"/>
      <use xlink:href="#DejaVuSans-61" transform="translate(764.644531 0)"/>
      <use xlink:href="#DejaVuSans-64" transform="translate(825.923828 0)"/>
      <use xlink:href="#DejaVuSans-73" transform="translate(889.400391 0)"/>
     </g>
    </g>
   </g>
   <g id="matplotlib.axis_2">
    <g id="ytick_1">
     <g id="line2d_9">
      <path d="M 40.603125 350.638125 
L 710.203125 350.638125 
" clip-path="url(#p6244d1522e)" style="fill: none; stroke-dasharray: 0.8,1.32; stroke-dashoffset: 0; stroke: #b0b0b0; stroke-opacity: 0.6; stroke-width: 0.8"/>
     </g>
     <g id="line2d_10">
      <defs>
       <path id="maa4733f632" d="M 0 0 
L -3.5 0 
" style="stroke: #000000; stroke-width: 0.8"/>
      </defs>
      <g>
       <use xlink:href="#maa4733f632" x="40.603125" y="350.638125" style="stroke: #000000; stroke-width: 0.8"/>
      </g>
     </g>
     <g id="text_10">
      <!-- 0 -->
      <g transform="translate(27.240625 354.437344) scale(0.1 -0.1)">
       <defs>
        <path id="DejaVuSans-30" d="M 2034 4250 
Q 1547 4250 1301 3770 
Q 1056 3291 1056 2328 
Q 1056 1369 1301 889 
Q 1547 409 2034 409 
Q 2525 409 2770 889 
Q 3016 1369 3016 2328 
Q 3016 3291 2770 3770 
Q 2525 4250 2034 4250 
z
M 2034 4750 
Q 2819 4750 3233 4129 
Q 3647 3509 3647 2328 
Q 3647 1150 3233 529 
Q 2819 -91 2034 -91 
Q 1250 -91 836 529 
Q 422 1150 422 2328 
Q 422 3509 836 4129 
Q 1250 4750 2034 4750 
z
" transform="scale(0.015625)"/>
       </defs>
       <use xlink:href="#DejaVuSans-30"/>
      </g>
     </g>
    </g>
    <g id="ytick_2">
     <g id="line2d_11">
      <path d="M 40.603125 293.761225 
L 710.203125 293.761225 
" clip-path="url(#p6244d1522e)" style="fill: none; stroke-dasharray: 0.8,1.32; stroke-dashoffset: 0; stroke: #b0b0b0; stroke-opacity: 0.6; stroke-width: 0.8"/>
     </g>
     <g id="line2d_12">
      <g>
       <use xlink:href="#maa4733f632" x="40.603125" y="293.761225" style="stroke: #000000; stroke-width: 0.8"/>
      </g>
     </g>
     <g id="text_11">
      <!-- 5 -->
      <g transform="translate(27.240625 297.560444) scale(0.1 -0.1)">
       <defs>
        <path id="DejaVuSans-35" d="M 691 4666 
L 3169 4666 
L 3169 4134 
L 1269 4134 
L 1269 2991 
Q 1406 3038 1543 3061 
Q 1681 3084 1819 3084 
Q 2600 3084 3056 2656 
Q 3513 2228 3513 1497 
Q 3513 744 3044 326 
Q 2575 -91 1722 -91 
Q 1428 -91 1123 -41 
Q 819 9 494 109 
L 494 744 
Q 775 591 1075 516 
Q 1375 441 1709 441 
Q 2250 441 2565 725 
Q 2881 1009 2881 1497 
Q 2881 1984 2565 2268 
Q 2250 2553 1709 2553 
Q 1456 2553 1204 2497 
Q 953 2441 691 2322 
L 691 4666 
z
" transform="scale(0.015625)"/>
       </defs>
       <use xlink:href="#DejaVuSans-35"/>
      </g>
     </g>
    </g>
    <g id="ytick_3">
     <g id="line2d_13">
      <path d="M 40.603125 236.884325 
L 710.203125 236.884325 
" clip-path="url(#p6244d1522e)" style="fill: none; stroke-dasharray: 0.8,1.32; stroke-dashoffset: 0; stroke: #b0b0b0; stroke-opacity: 0.6; stroke-width: 0.8"/>
     </g>
     <g id="line2d_14">
      <g>
       <use xlink:href="#maa4733f632" x="40.603125" y="236.884325" style="stroke: #000000; stroke-width: 0.8"/>
      </g>
     </g>
     <g id="text_12">
      <!-- 10 -->
      <g transform="translate(20.878125 240.683543) scale(0.1 -0.1)">
       <use xlink:href="#DejaVuSans-31"/>
       <use xlink:href="#DejaVuSans-30" transform="translate(63.623047 0)"/>
      </g>
     </g>
    </g>
    <g id="ytick_4">
     <g id="line2d_15">
      <path d="M 40.603125 180.007425 
L 710.203125 180.007425 
" clip-path="url(#p6244d1522e)" style="fill: none; stroke-dasharray: 0.8,1.32; stroke-dashoffset: 0; stroke: #b0b0b0; stroke-opacity: 0.6; stroke-width: 0.8"/>
     </g>
     <g id="line2d_16">
      <g>
       <use xlink:href="#maa4733f632" x="40.603125" y="180.007425" style="stroke: #000000; stroke-width: 0.8"/>
      </g>
     </g>
     <g id="text_13">
      <!-- 15 -->
      <g transform="translate(20.878125 183.806643) scale(0.1 -0.1)">
       <use xlink:href="#DejaVuSans-31"/>
       <use xlink:href="#DejaVuSans-35" transform="translate(63.623047 0)"/>
      </g>
     </g>
    </g>
    <g id="ytick_5">
     <g id="line2d_17">
      <path d="M 40.603125 123.130524 
L 710.203125 123.130524 
" clip-path="url(#p6244d1522e)" style="fill: none; stroke-dasharray: 0.8,1.32; stroke-dashoffset: 0; stroke: #b0b0b0; stroke-opacity: 0.6; stroke-width: 0.8"/>
     </g>
     <g id="line2d_18">
      <g>
       <use xlink:href="#maa4733f632" x="40.603125" y="123.130524" style="stroke: #000000; stroke-width: 0.8"/>
      </g>
     </g>
     <g id="text_14">
      <!-- 20 -->
      <g transform="translate(20.878125 126.929743) scale(0.1 -0.1)">
       <use xlink:href="#DejaVuSans-32"/>
       <use xlink:href="#DejaVuSans-30" transform="translate(63.623047 0)"/>
      </g>
     </g>
    </g>
    <g id="ytick_6">
     <g id="line2d_19">
      <path d="M 40.603125 66.253624 
L 710.203125 66.253624 
" clip-path="url(#p6244d1522e)" style="fill: none; stroke-dasharray: 0.8,1.32; stroke-dashoffset: 0; stroke: #b0b0b0; stroke-opacity: 0.6; stroke-width: 0.8"/>
     </g>
     <g id="line2d_20">
      <g>
       <use xlink:href="#maa4733f632" x="40.603125" y="66.253624" style="stroke: #000000; stroke-width: 0.8"/>
      </g>
     </g>
     <g id="text_15">
      <!-- 25 -->
      <g transform="translate(20.878125 70.052843) scale(0.1 -0.1)">
       <use xlink:href="#DejaVuSans-32"/>
       <use xlink:href="#DejaVuSans-35" transform="translate(63.623047 0)"/>
      </g>
     </g>
    </g>
    <g id="text_16">
     <!-- Speedup (baseline: sequential) -->
     <g transform="translate(14.798437 264.275781) rotate(-90) scale(0.1 -0.1)">
      <defs>
       <path id="DejaVuSans-53" d="M 3425 4513 
L 3425 3897 
Q 3066 4069 2747 4153 
Q 2428 4238 2131 4238 
Q 1616 4238 1336 4038 
Q 1056 3838 1056 3469 
Q 1056 3159 1242 3001 
Q 1428 2844 1947 2747 
L 2328 2669 
Q 3034 2534 3370 2195 
Q 3706 1856 3706 1288 
Q 3706 609 3251 259 
Q 2797 -91 1919 -91 
Q 1588 -91 1214 -16 
Q 841 59 441 206 
L 441 856 
Q 825 641 1194 531 
Q 1563 422 1919 422 
Q 2459 422 2753 634 
Q 3047 847 3047 1241 
Q 3047 1584 2836 1778 
Q 2625 1972 2144 2069 
L 1759 2144 
Q 1053 2284 737 2584 
Q 422 2884 422 3419 
Q 422 4038 858 4394 
Q 1294 4750 2059 4750 
Q 2388 4750 2728 4690 
Q 3069 4631 3425 4513 
z
" transform="scale(0.015625)"/>
       <path id="DejaVuSans-70" d="M 1159 525 
L 1159 -1331 
L 581 -1331 
L 581 3500 
L 1159 3500 
L 1159 2969 
Q 1341 3281 1617 3432 
Q 1894 3584 2278 3584 
Q 2916 3584 3314 3078 
Q 3713 2572 3713 1747 
Q 3713 922 3314 415 
Q 2916 -91 2278 -91 
Q 1894 -91 1617 61 
Q 1341 213 1159 525 
z
M 3116 1747 
Q 3116 2381 2855 2742 
Q 2594 3103 2138 3103 
Q 1681 3103 1420 2742 
Q 1159 2381 1159 1747 
Q 1159 1113 1420 752 
Q 1681 391 2138 391 
Q 2594 391 2855 752 
Q 3116 1113 3116 1747 
z
" transform="scale(0.015625)"/>
       <path id="DejaVuSans-28" d="M 1984 4856 
Q 1566 4138 1362 3434 
Q 1159 2731 1159 2009 
Q 1159 1288 1364 580 
Q 1569 -128 1984 -844 
L 1484 -844 
Q 1016 -109 783 600 
Q 550 1309 550 2009 
Q 550 2706 781 3412 
Q 1013 4119 1484 4856 
L 1984 4856 
z
" transform="scale(0.015625)"/>
       <path id="DejaVuSans-6c" d="M 603 4863 
L 1178 4863 
L 1178 0 
L 603 0 
L 603 4863 
z
" transform="scale(0.015625)"/>
       <path id="DejaVuSans-69" d="M 603 3500 
L 1178 3500 
L 1178 0 
L 603 0 
L 603 3500 
z
M 603 4863 
L 1178 4863 
L 1178 4134 
L 603 4134 
L 603 4863 
z
" transform="scale(0.015625)"/>
       <path id="DejaVuSans-6e" d="M 3513 2113 
L 3513 0 
L 2938 0 
L 2938 2094 
Q 2938 2591 2744 2837 
Q 2550 3084 2163 3084 
Q 1697 3084 1428 2787 
Q 1159 2491 1159 1978 
L 1159 0 
L 581 0 
L 581 3500 
L 1159 3500 
L 1159 2956 
Q 1366 3272 1645 3428 
Q 1925 3584 2291 3584 
Q 2894 3584 3203 3211 
Q 3513 2838 3513 2113 
z
" transform="scale(0.015625)"/>
       <path id="DejaVuSans-3a" d="M 750 794 
L 1409 794 
L 1409 0 
L 750 0 
L 750 794 
z
M 750 3309 
L 1409 3309 
L 1409 2516 
L 750 2516 
L 750 3309 
z
" transform="scale(0.015625)"/>
       <path id="DejaVuSans-29" d="M 513 4856 
L 1013 4856 
Q 1481 4119 1714 3412 
Q 1947 2706 1947 2009 
Q 1947 1309 1714 600 
Q 1481 -109 1013 -844 
L 513 -844 
Q 928 -128 1133 580 
Q 1338 1288 1338 2009 
Q 1338 2731 1133 3434 
Q 928 4138 513 4856 
z
" transform="scale(0.015625)"/>
      </defs>
      <use xlink:href="#DejaVuSans-53"/>
      <use xlink:href="#DejaVuSans-70" transform="translate(63.476562 0)"/>
      <use xlink:href="#DejaVuSans-65" transform="translate(126.953125 0)"/>
      <use xlink:href="#DejaVuSans-65" transform="translate(188.476562 0)"/>
      <use xlink:href="#DejaVuSans-64" transform="translate(250 0)"/>
      <use xlink:href="#DejaVuSans-75" transform="translate(313.476562 0)"/>
      <use xlink:href="#DejaVuSans-70" transform="translate(376.855469 0)"/>
      <use xlink:href="#DejaVuSans-20" transform="translate(440.332031 0)"/>
      <use xlink:href="#DejaVuSans-28" transform="translate(472.119141 0)"/>
      <use xlink:href="#DejaVuSans-62" transform="translate(511.132812 0)"/>
      <use xlink:href="#DejaVuSans-61" transform="translate(574.609375 0)"/>
      <use xlink:href="#DejaVuSans-73" transform="translate(635.888672 0)"/>
      <use xlink:href="#DejaVuSans-65" transform="translate(687.988281 0)"/>
      <use xlink:href="#DejaVuSans-6c" transform="translate(749.511719 0)"/>
      <use xlink:href="#DejaVuSans-69" transform="translate(777.294922 0)"/>
      <use xlink:href="#DejaVuSans-6e" transform="translate(805.078125 0)"/>
      <use xlink:href="#DejaVuSans-65" transform="translate(868.457031 0)"/>
      <use xlink:href="#DejaVuSans-3a" transform="translate(929.980469 0)"/>
      <use xlink:href="#DejaVuSans-20" transform="translate(963.671875 0)"/>
      <use xlink:href="#DejaVuSans-73" transform="translate(995.458984 0)"/>
      <use xlink:href="#DejaVuSans-65" transform="translate(1047.558594 0)"/>
      <use xlink:href="#DejaVuSans-71" transform="translate(1109.082031 0)"/>
      <use xlink:href="#DejaVuSans-75" transform="translate(1172.558594 0)"/>
      <use xlink:href="#DejaVuSans-65" transform="translate(1235.9375 0)"/>
      <use xlink:href="#DejaVuSans-6e" transform="translate(1297.460938 0)"/>
      <use xlink:href="#DejaVuSans-74" transform="translate(1360.839844 0)"/>
      <use xlink:href="#DejaVuSans-69" transform="translate(1400.048828 0)"/>
      <use xlink:href="#DejaVuSans-61" transform="translate(1427.832031 0)"/>
      <use xlink:href="#DejaVuSans-6c" transform="translate(1489.111328 0)"/>
      <use xlink:href="#DejaVuSans-29" transform="translate(1516.894531 0)"/>
     </g>
    </g>
   </g>
   <g id="patch_43">
    <path d="M 40.603125 350.638125 
L 40.603125 22.318125 
" style="fill: none; stroke: #000000; stroke-width: 0.8; stroke-linejoin: miter; stroke-linecap: square"/>
   </g>
   <g id="patch_44">
    <path d="M 710.203125 350.638125 
L 710.203125 22.318125 
" style="fill: none; stroke: #000000; stroke-width: 0.8; stroke-linejoin: miter; stroke-linecap: square"/>
   </g>
   <g id="patch_45">
    <path d="M 40.603125 350.638125 
L 710.203125 350.638125 
" style="fill: none; stroke: #000000; stroke-width: 0.8; stroke-linejoin: miter; stroke-linecap: square"/>
   </g>
   <g id="patch_46">
    <path d="M 40.603125 22.318125 
L 710.203125 22.318125 
" style="fill: none; stroke: #000000; stroke-width: 0.8; stroke-linejoin: miter; stroke-linecap: square"/>
   </g>
   <g id="text_17">
    <!-- Speedup — all implementations -->
    <g transform="translate(279.584063 16.318125) scale(0.12 -0.12)">
     <defs>
      <path id="DejaVuSans-2014" d="M 313 1978 
L 6088 1978 
L 6088 1528 
L 313 1528 
L 313 1978 
z
" transform="scale(0.015625)"/>
     </defs>
     <use xlink:href="#DejaVuSans-53"/>
     <use xlink:href="#DejaVuSans-70" transform="translate(63.476562 0)"/>
     <use xlink:href="#DejaVuSans-65" transform="translate(126.953125 0)"/>
     <use xlink:href="#DejaVuSans-65" transform="translate(188.476562 0)"/>
     <use xlink:href="#DejaVuSans-64" transform="translate(250 0)"/>
     <use xlink:href="#DejaVuSans-75" transform="translate(313.476562 0)"/>
     <use xlink:href="#DejaVuSans-70" transform="translate(376.855469 0)"/>
     <use xlink:href="#DejaVuSans-20" transform="translate(440.332031 0)"/>
     <use xlink:href="#DejaVuSans-2014" transform="translate(472.119141 0)"/>
     <use xlink:href="#DejaVuSans-20" transform="translate(572.119141 0)"/>
     <use xlink:href="#DejaVuSans-61" transform="translate(603.90625 0)"/>
     <use xlink:href="#DejaVuSans-6c" transform="translate(665.185547 0)"/>
     <use xlink:href="#DejaVuSans-6c" transform="translate(692.96875 0)"/>
     <use xlink:href="#DejaVuSans-20" transform="translate(720.751953 0)"/>
     <use xlink:href="#DejaVuSans-69" transform="translate(752.539062 0)"/>
     <use xlink:href="#DejaVuSans-6d" transform="translate(780.322266 0)"/>
     <use xlink:href="#DejaVuSans-70" transform="translate(877.734375 0)"/>
     <use xlink:href="#DejaVuSans-6c" transform="translate(941.210938 0)"/>
     <use xlink:href="#DejaVuSans-65" transform="translate(968.994141 0)"/>
     <use xlink:href="#DejaVuSans-6d" transform="translate(1030.517578 0)"/>
     <use xlink:href="#DejaVuSans-65" transform="translate(1127.929688 0)"/>
     <use xlink:href="#DejaVuSans-6e" transform="translate(1189.453125 0)"/>
     <use xlink:href="#DejaVuSans-74" transform="translate(1252.832031 0)"/>
     <use xlink:href="#DejaVuSans-61" transform="translate(1292.041016 0)"/>
     <use xlink:href="#DejaVuSans-74" transform="translate(1353.320312 0)"/>
     <use xlink:href="#DejaVuSans-69" transform="translate(1392.529297 0)"/>
     <use xlink:href="#DejaVuSans-6f" transform="translate(1420.3125 0)"/>
     <use xlink:href="#DejaVuSans-6e" transform="translate(1481.494141 0)"/>
     <use xlink:href="#DejaVuSans-73" transform="translate(1544.873047 0)"/>
    </g>
   </g>
   <g id="legend_1">
    <g id="patch_47">
     <path d="M 725.595125 99.82125 
L 951.346688 99.82125 
Q 953.346688 99.82125 953.346688 97.82125 
L 953.346688 24.318125 
Q 953.346688 22.318125 951.346688 22.318125 
L 725.595125 22.318125 
Q 723.595125 22.318125 723.595125 24.318125 
L 723.595125 97.82125 
Q 723.595125 99.82125 725.595125 99.82125 
z
" style="fill: #ffffff; opacity: 0.8; stroke: #cccccc; stroke-linejoin: miter"/>
    </g>
    <g id="patch_48">
     <path d="M 727.595125 33.916562 
L 747.595125 33.916562 
L 747.595125 26.916562 
L 727.595125 26.916562 
z
" style="fill: #1f77b4; stroke: #000000; stroke-width: 0.5; stroke-linejoin: miter"/>
    </g>
    <g id="text_18">
     <!-- naive - affinity_all_shared -->
     <g transform="translate(755.595125 33.916562) scale(0.1 -0.1)">
      <defs>
       <path id="DejaVuSans-76" d="M 191 3500 
L 800 3500 
L 1894 563 
L 2988 3500 
L 3597 3500 
L 2284 0 
L 1503 0 
L 191 3500 
z
" transform="scale(0.015625)"/>
       <path id="DejaVuSans-2d" d="M 313 2009 
L 1997 2009 
L 1997 1497 
L 313 1497 
L 313 2009 
z
" transform="scale(0.015625)"/>
       <path id="DejaVuSans-79" d="M 2059 -325 
Q 1816 -950 1584 -1140 
Q 1353 -1331 966 -1331 
L 506 -1331 
L 506 -850 
L 844 -850 
Q 1081 -850 1212 -737 
Q 1344 -625 1503 -206 
L 1606 56 
L 191 3500 
L 800 3500 
L 1894 763 
L 2988 3500 
L 3597 3500 
L 2059 -325 
z
" transform="scale(0.015625)"/>
       <path id="DejaVuSans-5f" d="M 3263 -1063 
L 3263 -1509 
L -63 -1509 
L -63 -1063 
L 3263 -1063 
z
" transform="scale(0.015625)"/>
      </defs>
      <use xlink:href="#DejaVuSans-6e"/>
      <use xlink:href="#DejaVuSans-61" transform="translate(63.378906 0)"/>
      <use xlink:href="#DejaVuSans-69" transform="translate(124.658203 0)"/>
      <use xlink:href="#DejaVuSans-76" transform="translate(152.441406 0)"/>
      <use xlink:href="#DejaVuSans-65" transform="translate(211.621094 0)"/>
      <use xlink:href="#DejaVuSans-20" transform="translate(273.144531 0)"/>
      <use xlink:href="#DejaVuSans-2d" transform="translate(304.931641 0)"/>
      <use xlink:href="#DejaVuSans-20" transform="translate(341.015625 0)"/>
      <use xlink:href="#DejaVuSans-61" transform="translate(372.802734 0)"/>
      <use xlink:href="#DejaVuSans-66" transform="translate(434.082031 0)"/>
      <use xlink:href="#DejaVuSans-66" transform="translate(469.287109 0)"/>
      <use xlink:href="#DejaVuSans-69" transform="translate(504.492188 0)"/>
      <use xlink:href="#DejaVuSans-6e" transform="translate(532.275391 0)"/>
      <use xlink:href="#DejaVuSans-69" transform="translate(595.654297 0)"/>
      <use xlink:href="#DejaVuSans-74" transform="translate(623.4375 0)"/>
      <use xlink:href="#DejaVuSans-79" transform="translate(662.646484 0)"/>
      <use xlink:href="#DejaVuSans-5f" transform="translate(721.826172 0)"/>
      <use xlink:href="#DejaVuSans-61" transform="translate(771.826172 0)"/>
      <use xlink:href="#DejaVuSans-6c" transform="translate(833.105469 0)"/>
      <use xlink:href="#DejaVuSans-6c" transform="translate(860.888672 0)"/>
      <use xlink:href="#DejaVuSans-5f" transform="translate(888.671875 0)"/>
      <use xlink:href="#DejaVuSans-73" transform="translate(938.671875 0)"/>
      <use xlink:href="#DejaVuSans-68" transform="translate(990.771484 0)"/>
      <use xlink:href="#DejaVuSans-61" transform="translate(1054.150391 0)"/>
      <use xlink:href="#DejaVuSans-72" transform="translate(1115.429688 0)"/>
      <use xlink:href="#DejaVuSans-65" transform="translate(1154.292969 0)"/>
      <use xlink:href="#DejaVuSans-64" transform="translate(1215.816406 0)"/>
     </g>
    </g>
    <g id="patch_49">
     <path d="M 727.595125 48.872812 
L 747.595125 48.872812 
L 747.595125 41.872812 
L 727.595125 41.872812 
z
" style="fill: #ff7f0e; stroke: #000000; stroke-width: 0.5; stroke-linejoin: miter"/>
    </g>
    <g id="text_19">
     <!-- naive - affinity_clusters_firstprivate -->
     <g transform="translate(755.595125 48.872812) scale(0.1 -0.1)">
      <defs>
       <path id="DejaVuSans-63" d="M 3122 3366 
L 3122 2828 
Q 2878 2963 2633 3030 
Q 2388 3097 2138 3097 
Q 1578 3097 1268 2742 
Q 959 2388 959 1747 
Q 959 1106 1268 751 
Q 1578 397 2138 397 
Q 2388 397 2633 464 
Q 2878 531 3122 666 
L 3122 134 
Q 2881 22 2623 -34 
Q 2366 -91 2075 -91 
Q 1284 -91 818 406 
Q 353 903 353 1747 
Q 353 2603 823 3093 
Q 1294 3584 2113 3584 
Q 2378 3584 2631 3529 
Q 2884 3475 3122 3366 
z
" transform="scale(0.015625)"/>
      </defs>
      <use xlink:href="#DejaVuSans-6e"/>
      <use xlink:href="#DejaVuSans-61" transform="translate(63.378906 0)"/>
      <use xlink:href="#DejaVuSans-69" transform="translate(124.658203 0)"/>
      <use xlink:href="#DejaVuSans-76" transform="translate(152.441406 0)"/>
      <use xlink:href="#DejaVuSans-65" transform="translate(211.621094 0)"/>
      <use xlink:href="#DejaVuSans-20" transform="translate(273.144531 0)"/>
      <use xlink:href="#DejaVuSans-2d" transform="translate(304.931641 0)"/>
      <use xlink:href="#DejaVuSans-20" transform="translate(341.015625 0)"/>
      <use xlink:href="#DejaVuSans-61" transform="translate(372.802734 0)"/>
      <use xlink:href="#DejaVuSans-66" transform="translate(434.082031 0)"/>
      <use xlink:href="#DejaVuSans-66" transform="translate(469.287109 0)"/>
      <use xlink:href="#DejaVuSans-69" transform="translate(504.492188 0)"/>
      <use xlink:href="#DejaVuSans-6e" transform="translate(532.275391 0)"/>
      <use xlink:href="#DejaVuSans-69" transform="translate(595.654297 0)"/>
      <use xlink:href="#DejaVuSans-74" transform="translate(623.4375 0)"/>
      <use xlink:href="#DejaVuSans-79" transform="translate(662.646484 0)"/>
      <use xlink:href="#DejaVuSans-5f" transform="translate(721.826172 0)"/>
      <use xlink:href="#DejaVuSans-63" transform="translate(771.826172 0)"/>
      <use xlink:href="#DejaVuSans-6c" transform="translate(826.806641 0)"/>
      <use xlink:href="#DejaVuSans-75" transform="translate(854.589844 0)"/>
      <use xlink:href="#DejaVuSans-73" transform="translate(917.96875 0)"/>
      <use xlink:href="#DejaVuSans-74" transform="translate(970.068359 0)"/>
      <use xlink:href="#DejaVuSans-65" transform="translate(1009.277344 0)"/>
      <use xlink:href="#DejaVuSans-72" transform="translate(1070.800781 0)"/>
      <use xlink:href="#DejaVuSans-73" transform="translate(1111.914062 0)"/>
      <use xlink:href="#DejaVuSans-5f" transform="translate(1164.013672 0)"/>
      <use xlink:href="#DejaVuSans-66" transform="translate(1214.013672 0)"/>
      <use xlink:href="#DejaVuSans-69" transform="translate(1249.21875 0)"/>
      <use xlink:href="#DejaVuSans-72" transform="translate(1277.001953 0)"/>
      <use xlink:href="#DejaVuSans-73" transform="translate(1318.115234 0)"/>
      <use xlink:href="#DejaVuSans-74" transform="translate(1370.214844 0)"/>
      <use xlink:href="#DejaVuSans-70" transform="translate(1409.423828 0)"/>
      <use xlink:href="#DejaVuSans-72" transform="translate(1472.900391 0)"/>
      <use xlink:href="#DejaVuSans-69" transform="translate(1514.013672 0)"/>
      <use xlink:href="#DejaVuSans-76" transform="translate(1541.796875 0)"/>
      <use xlink:href="#DejaVuSans-61" transform="translate(1600.976562 0)"/>
      <use xlink:href="#DejaVuSans-74" transform="translate(1662.255859 0)"/>
      <use xlink:href="#DejaVuSans-65" transform="translate(1701.464844 0)"/>
     </g>
    </g>
    <g id="patch_50">
     <path d="M 727.595125 63.829062 
L 747.595125 63.829062 
L 747.595125 56.829062 
L 727.595125 56.829062 
z
" style="fill: #2ca02c; stroke: #000000; stroke-width: 0.5; stroke-linejoin: miter"/>
    </g>
    <g id="text_20">
     <!-- naive - no_affinity_all_shared -->
     <g transform="translate(755.595125 63.829062) scale(0.1 -0.1)">
      <use xlink:href="#DejaVuSans-6e"/>
      <use xlink:href="#DejaVuSans-61" transform="translate(63.378906 0)"/>
      <use xlink:href="#DejaVuSans-69" transform="translate(124.658203 0)"/>
      <use xlink:href="#DejaVuSans-76" transform="translate(152.441406 0)"/>
      <use xlink:href="#DejaVuSans-65" transform="translate(211.621094 0)"/>
      <use xlink:href="#DejaVuSans-20" transform="translate(273.144531 0)"/>
      <use xlink:href="#DejaVuSans-2d" transform="translate(304.931641 0)"/>
      <use xlink:href="#DejaVuSans-20" transform="translate(341.015625 0)"/>
      <use xlink:href="#DejaVuSans-6e" transform="translate(372.802734 0)"/>
      <use xlink:href="#DejaVuSans-6f" transform="translate(436.181641 0)"/>
      <use xlink:href="#DejaVuSans-5f" transform="translate(497.363281 0)"/>
      <use xlink:href="#DejaVuSans-61" transform="translate(547.363281 0)"/>
      <use xlink:href="#DejaVuSans-66" transform="translate(608.642578 0)"/>
      <use xlink:href="#DejaVuSans-66" transform="translate(643.847656 0)"/>
      <use xlink:href="#DejaVuSans-69" transform="translate(679.052734 0)"/>
      <use xlink:href="#DejaVuSans-6e" transform="translate(706.835938 0)"/>
      <use xlink:href="#DejaVuSans-69" transform="translate(770.214844 0)"/>
      <use xlink:href="#DejaVuSans-74" transform="translate(797.998047 0)"/>
      <use xlink:href="#DejaVuSans-79" transform="translate(837.207031 0)"/>
      <use xlink:href="#DejaVuSans-5f" transform="translate(896.386719 0)"/>
      <use xlink:href="#DejaVuSans-61" transform="translate(946.386719 0)"/>
      <use xlink:href="#DejaVuSans-6c" transform="translate(1007.666016 0)"/>
      <use xlink:href="#DejaVuSans-6c" transform="translate(1035.449219 0)"/>
      <use xlink:href="#DejaVuSans-5f" transform="translate(1063.232422 0)"/>
      <use xlink:href="#DejaVuSans-73" transform="translate(1113.232422 0)"/>
      <use xlink:href="#DejaVuSans-68" transform="translate(1165.332031 0)"/>
      <use xlink:href="#DejaVuSans-61" transform="translate(1228.710938 0)"/>
      <use xlink:href="#DejaVuSans-72" transform="translate(1289.990234 0)"/>
      <use xlink:href="#DejaVuSans-65" transform="translate(1328.853516 0)"/>
      <use xlink:href="#DejaVuSans-64" transform="translate(1390.376953 0)"/>
     </g>
    </g>
    <g id="patch_51">
     <path d="M 727.595125 78.785312 
L 747.595125 78.785312 
L 747.595125 71.785312 
L 727.595125 71.785312 
z
" style="fill: #d62728; stroke: #000000; stroke-width: 0.5; stroke-linejoin: miter"/>
    </g>
    <g id="text_21">
     <!-- naive - no_affinity_clusters_firstprivate -->
     <g transform="translate(755.595125 78.785312) scale(0.1 -0.1)">
      <use xlink:href="#DejaVuSans-6e"/>
      <use xlink:href="#DejaVuSans-61" transform="translate(63.378906 0)"/>
      <use xlink:href="#DejaVuSans-69" transform="translate(124.658203 0)"/>
      <use xlink:href="#DejaVuSans-76" transform="translate(152.441406 0)"/>
      <use xlink:href="#DejaVuSans-65" transform="translate(211.621094 0)"/>
      <use xlink:href="#DejaVuSans-20" transform="translate(273.144531 0)"/>
      <use xlink:href="#DejaVuSans-2d" transform="translate(304.931641 0)"/>
      <use xlink:href="#DejaVuSans-20" transform="translate(341.015625 0)"/>
      <use xlink:href="#DejaVuSans-6e" transform="translate(372.802734 0)"/>
      <use xlink:href="#DejaVuSans-6f" transform="translate(436.181641 0)"/>
      <use xlink:href="#DejaVuSans-5f" transform="translate(497.363281 0)"/>
      <use xlink:href="#DejaVuSans-61" transform="translate(547.363281 0)"/>
      <use xlink:href="#DejaVuSans-66" transform="translate(608.642578 0)"/>
      <use xlink:href="#DejaVuSans-66" transform="translate(643.847656 0)"/>
      <use xlink:href="#DejaVuSans-69" transform="translate(679.052734 0)"/>
      <use xlink:href="#DejaVuSans-6e" transform="translate(706.835938 0)"/>
      <use xlink:href="#DejaVuSans-69" transform="translate(770.214844 0)"/>
      <use xlink:href="#DejaVuSans-74" transform="translate(797.998047 0)"/>
      <use xlink:href="#DejaVuSans-79" transform="translate(837.207031 0)"/>
      <use xlink:href="#DejaVuSans-5f" transform="translate(896.386719 0)"/>
      <use xlink:href="#DejaVuSans-63" transform="translate(946.386719 0)"/>
      <use xlink:href="#DejaVuSans-6c" transform="translate(1001.367188 0)"/>
      <use xlink:href="#DejaVuSans-75" transform="translate(1029.150391 0)"/>
      <use xlink:href="#DejaVuSans-73" transform="translate(1092.529297 0)"/>
      <use xlink:href="#DejaVuSans-74" transform="translate(1144.628906 0)"/>
      <use xlink:href="#DejaVuSans-65" transform="translate(1183.837891 0)"/>
      <use xlink:href="#DejaVuSans-72" transform="translate(1245.361328 0)"/>
      <use xlink:href="#DejaVuSans-73" transform="translate(1286.474609 0)"/>
      <use xlink:href="#DejaVuSans-5f" transform="translate(1338.574219 0)"/>
      <use xlink:href="#DejaVuSans-66" transform="translate(1388.574219 0)"/>
      <use xlink:href="#DejaVuSans-69" transform="translate(1423.779297 0)"/>
      <use xlink:href="#DejaVuSans-72" transform="translate(1451.5625 0)"/>
      <use xlink:href="#DejaVuSans-73" transform="translate(1492.675781 0)"/>
      <use xlink:href="#DejaVuSans-74" transform="translate(1544.775391 0)"/>
      <use xlink:href="#DejaVuSans-70" transform="translate(1583.984375 0)"/>
      <use xlink:href="#DejaVuSans-72" transform="translate(1647.460938 0)"/>
      <use xlink:href="#DejaVuSans-69" transform="translate(1688.574219 0)"/>
      <use xlink:href="#DejaVuSans-76" transform="translate(1716.357422 0)"/>
      <use xlink:href="#DejaVuSans-61" transform="translate(1775.537109 0)"/>
      <use xlink:href="#DejaVuSans-74" transform="translate(1836.816406 0)"/>
      <use xlink:href="#DejaVuSans-65" transform="translate(1876.025391 0)"/>
     </g>
    </g>
    <g id="patch_52">
     <path d="M 727.595125 93.741562 
L 747.595125 93.741562 
L 747.595125 86.741562 
L 727.595125 86.741562 
z
" style="fill: #9467bd; stroke: #000000; stroke-width: 0.5; stroke-linejoin: miter"/>
    </g>
    <g id="text_22">
     <!-- reduction - base -->
     <g transform="translate(755.595125 93.741562) scale(0.1 -0.1)">
      <use xlink:href="#DejaVuSans-72"/>
      <use xlink:href="#DejaVuSans-65" transform="translate(38.863281 0)"/>
      <use xlink:href="#DejaVuSans-64" transform="translate(100.386719 0)"/>
      <use xlink:href="#DejaVuSans-75" transform="translate(163.863281 0)"/>
      <use xlink:href="#DejaVuSans-63" transform="translate(227.242188 0)"/>
      <use xlink:href="#DejaVuSans-74" transform="translate(282.222656 0)"/>
      <use xlink:href="#DejaVuSans-69" transform="translate(321.431641 0)"/>
      <use xlink:href="#DejaVuSans-6f" transform="translate(349.214844 0)"/>
      <use xlink:href="#DejaVuSans-6e" transform="translate(410.396484 0)"/>
      <use xlink:href="#DejaVuSans-20" transform="translate(473.775391 0)"/>
      <use xlink:href="#DejaVuSans-2d" transform="translate(505.5625 0)"/>
      <use xlink:href="#DejaVuSans-20" transform="translate(541.646484 0)"/>
      <use xlink:href="#DejaVuSans-62" transform="translate(573.433594 0)"/>
      <use xlink:href="#DejaVuSans-61" transform="translate(636.910156 0)"/>
      <use xlink:href="#DejaVuSans-73" transform="translate(698.189453 0)"/>
      <use xlink:href="#DejaVuSans-65" transform="translate(750.289062 0)"/>
     </g>
    </g>
   </g>
  </g>
  <g id="text_23">
   <!-- Dataset: 256.00 MB  |  Coordinates: 16  |  Clusters: 32 -->
   <g transform="translate(199.462969 393.838125) scale(0.09 -0.09)">
    <defs>
     <path id="DejaVuSans-Oblique-44" d="M 1081 4666 
L 2438 4666 
Q 3519 4666 4070 4208 
Q 4622 3750 4622 2847 
Q 4622 2250 4412 1698 
Q 4203 1147 3834 769 
Q 3463 381 2891 190 
Q 2319 0 1538 0 
L 172 0 
L 1081 4666 
z
M 1613 4147 
L 909 519 
L 1734 519 
Q 2794 519 3375 1128 
Q 3956 1738 3956 2847 
Q 3956 3519 3581 3833 
Q 3206 4147 2406 4147 
L 1613 4147 
z
" transform="scale(0.015625)"/>
     <path id="DejaVuSans-Oblique-61" d="M 3438 1997 
L 3047 0 
L 2472 0 
L 2578 531 
Q 2325 219 2001 64 
Q 1678 -91 1281 -91 
Q 834 -91 548 182 
Q 263 456 263 884 
Q 263 1497 752 1853 
Q 1241 2209 2100 2209 
L 2900 2209 
L 2931 2363 
Q 2938 2388 2941 2417 
Q 2944 2447 2944 2509 
Q 2944 2788 2717 2942 
Q 2491 3097 2081 3097 
Q 1800 3097 1504 3025 
Q 1209 2953 897 2809 
L 997 3341 
Q 1322 3463 1633 3523 
Q 1944 3584 2234 3584 
Q 2853 3584 3176 3315 
Q 3500 3047 3500 2534 
Q 3500 2431 3484 2292 
Q 3469 2153 3438 1997 
z
M 2816 1759 
L 2241 1759 
Q 1534 1759 1195 1570 
Q 856 1381 856 984 
Q 856 709 1029 553 
Q 1203 397 1509 397 
Q 1978 397 2328 733 
Q 2678 1069 2791 1631 
L 2816 1759 
z
" transform="scale(0.015625)"/>
     <path id="DejaVuSans-Oblique-74" d="M 2706 3500 
L 2619 3053 
L 1472 3053 
L 1100 1153 
Q 1081 1047 1072 975 
Q 1063 903 1063 863 
Q 1063 663 1183 572 
Q 1303 481 1569 481 
L 2150 481 
L 2053 0 
L 1503 0 
Q 991 0 739 200 
Q 488 400 488 806 
Q 488 878 497 964 
Q 506 1050 525 1153 
L 897 3053 
L 409 3053 
L 500 3500 
L 978 3500 
L 1172 4494 
L 1747 4494 
L 1556 3500 
L 2706 3500 
z
" transform="scale(0.015625)"/>
     <path id="DejaVuSans-Oblique-73" d="M 3200 3397 
L 3091 2853 
Q 2863 2978 2609 3040 
Q 2356 3103 2088 3103 
Q 1634 3103 1373 2948 
Q 1113 2794 1113 2528 
Q 1113 2219 1719 2053 
Q 1766 2041 1788 2034 
L 1972 1978 
Q 2547 1819 2739 1644 
Q 2931 1469 2931 1166 
Q 2931 609 2489 259 
Q 2047 -91 1331 -91 
Q 1053 -91 747 -37 
Q 441 16 72 128 
L 184 722 
Q 500 559 806 475 
Q 1113 391 1394 391 
Q 1816 391 2080 572 
Q 2344 753 2344 1031 
Q 2344 1331 1650 1516 
L 1591 1531 
L 1394 1581 
Q 956 1697 753 1886 
Q 550 2075 550 2369 
Q 550 2928 970 3256 
Q 1391 3584 2113 3584 
Q 2397 3584 2667 3537 
Q 2938 3491 3200 3397 
z
" transform="scale(0.015625)"/>
     <path id="DejaVuSans-Oblique-65" d="M 3078 2063 
Q 3088 2113 3092 2166 
Q 3097 2219 3097 2272 
Q 3097 2653 2873 2875 
Q 2650 3097 2266 3097 
Q 1838 3097 1509 2826 
Q 1181 2556 1013 2059 
L 3078 2063 
z
M 3578 1613 
L 903 1613 
Q 884 1494 878 1425 
Q 872 1356 872 1306 
Q 872 872 1139 634 
Q 1406 397 1894 397 
Q 2269 397 2603 481 
Q 2938 566 3225 728 
L 3116 159 
Q 2806 34 2476 -28 
Q 2147 -91 1806 -91 
Q 1078 -91 686 257 
Q 294 606 294 1247 
Q 294 1794 489 2264 
Q 684 2734 1063 3103 
Q 1306 3334 1642 3459 
Q 1978 3584 2356 3584 
Q 2950 3584 3301 3228 
Q 3653 2872 3653 2272 
Q 3653 2128 3634 1964 
Q 3616 1800 3578 1613 
z
" transform="scale(0.015625)"/>
     <path id="DejaVuSans-Oblique-3a" d="M 978 3309 
L 1638 3309 
L 1484 2516 
L 825 2516 
L 978 3309 
z
M 488 794 
L 1147 794 
L 991 0 
L 331 0 
L 488 794 
z
" transform="scale(0.015625)"/>
     <path id="DejaVuSans-Oblique-20" transform="scale(0.015625)"/>
     <path id="DejaVuSans-Oblique-32" d="M 2950 2253 
L 934 525 
L 3163 525 
L 3053 0 
L 25 0 
L 128 531 
L 2234 2338 
Q 2656 2703 2832 2979 
Q 3009 3256 3009 3547 
Q 3009 3850 2796 4040 
Q 2584 4231 2241 4231 
Q 1944 4231 1581 4125 
Q 1219 4019 806 3816 
L 922 4441 
Q 1309 4594 1662 4672 
Q 2016 4750 2316 4750 
Q 2928 4750 3301 4425 
Q 3675 4100 3675 3572 
Q 3675 3216 3497 2892 
Q 3319 2569 2950 2253 
z
" transform="scale(0.015625)"/>
     <path id="DejaVuSans-Oblique-35" d="M 3719 4666 
L 3622 4141 
L 1691 4141 
L 1466 2988 
Q 1609 3034 1757 3056 
Q 1906 3078 2059 3078 
Q 2706 3078 3081 2731 
Q 3456 2384 3456 1791 
Q 3456 1375 3264 994 
Q 3072 613 2719 325 
Q 2469 125 2108 17 
Q 1747 -91 1319 -91 
Q 1038 -91 744 -41 
Q 450 9 128 109 
L 244 697 
Q 531 556 820 486 
Q 1109 416 1403 416 
Q 2013 416 2411 781 
Q 2809 1147 2809 1697 
Q 2809 2103 2548 2328 
Q 2288 2553 1819 2553 
Q 1572 2553 1305 2495 
Q 1038 2438 756 2322 
L 1209 4666 
L 3719 4666 
z
" transform="scale(0.015625)"/>
     <path id="DejaVuSans-Oblique-36" d="M 2938 1728 
Q 2938 2125 2734 2354 
Q 2531 2584 2181 2584 
Q 1697 2584 1367 2211 
Q 1038 1838 1038 1288 
Q 1038 875 1239 642 
Q 1441 409 1797 409 
Q 2284 409 2611 792 
Q 2938 1175 2938 1728 
z
M 3788 4556 
L 3681 3981 
Q 3500 4100 3265 4162 
Q 3031 4225 2766 4225 
Q 2119 4225 1726 3819 
Q 1334 3413 1141 2547 
Q 1369 2813 1670 2948 
Q 1972 3084 2322 3084 
Q 2894 3084 3233 2754 
Q 3572 2425 3572 1869 
Q 3572 1413 3405 1020 
Q 3238 628 2919 331 
Q 2700 128 2409 18 
Q 2119 -91 1791 -91 
Q 1147 -91 775 318 
Q 403 728 403 1441 
Q 403 2103 573 2717 
Q 744 3331 1050 3781 
Q 1372 4256 1830 4503 
Q 2288 4750 2841 4750 
Q 3084 4750 3321 4701 
Q 3559 4653 3788 4556 
z
" transform="scale(0.015625)"/>
     <path id="DejaVuSans-Oblique-2e" d="M 525 794 
L 1184 794 
L 1031 0 
L 372 0 
L 525 794 
z
" transform="scale(0.015625)"/>
     <path id="DejaVuSans-Oblique-30" d="M 2444 4750 
Q 3078 4750 3414 4328 
Q 3750 3906 3750 3116 
Q 3750 2516 3592 1923 
Q 3434 1331 3150 863 
Q 2859 394 2467 151 
Q 2075 -91 1600 -91 
Q 988 -91 653 334 
Q 319 759 319 1544 
Q 319 2138 480 2733 
Q 641 3328 928 3794 
Q 1216 4263 1602 4506 
Q 1988 4750 2444 4750 
z
M 2406 4250 
Q 2169 4250 1955 4123 
Q 1741 3997 1569 3750 
Q 1281 3338 1111 2720 
Q 941 2103 941 1453 
Q 941 938 1123 673 
Q 1306 409 1663 409 
Q 1913 409 2125 536 
Q 2338 663 2509 909 
Q 2794 1319 2961 1936 
Q 3128 2553 3128 3206 
Q 3128 3722 2945 3986 
Q 2763 4250 2406 4250 
z
" transform="scale(0.015625)"/>
     <path id="DejaVuSans-Oblique-4d" d="M 1081 4666 
L 2028 4666 
L 2572 1522 
L 4378 4666 
L 5350 4666 
L 4441 0 
L 3828 0 
L 4622 4091 
L 2791 897 
L 2175 897 
L 1581 4103 
L 788 0 
L 172 0 
L 1081 4666 
z
" transform="scale(0.015625)"/>
     <path id="DejaVuSans-Oblique-42" d="M 1081 4666 
L 2694 4666 
Q 3350 4666 3675 4422 
Q 4000 4178 4000 3688 
Q 4000 3238 3720 2911 
Q 3441 2584 2988 2516 
Q 3375 2428 3569 2181 
Q 3763 1934 3763 1522 
Q 3763 819 3242 409 
Q 2722 0 1819 0 
L 172 0 
L 1081 4666 
z
M 1234 2228 
L 903 519 
L 1919 519 
Q 2491 519 2800 781 
Q 3109 1044 3109 1522 
Q 3109 1891 2904 2059 
Q 2700 2228 2247 2228 
L 1234 2228 
z
M 1606 4147 
L 1331 2741 
L 2272 2741 
Q 2775 2741 3058 2959 
Q 3341 3178 3341 3566 
Q 3341 3869 3150 4008 
Q 2959 4147 2541 4147 
L 1606 4147 
z
" transform="scale(0.015625)"/>
     <path id="DejaVuSans-Oblique-7c" d="M 1344 4891 
L 1344 -1509 
L 813 -1509 
L 813 4891 
L 1344 4891 
z
" transform="scale(0.015625)"/>
     <path id="DejaVuSans-Oblique-43" d="M 4447 4306 
L 4319 3641 
Q 4019 3944 3683 4091 
Q 3347 4238 2956 4238 
Q 2422 4238 2017 3981 
Q 1613 3725 1319 3200 
Q 1131 2863 1032 2486 
Q 934 2109 934 1728 
Q 934 1091 1264 756 
Q 1594 422 2222 422 
Q 2656 422 3056 561 
Q 3456 700 3834 978 
L 3688 231 
Q 3316 72 2936 -9 
Q 2556 -91 2175 -91 
Q 1278 -91 773 396 
Q 269 884 269 1753 
Q 269 2309 461 2846 
Q 653 3384 1013 3828 
Q 1394 4300 1883 4525 
Q 2372 4750 3022 4750 
Q 3422 4750 3780 4639 
Q 4138 4528 4447 4306 
z
" transform="scale(0.015625)"/>
     <path id="DejaVuSans-Oblique-6f" d="M 1625 -91 
Q 1009 -91 651 289 
Q 294 669 294 1325 
Q 294 1706 417 2101 
Q 541 2497 738 2766 
Q 1047 3184 1428 3384 
Q 1809 3584 2291 3584 
Q 2888 3584 3255 3212 
Q 3622 2841 3622 2241 
Q 3622 1825 3500 1412 
Q 3378 1000 3181 728 
Q 2875 309 2494 109 
Q 2113 -91 1625 -91 
z
M 891 1344 
Q 891 869 1089 633 
Q 1288 397 1691 397 
Q 2269 397 2648 901 
Q 3028 1406 3028 2181 
Q 3028 2634 2825 2865 
Q 2622 3097 2228 3097 
Q 1903 3097 1650 2945 
Q 1397 2794 1197 2484 
Q 1050 2253 970 1956 
Q 891 1659 891 1344 
z
" transform="scale(0.015625)"/>
     <path id="DejaVuSans-Oblique-72" d="M 2853 2969 
Q 2766 3016 2653 3041 
Q 2541 3066 2413 3066 
Q 1953 3066 1609 2717 
Q 1266 2369 1153 1784 
L 800 0 
L 225 0 
L 909 3500 
L 1484 3500 
L 1375 2956 
Q 1603 3259 1920 3421 
Q 2238 3584 2597 3584 
Q 2691 3584 2781 3573 
Q 2872 3563 2963 3538 
L 2853 2969 
z
" transform="scale(0.015625)"/>
     <path id="DejaVuSans-Oblique-64" d="M 2675 525 
Q 2444 222 2128 65 
Q 1813 -91 1428 -91 
Q 903 -91 598 267 
Q 294 625 294 1247 
Q 294 1766 478 2236 
Q 663 2706 1013 3078 
Q 1244 3325 1534 3454 
Q 1825 3584 2144 3584 
Q 2481 3584 2739 3421 
Q 2997 3259 3138 2956 
L 3513 4863 
L 4091 4863 
L 3144 0 
L 2566 0 
L 2675 525 
z
M 891 1350 
Q 891 897 1095 644 
Q 1300 391 1663 391 
Q 1931 391 2161 520 
Q 2391 650 2566 903 
Q 2750 1166 2856 1509 
Q 2963 1853 2963 2188 
Q 2963 2622 2758 2865 
Q 2553 3109 2194 3109 
Q 1922 3109 1687 2981 
Q 1453 2853 1288 2613 
Q 1106 2353 998 2009 
Q 891 1666 891 1350 
z
" transform="scale(0.015625)"/>
     <path id="DejaVuSans-Oblique-69" d="M 1172 4863 
L 1747 4863 
L 1606 4134 
L 1031 4134 
L 1172 4863 
z
M 909 3500 
L 1484 3500 
L 800 0 
L 225 0 
L 909 3500 
z
" transform="scale(0.015625)"/>
     <path id="DejaVuSans-Oblique-6e" d="M 3566 2113 
L 3156 0 
L 2578 0 
L 2988 2091 
Q 3016 2238 3031 2350 
Q 3047 2463 3047 2528 
Q 3047 2791 2881 2937 
Q 2716 3084 2419 3084 
Q 1956 3084 1622 2776 
Q 1288 2469 1184 1941 
L 800 0 
L 225 0 
L 903 3500 
L 1478 3500 
L 1363 2950 
Q 1603 3253 1940 3418 
Q 2278 3584 2650 3584 
Q 3113 3584 3367 3334 
Q 3622 3084 3622 2631 
Q 3622 2519 3608 2391 
Q 3594 2263 3566 2113 
z
" transform="scale(0.015625)"/>
     <path id="DejaVuSans-Oblique-31" d="M 416 531 
L 1447 531 
L 2144 4122 
L 978 3897 
L 1088 4441 
L 2247 4666 
L 2881 4666 
L 2075 531 
L 3103 531 
L 3003 0 
L 313 0 
L 416 531 
z
" transform="scale(0.015625)"/>
     <path id="DejaVuSans-Oblique-6c" d="M 1172 4863 
L 1747 4863 
L 800 0 
L 225 0 
L 1172 4863 
z
" transform="scale(0.015625)"/>
     <path id="DejaVuSans-Oblique-75" d="M 428 1388 
L 838 3500 
L 1416 3500 
L 1006 1409 
Q 975 1256 961 1147 
Q 947 1038 947 966 
Q 947 700 1109 554 
Q 1272 409 1569 409 
Q 2031 409 2368 721 
Q 2706 1034 2809 1563 
L 3194 3500 
L 3769 3500 
L 3091 0 
L 2516 0 
L 2631 550 
Q 2388 244 2052 76 
Q 1716 -91 1338 -91 
Q 878 -91 622 161 
Q 366 413 366 863 
Q 366 956 381 1097 
Q 397 1238 428 1388 
z
" transform="scale(0.015625)"/>
     <path id="DejaVuSans-Oblique-33" d="M 1013 4550 
Q 1356 4650 1679 4700 
Q 2003 4750 2316 4750 
Q 2934 4750 3296 4475 
Q 3659 4200 3659 3738 
Q 3659 3284 3373 2959 
Q 3088 2634 2584 2516 
Q 2978 2403 3162 2165 
Q 3347 1928 3347 1538 
Q 3347 1163 3167 834 
Q 2988 506 2650 269 
Q 2394 88 2037 -1 
Q 1681 -91 1216 -91 
Q 922 -91 622 -33 
Q 322 25 13 141 
L 128 738 
Q 422 575 720 495 
Q 1019 416 1331 416 
Q 1947 416 2330 733 
Q 2713 1050 2713 1556 
Q 2713 1881 2469 2057 
Q 2225 2234 1772 2234 
L 1228 2234 
L 1325 2747 
L 1900 2747 
Q 2419 2747 2717 2984 
Q 3016 3222 3016 3628 
Q 3016 3922 2797 4083 
Q 2578 4244 2181 4244 
Q 1881 4244 1567 4180 
Q 1253 4116 916 3988 
L 1013 4550 
z
" transform="scale(0.015625)"/>
    </defs>
    <use xlink:href="#DejaVuSans-Oblique-44"/>
    <use xlink:href="#DejaVuSans-Oblique-61" transform="translate(77.001953 0)"/>
    <use xlink:href="#DejaVuSans-Oblique-74" transform="translate(138.28125 0)"/>
    <use xlink:href="#DejaVuSans-Oblique-61" transform="translate(177.490234 0)"/>
    <use xlink:href="#DejaVuSans-Oblique-73" transform="translate(238.769531 0)"/>
    <use xlink:href="#DejaVuSans-Oblique-65" transform="translate(290.869141 0)"/>
    <use xlink:href="#DejaVuSans-Oblique-74" transform="translate(352.392578 0)"/>
    <use xlink:href="#DejaVuSans-Oblique-3a" transform="translate(391.601562 0)"/>
    <use xlink:href="#DejaVuSans-Oblique-20" transform="translate(425.292969 0)"/>
    <use xlink:href="#DejaVuSans-Oblique-32" transform="translate(457.080078 0)"/>
    <use xlink:href="#DejaVuSans-Oblique-35" transform="translate(520.703125 0)"/>
    <use xlink:href="#DejaVuSans-Oblique-36" transform="translate(584.326172 0)"/>
    <use xlink:href="#DejaVuSans-Oblique-2e" transform="translate(647.949219 0)"/>
    <use xlink:href="#DejaVuSans-Oblique-30" transform="translate(679.736328 0)"/>
    <use xlink:href="#DejaVuSans-Oblique-30" transform="translate(743.359375 0)"/>
    <use xlink:href="#DejaVuSans-Oblique-20" transform="translate(806.982422 0)"/>
    <use xlink:href="#DejaVuSans-Oblique-4d" transform="translate(838.769531 0)"/>
    <use xlink:href="#DejaVuSans-Oblique-42" transform="translate(925.048828 0)"/>
    <use xlink:href="#DejaVuSans-Oblique-20" transform="translate(993.652344 0)"/>
    <use xlink:href="#DejaVuSans-Oblique-20" transform="translate(1025.439453 0)"/>
    <use xlink:href="#DejaVuSans-Oblique-7c" transform="translate(1057.226562 0)"/>
    <use xlink:href="#DejaVuSans-Oblique-20" transform="translate(1090.917969 0)"/>
    <use xlink:href="#DejaVuSans-Oblique-20" transform="translate(1122.705078 0)"/>
    <use xlink:href="#DejaVuSans-Oblique-43" transform="translate(1154.492188 0)"/>
    <use xlink:href="#DejaVuSans-Oblique-6f" transform="translate(1224.316406 0)"/>
    <use xlink:href="#DejaVuSans-Oblique-6f" transform="translate(1285.498047 0)"/>
    <use xlink:href="#DejaVuSans-Oblique-72" transform="translate(1346.679688 0)"/>
    <use xlink:href="#DejaVuSans-Oblique-64" transform="translate(1387.792969 0)"/>
    <use xlink:href="#DejaVuSans-Oblique-69" transform="translate(1451.269531 0)"/>
    <use xlink:href="#DejaVuSans-Oblique-6e" transform="translate(1479.052734 0)"/>
    <use xlink:href="#DejaVuSans-Oblique-61" transform="translate(1542.431641 0)"/>
    <use xlink:href="#DejaVuSans-Oblique-74" transform="translate(1603.710938 0)"/>
    <use xlink:href="#DejaVuSans-Oblique-65" transform="translate(1642.919922 0)"/>
    <use xlink:href="#DejaVuSans-Oblique-73" transform="translate(1704.443359 0)"/>
    <use xlink:href="#DejaVuSans-Oblique-3a" transform="translate(1756.542969 0)"/>
    <use xlink:href="#DejaVuSans-Oblique-20" transform="translate(1790.234375 0)"/>
    <use xlink:href="#DejaVuSans-Oblique-31" transform="translate(1822.021484 0)"/>
    <use xlink:href="#DejaVuSans-Oblique-36" transform="translate(1885.644531 0)"/>
    <use xlink:href="#DejaVuSans-Oblique-20" transform="translate(1949.267578 0)"/>
    <use xlink:href="#DejaVuSans-Oblique-20" transform="translate(1981.054688 0)"/>
    <use xlink:href="#DejaVuSans-Oblique-7c" transform="translate(2012.841797 0)"/>
    <use xlink:href="#DejaVuSans-Oblique-20" transform="translate(2046.533203 0)"/>
    <use xlink:href="#DejaVuSans-Oblique-20" transform="translate(2078.320312 0)"/>
    <use xlink:href="#DejaVuSans-Oblique-43" transform="translate(2110.107422 0)"/>
    <use xlink:href="#DejaVuSans-Oblique-6c" transform="translate(2179.931641 0)"/>
    <use xlink:href="#DejaVuSans-Oblique-75" transform="translate(2207.714844 0)"/>
    <use xlink:href="#DejaVuSans-Oblique-73" transform="translate(2271.09375 0)"/>
    <use xlink:href="#DejaVuSans-Oblique-74" transform="translate(2323.193359 0)"/>
    <use xlink:href="#DejaVuSans-Oblique-65" transform="translate(2362.402344 0)"/>
    <use xlink:href="#DejaVuSans-Oblique-72" transform="translate(2423.925781 0)"/>
    <use xlink:href="#DejaVuSans-Oblique-73" transform="translate(2465.039062 0)"/>
    <use xlink:href="#DejaVuSans-Oblique-3a" transform="translate(2517.138672 0)"/>
    <use xlink:href="#DejaVuSans-Oblique-20" transform="translate(2550.830078 0)"/>
    <use xlink:href="#DejaVuSans-Oblique-33" transform="translate(2582.617188 0)"/>
    <use xlink:href="#DejaVuSans-Oblique-32" transform="translate(2646.240234 0)"/>
   </g>
  </g>
 </g>
 <defs>
  <clipPath id="p6244d1522e">
   <rect x="40.603125" y="22.318125" width="669.6" height="328.32"/>
  </clipPath>
 </defs>
</svg>
