<?xml version="1.0" encoding="utf-8" standalone="no"?>
<!DOCTYPE svg PUBLIC "-//W3C//DTD SVG 1.1//EN"
  "http://www.w3.org/Graphics/SVG/1.1/DTD/svg11.dtd">
<svg xmlns:xlink="http://www.w3.org/1999/xlink" width="1286.752008pt" height="351.339875pt" viewBox="0 0 1286.752008 351.339875" xmlns="http://www.w3.org/2000/svg" version="1.1">
 <metadata>
  <rdf:RDF xmlns:dc="http://purl.org/dc/elements/1.1/" xmlns:cc="http://creativecommons.org/ns#" xmlns:rdf="http://www.w3.org/1999/02/22-rdf-syntax-ns#">
   <cc:Work>
    <dc:type rdf:resource="http://purl.org/dc/dcmitype/StillImage"/>
    <dc:date>2026-01-21T19:12:16.813287</dc:date>
    <dc:format>image/svg+xml</dc:format>
    <dc:creator>
     <cc:Agent>
      <dc:title>Matplotlib v3.10.7, https://matplotlib.org/</dc:title>
     </cc:Agent>
    </dc:creator>
   </cc:Work>
  </rdf:RDF>
 </metadata>
 <defs>
  <style type="text/css">*{stroke-linejoin: round; stroke-linecap: butt}</style>
 </defs>
 <g id="figure_1">
  <g id="patch_1">
   <path d="M 0 351.339875 
L 1286.752008 351.339875 
L 1286.752008 0 
L 0 0 
z
" style="fill: #ffffff"/>
  </g>
  <g id="axes_1">
   <g id="patch_2">
    <path d="M 41.01375 311.848 
L 422.752008 311.848 
L 422.752008 51.36 
L 41.01375 51.36 
z
" style="fill: #ffffff"/>
   </g>
   <g id="matplotlib.axis_1">
    <g id="xtick_1">
     <g id="line2d_1">
      <path d="M 58.365489 311.848 
L 58.365489 51.36 
" clip-path="url(#p50f2b64410)" style="fill: none; stroke-dasharray: 2.96,1.28; stroke-dashoffset: 0; stroke: #b0b0b0; stroke-opacity: 0.4; stroke-width: 0.8"/>
     </g>
     <g id="line2d_2">
      <defs>
       <path id="m3698c81d77" d="M 0 0 
L 0 3.5 
" style="stroke: #000000; stroke-width: 0.8"/>
      </defs>
      <g>
       <use xlink:href="#m3698c81d77" x="58.365489" y="311.848" style="stroke: #000000; stroke-width: 0.8"/>
      </g>
     </g>
     <g id="text_1">
      <!-- $\mathdefault{2^{0}}$ -->
      <g transform="translate(52.765489 326.446437) scale(0.1 -0.1)">
       <defs>
        <path id="DejaVuSans-32" d="M 1228 531 
L 3431 531 
L 3431 0 
L 469 0 
L 469 531 
Q 828 903 1448 1529 
Q 2069 2156 2228 2338 
Q 2531 2678 2651 2914 
Q 2772 3150 2772 3378 
Q 2772 3750 2511 3984 
Q 2250 4219 1831 4219 
Q 1534 4219 1204 4116 
Q 875 4013 500 3803 
L 500 4441 
Q 881 4594 1212 4672 
Q 1544 4750 1819 4750 
Q 2544 4750 2975 4387 
Q 3406 4025 3406 3419 
Q 3406 3131 3298 2873 
Q 3191 2616 2906 2266 
Q 2828 2175 2409 1742 
Q 1991 1309 1228 531 
z
" transform="scale(0.015625)"/>
        <path id="DejaVuSans-30" d="M 2034 4250 
Q 1547 4250 1301 3770 
Q 1056 3291 1056 2328 
Q 1056 1369 1301 889 
Q 1547 409 2034 409 
Q 2525 409 2770 889 
Q 3016 1369 3016 2328 
Q 3016 3291 2770 3770 
Q 2525 4250 2034 4250 
z
M 2034 4750 
Q 2819 4750 3233 4129 
Q 3647 3509 3647 2328 
Q 3647 1150 3233 529 
Q 2819 -91 2034 -91 
Q 1250 -91 836 529 
Q 422 1150 422 2328 
Q 422 3509 836 4129 
Q 1250 4750 2034 4750 
z
" transform="scale(0.015625)"/>
       </defs>
       <use xlink:href="#DejaVuSans-32" transform="translate(0 0.765625)"/>
       <use xlink:href="#DejaVuSans-30" transform="translate(64.580078 39.046875) scale(0.7)"/>
      </g>
     </g>
    </g>
    <g id="xtick_2">
     <g id="line2d_3">
      <path d="M 116.204619 311.848 
L 116.204619 51.36 
" clip-path="url(#p50f2b64410)" style="fill: none; stroke-dasharray: 2.96,1.28; stroke-dashoffset: 0; stroke: #b0b0b0; stroke-opacity: 0.4; stroke-width: 0.8"/>
     </g>
     <g id="line2d_4">
      <g>
       <use xlink:href="#m3698c81d77" x="116.204619" y="311.848" style="stroke: #000000; stroke-width: 0.8"/>
      </g>
     </g>
     <g id="text_2">
      <!-- $\mathdefault{2^{1}}$ -->
      <g transform="translate(110.604619 326.446437) scale(0.1 -0.1)">
       <defs>
        <path id="DejaVuSans-31" d="M 794 531 
L 1825 531 
L 1825 4091 
L 703 3866 
L 703 4441 
L 1819 4666 
L 2450 4666 
L 2450 531 
L 3481 531 
L 3481 0 
L 794 0 
L 794 531 
z
" transform="scale(0.015625)"/>
       </defs>
       <use xlink:href="#DejaVuSans-32" transform="translate(0 0.684375)"/>
       <use xlink:href="#DejaVuSans-31" transform="translate(64.580078 38.965625) scale(0.7)"/>
      </g>
     </g>
    </g>
    <g id="xtick_3">
     <g id="line2d_5">
      <path d="M 174.043749 311.848 
L 174.043749 51.36 
" clip-path="url(#p50f2b64410)" style="fill: none; stroke-dasharray: 2.96,1.28; stroke-dashoffset: 0; stroke: #b0b0b0; stroke-opacity: 0.4; stroke-width: 0.8"/>
     </g>
     <g id="line2d_6">
      <g>
       <use xlink:href="#m3698c81d77" x="174.043749" y="311.848" style="stroke: #000000; stroke-width: 0.8"/>
      </g>
     </g>
     <g id="text_3">
      <!-- $\mathdefault{2^{2}}$ -->
      <g transform="translate(168.443749 326.446437) scale(0.1 -0.1)">
       <use xlink:href="#DejaVuSans-32" transform="translate(0 0.765625)"/>
       <use xlink:href="#DejaVuSans-32" transform="translate(64.580078 39.046875) scale(0.7)"/>
      </g>
     </g>
    </g>
    <g id="xtick_4">
     <g id="line2d_7">
      <path d="M 231.882879 311.848 
L 231.882879 51.36 
" clip-path="url(#p50f2b64410)" style="fill: none; stroke-dasharray: 2.96,1.28; stroke-dashoffset: 0; stroke: #b0b0b0; stroke-opacity: 0.4; stroke-width: 0.8"/>
     </g>
     <g id="line2d_8">
      <g>
       <use xlink:href="#m3698c81d77" x="231.882879" y="311.848" style="stroke: #000000; stroke-width: 0.8"/>
      </g>
     </g>
     <g id="text_4">
      <!-- $\mathdefault{2^{3}}$ -->
      <g transform="translate(226.282879 326.446437) scale(0.1 -0.1)">
       <defs>
        <path id="DejaVuSans-33" d="M 2597 2516 
Q 3050 2419 3304 2112 
Q 3559 1806 3559 1356 
Q 3559 666 3084 287 
Q 2609 -91 1734 -91 
Q 1441 -91 1130 -33 
Q 819 25 488 141 
L 488 750 
Q 750 597 1062 519 
Q 1375 441 1716 441 
Q 2309 441 2620 675 
Q 2931 909 2931 1356 
Q 2931 1769 2642 2001 
Q 2353 2234 1838 2234 
L 1294 2234 
L 1294 2753 
L 1863 2753 
Q 2328 2753 2575 2939 
Q 2822 3125 2822 3475 
Q 2822 3834 2567 4026 
Q 2313 4219 1838 4219 
Q 1578 4219 1281 4162 
Q 984 4106 628 3988 
L 628 4550 
Q 988 4650 1302 4700 
Q 1616 4750 1894 4750 
Q 2613 4750 3031 4423 
Q 3450 4097 3450 3541 
Q 3450 3153 3228 2886 
Q 3006 2619 2597 2516 
z
" transform="scale(0.015625)"/>
       </defs>
       <use xlink:href="#DejaVuSans-32" transform="translate(0 0.765625)"/>
       <use xlink:href="#DejaVuSans-33" transform="translate(64.580078 39.046875) scale(0.7)"/>
      </g>
     </g>
    </g>
    <g id="xtick_5">
     <g id="line2d_9">
      <path d="M 289.722009 311.848 
L 289.722009 51.36 
" clip-path="url(#p50f2b64410)" style="fill: none; stroke-dasharray: 2.96,1.28; stroke-dashoffset: 0; stroke: #b0b0b0; stroke-opacity: 0.4; stroke-width: 0.8"/>
     </g>
     <g id="line2d_10">
      <g>
       <use xlink:href="#m3698c81d77" x="289.722009" y="311.848" style="stroke: #000000; stroke-width: 0.8"/>
      </g>
     </g>
     <g id="text_5">
      <!-- $\mathdefault{2^{4}}$ -->
      <g transform="translate(284.122009 326.446437) scale(0.1 -0.1)">
       <defs>
        <path id="DejaVuSans-34" d="M 2419 4116 
L 825 1625 
L 2419 1625 
L 2419 4116 
z
M 2253 4666 
L 3047 4666 
L 3047 1625 
L 3713 1625 
L 3713 1100 
L 3047 1100 
L 3047 0 
L 2419 0 
L 2419 1100 
L 313 1100 
L 313 1709 
L 2253 4666 
z
" transform="scale(0.015625)"/>
       </defs>
       <use xlink:href="#DejaVuSans-32" transform="translate(0 0.684375)"/>
       <use xlink:href="#DejaVuSans-34" transform="translate(64.580078 38.965625) scale(0.7)"/>
      </g>
     </g>
    </g>
    <g id="xtick_6">
     <g id="line2d_11">
      <path d="M 347.561139 311.848 
L 347.561139 51.36 
" clip-path="url(#p50f2b64410)" style="fill: none; stroke-dasharray: 2.96,1.28; stroke-dashoffset: 0; stroke: #b0b0b0; stroke-opacity: 0.4; stroke-width: 0.8"/>
     </g>
     <g id="line2d_12">
      <g>
       <use xlink:href="#m3698c81d77" x="347.561139" y="311.848" style="stroke: #000000; stroke-width: 0.8"/>
      </g>
     </g>
     <g id="text_6">
      <!-- $\mathdefault{2^{5}}$ -->
      <g transform="translate(341.961139 326.446437) scale(0.1 -0.1)">
       <defs>
        <path id="DejaVuSans-35" d="M 691 4666 
L 3169 4666 
L 3169 4134 
L 1269 4134 
L 1269 2991 
Q 1406 3038 1543 3061 
Q 1681 3084 1819 3084 
Q 2600 3084 3056 2656 
Q 3513 2228 3513 1497 
Q 3513 744 3044 326 
Q 2575 -91 1722 -91 
Q 1428 -91 1123 -41 
Q 819 9 494 109 
L 494 744 
Q 775 591 1075 516 
Q 1375 441 1709 441 
Q 2250 441 2565 725 
Q 2881 1009 2881 1497 
Q 2881 1984 2565 2268 
Q 2250 2553 1709 2553 
Q 1456 2553 1204 2497 
Q 953 2441 691 2322 
L 691 4666 
z
" transform="scale(0.015625)"/>
       </defs>
       <use xlink:href="#DejaVuSans-32" transform="translate(0 0.684375)"/>
       <use xlink:href="#DejaVuSans-35" transform="translate(64.580078 38.965625) scale(0.7)"/>
      </g>
     </g>
    </g>
    <g id="xtick_7">
     <g id="line2d_13">
      <path d="M 405.400269 311.848 
L 405.400269 51.36 
" clip-path="url(#p50f2b64410)" style="fill: none; stroke-dasharray: 2.96,1.28; stroke-dashoffset: 0; stroke: #b0b0b0; stroke-opacity: 0.4; stroke-width: 0.8"/>
     </g>
     <g id="line2d_14">
      <g>
       <use xlink:href="#m3698c81d77" x="405.400269" y="311.848" style="stroke: #000000; stroke-width: 0.8"/>
      </g>
     </g>
     <g id="text_7">
      <!-- $\mathdefault{2^{6}}$ -->
      <g transform="translate(399.800269 326.446437) scale(0.1 -0.1)">
       <defs>
        <path id="DejaVuSans-36" d="M 2113 2584 
Q 1688 2584 1439 2293 
Q 1191 2003 1191 1497 
Q 1191 994 1439 701 
Q 1688 409 2113 409 
Q 2538 409 2786 701 
Q 3034 994 3034 1497 
Q 3034 2003 2786 2293 
Q 2538 2584 2113 2584 
z
M 3366 4563 
L 3366 3988 
Q 3128 4100 2886 4159 
Q 2644 4219 2406 4219 
Q 1781 4219 1451 3797 
Q 1122 3375 1075 2522 
Q 1259 2794 1537 2939 
Q 1816 3084 2150 3084 
Q 2853 3084 3261 2657 
Q 3669 2231 3669 1497 
Q 3669 778 3244 343 
Q 2819 -91 2113 -91 
Q 1303 -91 875 529 
Q 447 1150 447 2328 
Q 447 3434 972 4092 
Q 1497 4750 2381 4750 
Q 2619 4750 2861 4703 
Q 3103 4656 3366 4563 
z
" transform="scale(0.015625)"/>
       </defs>
       <use xlink:href="#DejaVuSans-32" transform="translate(0 0.765625)"/>
       <use xlink:href="#DejaVuSans-36" transform="translate(64.580078 39.046875) scale(0.7)"/>
      </g>
     </g>
    </g>
    <g id="text_8">
     <!-- Number of MPI Processes -->
     <g transform="translate(145.527879 341.64425) scale(0.12 -0.12)">
      <defs>
       <path id="DejaVuSans-Bold-4e" d="M 588 4666 
L 1931 4666 
L 3628 1466 
L 3628 4666 
L 4769 4666 
L 4769 0 
L 3425 0 
L 1728 3200 
L 1728 0 
L 588 0 
L 588 4666 
z
" transform="scale(0.015625)"/>
       <path id="DejaVuSans-Bold-75" d="M 500 1363 
L 500 3500 
L 1625 3500 
L 1625 3150 
Q 1625 2866 1622 2436 
Q 1619 2006 1619 1863 
Q 1619 1441 1641 1255 
Q 1663 1069 1716 984 
Q 1784 875 1895 815 
Q 2006 756 2150 756 
Q 2500 756 2700 1025 
Q 2900 1294 2900 1772 
L 2900 3500 
L 4019 3500 
L 4019 0 
L 2900 0 
L 2900 506 
Q 2647 200 2364 54 
Q 2081 -91 1741 -91 
Q 1134 -91 817 281 
Q 500 653 500 1363 
z
" transform="scale(0.015625)"/>
       <path id="DejaVuSans-Bold-6d" d="M 3781 2919 
Q 3994 3244 4286 3414 
Q 4578 3584 4928 3584 
Q 5531 3584 5847 3212 
Q 6163 2841 6163 2131 
L 6163 0 
L 5038 0 
L 5038 1825 
Q 5041 1866 5042 1909 
Q 5044 1953 5044 2034 
Q 5044 2406 4934 2573 
Q 4825 2741 4581 2741 
Q 4263 2741 4089 2478 
Q 3916 2216 3909 1719 
L 3909 0 
L 2784 0 
L 2784 1825 
Q 2784 2406 2684 2573 
Q 2584 2741 2328 2741 
Q 2006 2741 1831 2477 
Q 1656 2213 1656 1722 
L 1656 0 
L 531 0 
L 531 3500 
L 1656 3500 
L 1656 2988 
Q 1863 3284 2130 3434 
Q 2397 3584 2719 3584 
Q 3081 3584 3359 3409 
Q 3638 3234 3781 2919 
z
" transform="scale(0.015625)"/>
       <path id="DejaVuSans-Bold-62" d="M 2400 722 
Q 2759 722 2948 984 
Q 3138 1247 3138 1747 
Q 3138 2247 2948 2509 
Q 2759 2772 2400 2772 
Q 2041 2772 1848 2508 
Q 1656 2244 1656 1747 
Q 1656 1250 1848 986 
Q 2041 722 2400 722 
z
M 1656 2988 
Q 1888 3294 2169 3439 
Q 2450 3584 2816 3584 
Q 3463 3584 3878 3070 
Q 4294 2556 4294 1747 
Q 4294 938 3878 423 
Q 3463 -91 2816 -91 
Q 2450 -91 2169 54 
Q 1888 200 1656 506 
L 1656 0 
L 538 0 
L 538 4863 
L 1656 4863 
L 1656 2988 
z
" transform="scale(0.015625)"/>
       <path id="DejaVuSans-Bold-65" d="M 4031 1759 
L 4031 1441 
L 1416 1441 
Q 1456 1047 1700 850 
Q 1944 653 2381 653 
Q 2734 653 3104 758 
Q 3475 863 3866 1075 
L 3866 213 
Q 3469 63 3072 -14 
Q 2675 -91 2278 -91 
Q 1328 -91 801 392 
Q 275 875 275 1747 
Q 275 2603 792 3093 
Q 1309 3584 2216 3584 
Q 3041 3584 3536 3087 
Q 4031 2591 4031 1759 
z
M 2881 2131 
Q 2881 2450 2695 2645 
Q 2509 2841 2209 2841 
Q 1884 2841 1681 2658 
Q 1478 2475 1428 2131 
L 2881 2131 
z
" transform="scale(0.015625)"/>
       <path id="DejaVuSans-Bold-72" d="M 3138 2547 
Q 2991 2616 2845 2648 
Q 2700 2681 2553 2681 
Q 2122 2681 1889 2404 
Q 1656 2128 1656 1613 
L 1656 0 
L 538 0 
L 538 3500 
L 1656 3500 
L 1656 2925 
Q 1872 3269 2151 3426 
Q 2431 3584 2822 3584 
Q 2878 3584 2943 3579 
Q 3009 3575 3134 3559 
L 3138 2547 
z
" transform="scale(0.015625)"/>
       <path id="DejaVuSans-Bold-20" transform="scale(0.015625)"/>
       <path id="DejaVuSans-Bold-6f" d="M 2203 2784 
Q 1831 2784 1636 2517 
Q 1441 2250 1441 1747 
Q 1441 1244 1636 976 
Q 1831 709 2203 709 
Q 2569 709 2762 976 
Q 2956 1244 2956 1747 
Q 2956 2250 2762 2517 
Q 2569 2784 2203 2784 
z
M 2203 3584 
Q 3106 3584 3614 3096 
Q 4122 2609 4122 1747 
Q 4122 884 3614 396 
Q 3106 -91 2203 -91 
Q 1297 -91 786 396 
Q 275 884 275 1747 
Q 275 2609 786 3096 
Q 1297 3584 2203 3584 
z
" transform="scale(0.015625)"/>
       <path id="DejaVuSans-Bold-66" d="M 2841 4863 
L 2841 4128 
L 2222 4128 
Q 1984 4128 1890 4042 
Q 1797 3956 1797 3744 
L 1797 3500 
L 2753 3500 
L 2753 2700 
L 1797 2700 
L 1797 0 
L 678 0 
L 678 2700 
L 122 2700 
L 122 3500 
L 678 3500 
L 678 3744 
Q 678 4316 997 4589 
Q 1316 4863 1984 4863 
L 2841 4863 
z
" transform="scale(0.015625)"/>
       <path id="DejaVuSans-Bold-4d" d="M 588 4666 
L 2119 4666 
L 3181 2169 
L 4250 4666 
L 5778 4666 
L 5778 0 
L 4641 0 
L 4641 3413 
L 3566 897 
L 2803 897 
L 1728 3413 
L 1728 0 
L 588 0 
L 588 4666 
z
" transform="scale(0.015625)"/>
       <path id="DejaVuSans-Bold-50" d="M 588 4666 
L 2584 4666 
Q 3475 4666 3951 4270 
Q 4428 3875 4428 3144 
Q 4428 2409 3951 2014 
Q 3475 1619 2584 1619 
L 1791 1619 
L 1791 0 
L 588 0 
L 588 4666 
z
M 1791 3794 
L 1791 2491 
L 2456 2491 
Q 2806 2491 2997 2661 
Q 3188 2831 3188 3144 
Q 3188 3456 2997 3625 
Q 2806 3794 2456 3794 
L 1791 3794 
z
" transform="scale(0.015625)"/>
       <path id="DejaVuSans-Bold-49" d="M 588 4666 
L 1791 4666 
L 1791 0 
L 588 0 
L 588 4666 
z
" transform="scale(0.015625)"/>
       <path id="DejaVuSans-Bold-63" d="M 3366 3391 
L 3366 2478 
Q 3138 2634 2908 2709 
Q 2678 2784 2431 2784 
Q 1963 2784 1702 2511 
Q 1441 2238 1441 1747 
Q 1441 1256 1702 982 
Q 1963 709 2431 709 
Q 2694 709 2930 787 
Q 3166 866 3366 1019 
L 3366 103 
Q 3103 6 2833 -42 
Q 2563 -91 2291 -91 
Q 1344 -91 809 395 
Q 275 881 275 1747 
Q 275 2613 809 3098 
Q 1344 3584 2291 3584 
Q 2566 3584 2833 3536 
Q 3100 3488 3366 3391 
z
" transform="scale(0.015625)"/>
       <path id="DejaVuSans-Bold-73" d="M 3272 3391 
L 3272 2541 
Q 2913 2691 2578 2766 
Q 2244 2841 1947 2841 
Q 1628 2841 1473 2761 
Q 1319 2681 1319 2516 
Q 1319 2381 1436 2309 
Q 1553 2238 1856 2203 
L 2053 2175 
Q 2913 2066 3209 1816 
Q 3506 1566 3506 1031 
Q 3506 472 3093 190 
Q 2681 -91 1863 -91 
Q 1516 -91 1145 -36 
Q 775 19 384 128 
L 384 978 
Q 719 816 1070 734 
Q 1422 653 1784 653 
Q 2113 653 2278 743 
Q 2444 834 2444 1013 
Q 2444 1163 2330 1236 
Q 2216 1309 1875 1350 
L 1678 1375 
Q 931 1469 631 1722 
Q 331 1975 331 2491 
Q 331 3047 712 3315 
Q 1094 3584 1881 3584 
Q 2191 3584 2531 3537 
Q 2872 3491 3272 3391 
z
" transform="scale(0.015625)"/>
      </defs>
      <use xlink:href="#DejaVuSans-Bold-4e"/>
      <use xlink:href="#DejaVuSans-Bold-75" transform="translate(83.691406 0)"/>
      <use xlink:href="#DejaVuSans-Bold-6d" transform="translate(154.882812 0)"/>
      <use xlink:href="#DejaVuSans-Bold-62" transform="translate(259.082031 0)"/>
      <use xlink:href="#DejaVuSans-Bold-65" transform="translate(330.664062 0)"/>
      <use xlink:href="#DejaVuSans-Bold-72" transform="translate(398.486328 0)"/>
      <use xlink:href="#DejaVuSans-Bold-20" transform="translate(447.802734 0)"/>
      <use xlink:href="#DejaVuSans-Bold-6f" transform="translate(482.617188 0)"/>
      <use xlink:href="#DejaVuSans-Bold-66" transform="translate(551.318359 0)"/>
      <use xlink:href="#DejaVuSans-Bold-20" transform="translate(594.824219 0)"/>
      <use xlink:href="#DejaVuSans-Bold-4d" transform="translate(629.638672 0)"/>
      <use xlink:href="#DejaVuSans-Bold-50" transform="translate(729.150391 0)"/>
      <use xlink:href="#DejaVuSans-Bold-49" transform="translate(802.441406 0)"/>
      <use xlink:href="#DejaVuSans-Bold-20" transform="translate(839.648438 0)"/>
      <use xlink:href="#DejaVuSans-Bold-50" transform="translate(874.462891 0)"/>
      <use xlink:href="#DejaVuSans-Bold-72" transform="translate(947.753906 0)"/>
      <use xlink:href="#DejaVuSans-Bold-6f" transform="translate(997.070312 0)"/>
      <use xlink:href="#DejaVuSans-Bold-63" transform="translate(1065.771484 0)"/>
      <use xlink:href="#DejaVuSans-Bold-65" transform="translate(1125.048828 0)"/>
      <use xlink:href="#DejaVuSans-Bold-73" transform="translate(1192.871094 0)"/>
      <use xlink:href="#DejaVuSans-Bold-73" transform="translate(1252.392578 0)"/>
      <use xlink:href="#DejaVuSans-Bold-65" transform="translate(1311.914062 0)"/>
      <use xlink:href="#DejaVuSans-Bold-73" transform="translate(1379.736328 0)"/>
     </g>
    </g>
   </g>
   <g id="matplotlib.axis_2">
    <g id="ytick_1">
     <g id="line2d_15">
      <path d="M 41.01375 293.403272 
L 422.752008 293.403272 
" clip-path="url(#p50f2b64410)" style="fill: none; stroke-dasharray: 2.96,1.28; stroke-dashoffset: 0; stroke: #b0b0b0; stroke-opacity: 0.4; stroke-width: 0.8"/>
     </g>
     <g id="line2d_16">
      <defs>
       <path id="m8761097526" d="M 0 0 
L -3.5 0 
" style="stroke: #000000; stroke-width: 0.8"/>
      </defs>
      <g>
       <use xlink:href="#m8761097526" x="41.01375" y="293.403272" style="stroke: #000000; stroke-width: 0.8"/>
      </g>
     </g>
     <g id="text_9">
      <!-- $\mathdefault{2^{0}}$ -->
      <g transform="translate(22.81375 297.202491) scale(0.1 -0.1)">
       <use xlink:href="#DejaVuSans-32" transform="translate(0 0.765625)"/>
       <use xlink:href="#DejaVuSans-30" transform="translate(64.580078 39.046875) scale(0.7)"/>
      </g>
     </g>
    </g>
    <g id="ytick_2">
     <g id="line2d_17">
      <path d="M 41.01375 255.036121 
L 422.752008 255.036121 
" clip-path="url(#p50f2b64410)" style="fill: none; stroke-dasharray: 2.96,1.28; stroke-dashoffset: 0; stroke: #b0b0b0; stroke-opacity: 0.4; stroke-width: 0.8"/>
     </g>
     <g id="line2d_18">
      <g>
       <use xlink:href="#m8761097526" x="41.01375" y="255.036121" style="stroke: #000000; stroke-width: 0.8"/>
      </g>
     </g>
     <g id="text_10">
      <!-- $\mathdefault{2^{1}}$ -->
      <g transform="translate(22.81375 258.835339) scale(0.1 -0.1)">
       <use xlink:href="#DejaVuSans-32" transform="translate(0 0.684375)"/>
       <use xlink:href="#DejaVuSans-31" transform="translate(64.580078 38.965625) scale(0.7)"/>
      </g>
     </g>
    </g>
    <g id="ytick_3">
     <g id="line2d_19">
      <path d="M 41.01375 216.668969 
L 422.752008 216.668969 
" clip-path="url(#p50f2b64410)" style="fill: none; stroke-dasharray: 2.96,1.28; stroke-dashoffset: 0; stroke: #b0b0b0; stroke-opacity: 0.4; stroke-width: 0.8"/>
     </g>
     <g id="line2d_20">
      <g>
       <use xlink:href="#m8761097526" x="41.01375" y="216.668969" style="stroke: #000000; stroke-width: 0.8"/>
      </g>
     </g>
     <g id="text_11">
      <!-- $\mathdefault{2^{2}}$ -->
      <g transform="translate(22.81375 220.468188) scale(0.1 -0.1)">
       <use xlink:href="#DejaVuSans-32" transform="translate(0 0.765625)"/>
       <use xlink:href="#DejaVuSans-32" transform="translate(64.580078 39.046875) scale(0.7)"/>
      </g>
     </g>
    </g>
    <g id="ytick_4">
     <g id="line2d_21">
      <path d="M 41.01375 178.301818 
L 422.752008 178.301818 
" clip-path="url(#p50f2b64410)" style="fill: none; stroke-dasharray: 2.96,1.28; stroke-dashoffset: 0; stroke: #b0b0b0; stroke-opacity: 0.4; stroke-width: 0.8"/>
     </g>
     <g id="line2d_22">
      <g>
       <use xlink:href="#m8761097526" x="41.01375" y="178.301818" style="stroke: #000000; stroke-width: 0.8"/>
      </g>
     </g>
     <g id="text_12">
      <!-- $\mathdefault{2^{3}}$ -->
      <g transform="translate(22.81375 182.101037) scale(0.1 -0.1)">
       <use xlink:href="#DejaVuSans-32" transform="translate(0 0.765625)"/>
       <use xlink:href="#DejaVuSans-33" transform="translate(64.580078 39.046875) scale(0.7)"/>
      </g>
     </g>
    </g>
    <g id="ytick_5">
     <g id="line2d_23">
      <path d="M 41.01375 139.934666 
L 422.752008 139.934666 
" clip-path="url(#p50f2b64410)" style="fill: none; stroke-dasharray: 2.96,1.28; stroke-dashoffset: 0; stroke: #b0b0b0; stroke-opacity: 0.4; stroke-width: 0.8"/>
     </g>
     <g id="line2d_24">
      <g>
       <use xlink:href="#m8761097526" x="41.01375" y="139.934666" style="stroke: #000000; stroke-width: 0.8"/>
      </g>
     </g>
     <g id="text_13">
      <!-- $\mathdefault{2^{4}}$ -->
      <g transform="translate(22.81375 143.733885) scale(0.1 -0.1)">
       <use xlink:href="#DejaVuSans-32" transform="translate(0 0.684375)"/>
       <use xlink:href="#DejaVuSans-34" transform="translate(64.580078 38.965625) scale(0.7)"/>
      </g>
     </g>
    </g>
    <g id="ytick_6">
     <g id="line2d_25">
      <path d="M 41.01375 101.567515 
L 422.752008 101.567515 
" clip-path="url(#p50f2b64410)" style="fill: none; stroke-dasharray: 2.96,1.28; stroke-dashoffset: 0; stroke: #b0b0b0; stroke-opacity: 0.4; stroke-width: 0.8"/>
     </g>
     <g id="line2d_26">
      <g>
       <use xlink:href="#m8761097526" x="41.01375" y="101.567515" style="stroke: #000000; stroke-width: 0.8"/>
      </g>
     </g>
     <g id="text_14">
      <!-- $\mathdefault{2^{5}}$ -->
      <g transform="translate(22.81375 105.366734) scale(0.1 -0.1)">
       <use xlink:href="#DejaVuSans-32" transform="translate(0 0.684375)"/>
       <use xlink:href="#DejaVuSans-35" transform="translate(64.580078 38.965625) scale(0.7)"/>
      </g>
     </g>
    </g>
    <g id="ytick_7">
     <g id="line2d_27">
      <path d="M 41.01375 63.200364 
L 422.752008 63.200364 
" clip-path="url(#p50f2b64410)" style="fill: none; stroke-dasharray: 2.96,1.28; stroke-dashoffset: 0; stroke: #b0b0b0; stroke-opacity: 0.4; stroke-width: 0.8"/>
     </g>
     <g id="line2d_28">
      <g>
       <use xlink:href="#m8761097526" x="41.01375" y="63.200364" style="stroke: #000000; stroke-width: 0.8"/>
      </g>
     </g>
     <g id="text_15">
      <!-- $\mathdefault{2^{6}}$ -->
      <g transform="translate(22.81375 66.999582) scale(0.1 -0.1)">
       <use xlink:href="#DejaVuSans-32" transform="translate(0 0.765625)"/>
       <use xlink:href="#DejaVuSans-36" transform="translate(64.580078 39.046875) scale(0.7)"/>
      </g>
     </g>
    </g>
    <g id="text_16">
     <!-- Speedup -->
     <g transform="translate(16.318125 211.219625) rotate(-90) scale(0.12 -0.12)">
      <defs>
       <path id="DejaVuSans-Bold-53" d="M 3834 4519 
L 3834 3531 
Q 3450 3703 3084 3790 
Q 2719 3878 2394 3878 
Q 1963 3878 1756 3759 
Q 1550 3641 1550 3391 
Q 1550 3203 1689 3098 
Q 1828 2994 2194 2919 
L 2706 2816 
Q 3484 2659 3812 2340 
Q 4141 2022 4141 1434 
Q 4141 663 3683 286 
Q 3225 -91 2284 -91 
Q 1841 -91 1394 -6 
Q 947 78 500 244 
L 500 1259 
Q 947 1022 1364 901 
Q 1781 781 2169 781 
Q 2563 781 2772 912 
Q 2981 1044 2981 1288 
Q 2981 1506 2839 1625 
Q 2697 1744 2272 1838 
L 1806 1941 
Q 1106 2091 782 2419 
Q 459 2747 459 3303 
Q 459 4000 909 4375 
Q 1359 4750 2203 4750 
Q 2588 4750 2994 4692 
Q 3400 4634 3834 4519 
z
" transform="scale(0.015625)"/>
       <path id="DejaVuSans-Bold-70" d="M 1656 506 
L 1656 -1331 
L 538 -1331 
L 538 3500 
L 1656 3500 
L 1656 2988 
Q 1888 3294 2169 3439 
Q 2450 3584 2816 3584 
Q 3463 3584 3878 3070 
Q 4294 2556 4294 1747 
Q 4294 938 3878 423 
Q 3463 -91 2816 -91 
Q 2450 -91 2169 54 
Q 1888 200 1656 506 
z
M 2400 2772 
Q 2041 2772 1848 2508 
Q 1656 2244 1656 1747 
Q 1656 1250 1848 986 
Q 2041 722 2400 722 
Q 2759 722 2948 984 
Q 3138 1247 3138 1747 
Q 3138 2247 2948 2509 
Q 2759 2772 2400 2772 
z
" transform="scale(0.015625)"/>
       <path id="DejaVuSans-Bold-64" d="M 2919 2988 
L 2919 4863 
L 4044 4863 
L 4044 0 
L 2919 0 
L 2919 506 
Q 2688 197 2409 53 
Q 2131 -91 1766 -91 
Q 1119 -91 703 423 
Q 288 938 288 1747 
Q 288 2556 703 3070 
Q 1119 3584 1766 3584 
Q 2128 3584 2408 3439 
Q 2688 3294 2919 2988 
z
M 2181 722 
Q 2541 722 2730 984 
Q 2919 1247 2919 1747 
Q 2919 2247 2730 2509 
Q 2541 2772 2181 2772 
Q 1825 2772 1636 2509 
Q 1447 2247 1447 1747 
Q 1447 1247 1636 984 
Q 1825 722 2181 722 
z
" transform="scale(0.015625)"/>
      </defs>
      <use xlink:href="#DejaVuSans-Bold-53"/>
      <use xlink:href="#DejaVuSans-Bold-70" transform="translate(72.021484 0)"/>
      <use xlink:href="#DejaVuSans-Bold-65" transform="translate(143.603516 0)"/>
      <use xlink:href="#DejaVuSans-Bold-65" transform="translate(211.425781 0)"/>
      <use xlink:href="#DejaVuSans-Bold-64" transform="translate(279.248047 0)"/>
      <use xlink:href="#DejaVuSans-Bold-75" transform="translate(350.830078 0)"/>
      <use xlink:href="#DejaVuSans-Bold-70" transform="translate(422.021484 0)"/>
     </g>
    </g>
   </g>
   <g id="line2d_29">
    <path d="M 58.365489 300.007636 
L 116.204619 282.193914 
L 174.043749 264.200195 
L 231.882879 264.438973 
L 289.722009 225.598639 
L 347.561139 171.327344 
L 405.400269 136.591608 
" clip-path="url(#p50f2b64410)" style="fill: none; stroke: #1f77b4; stroke-width: 2.5; stroke-linecap: square"/>
    <defs>
     <path id="mad31410162" d="M 0 4 
C 1.060812 4 2.078319 3.578535 2.828427 2.828427 
C 3.578535 2.078319 4 1.060812 4 0 
C 4 -1.060812 3.578535 -2.078319 2.828427 -2.828427 
C 2.078319 -3.578535 1.060812 -4 0 -4 
C -1.060812 -4 -2.078319 -3.578535 -2.828427 -2.828427 
C -3.578535 -2.078319 -4 -1.060812 -4 0 
C -4 1.060812 -3.578535 2.078319 -2.828427 2.828427 
C -2.078319 3.578535 -1.060812 4 0 4 
z
" style="stroke: #1f77b4"/>
    </defs>
    <g clip-path="url(#p50f2b64410)">
     <use xlink:href="#mad31410162" x="58.365489" y="300.007636" style="fill: #1f77b4; stroke: #1f77b4"/>
     <use xlink:href="#mad31410162" x="116.204619" y="282.193914" style="fill: #1f77b4; stroke: #1f77b4"/>
     <use xlink:href="#mad31410162" x="174.043749" y="264.200195" style="fill: #1f77b4; stroke: #1f77b4"/>
     <use xlink:href="#mad31410162" x="231.882879" y="264.438973" style="fill: #1f77b4; stroke: #1f77b4"/>
     <use xlink:href="#mad31410162" x="289.722009" y="225.598639" style="fill: #1f77b4; stroke: #1f77b4"/>
     <use xlink:href="#mad31410162" x="347.561139" y="171.327344" style="fill: #1f77b4; stroke: #1f77b4"/>
     <use xlink:href="#mad31410162" x="405.400269" y="136.591608" style="fill: #1f77b4; stroke: #1f77b4"/>
    </g>
   </g>
   <g id="line2d_30">
    <path d="M 58.365489 293.403272 
L 116.204619 255.036121 
L 174.043749 216.668969 
L 231.882879 178.301818 
L 289.722009 139.934666 
L 347.561139 101.567515 
L 405.400269 63.200364 
" clip-path="url(#p50f2b64410)" style="fill: none; stroke-dasharray: 7.4,3.2; stroke-dashoffset: 0; stroke: #95a5a6; stroke-opacity: 0.8; stroke-width: 2"/>
   </g>
   <g id="patch_3">
    <path d="M 41.01375 311.848 
L 41.01375 51.36 
" style="fill: none; stroke: #000000; stroke-width: 0.8; stroke-linejoin: miter; stroke-linecap: square"/>
   </g>
   <g id="patch_4">
    <path d="M 422.752008 311.848 
L 422.752008 51.36 
" style="fill: none; stroke: #000000; stroke-width: 0.8; stroke-linejoin: miter; stroke-linecap: square"/>
   </g>
   <g id="patch_5">
    <path d="M 41.01375 311.848 
L 422.752008 311.848 
" style="fill: none; stroke: #000000; stroke-width: 0.8; stroke-linejoin: miter; stroke-linecap: square"/>
   </g>
   <g id="patch_6">
    <path d="M 41.01375 51.36 
L 422.752008 51.36 
" style="fill: none; stroke: #000000; stroke-width: 0.8; stroke-linejoin: miter; stroke-linecap: square"/>
   </g>
   <g id="text_17">
    <!-- 2048×2048 Table -->
    <g transform="translate(173.577879 45.36) scale(0.12 -0.12)">
     <defs>
      <path id="DejaVuSans-Bold-32" d="M 1844 884 
L 3897 884 
L 3897 0 
L 506 0 
L 506 884 
L 2209 2388 
Q 2438 2594 2547 2791 
Q 2656 2988 2656 3200 
Q 2656 3528 2436 3728 
Q 2216 3928 1850 3928 
Q 1569 3928 1234 3808 
Q 900 3688 519 3450 
L 519 4475 
Q 925 4609 1322 4679 
Q 1719 4750 2100 4750 
Q 2938 4750 3402 4381 
Q 3866 4013 3866 3353 
Q 3866 2972 3669 2642 
Q 3472 2313 2841 1759 
L 1844 884 
z
" transform="scale(0.015625)"/>
      <path id="DejaVuSans-Bold-30" d="M 2944 2338 
Q 2944 3213 2780 3570 
Q 2616 3928 2228 3928 
Q 1841 3928 1675 3570 
Q 1509 3213 1509 2338 
Q 1509 1453 1675 1090 
Q 1841 728 2228 728 
Q 2613 728 2778 1090 
Q 2944 1453 2944 2338 
z
M 4147 2328 
Q 4147 1169 3647 539 
Q 3147 -91 2228 -91 
Q 1306 -91 806 539 
Q 306 1169 306 2328 
Q 306 3491 806 4120 
Q 1306 4750 2228 4750 
Q 3147 4750 3647 4120 
Q 4147 3491 4147 2328 
z
" transform="scale(0.015625)"/>
      <path id="DejaVuSans-Bold-34" d="M 2356 3675 
L 1038 1722 
L 2356 1722 
L 2356 3675 
z
M 2156 4666 
L 3494 4666 
L 3494 1722 
L 4159 1722 
L 4159 850 
L 3494 850 
L 3494 0 
L 2356 0 
L 2356 850 
L 288 850 
L 288 1881 
L 2156 4666 
z
" transform="scale(0.015625)"/>
      <path id="DejaVuSans-Bold-38" d="M 2228 2088 
Q 1891 2088 1709 1903 
Q 1528 1719 1528 1375 
Q 1528 1031 1709 848 
Q 1891 666 2228 666 
Q 2563 666 2741 848 
Q 2919 1031 2919 1375 
Q 2919 1722 2741 1905 
Q 2563 2088 2228 2088 
z
M 1350 2484 
Q 925 2613 709 2878 
Q 494 3144 494 3541 
Q 494 4131 934 4440 
Q 1375 4750 2228 4750 
Q 3075 4750 3515 4442 
Q 3956 4134 3956 3541 
Q 3956 3144 3739 2878 
Q 3522 2613 3097 2484 
Q 3572 2353 3814 2058 
Q 4056 1763 4056 1313 
Q 4056 619 3595 264 
Q 3134 -91 2228 -91 
Q 1319 -91 855 264 
Q 391 619 391 1313 
Q 391 1763 633 2058 
Q 875 2353 1350 2484 
z
M 1631 3419 
Q 1631 3141 1786 2991 
Q 1941 2841 2228 2841 
Q 2509 2841 2662 2991 
Q 2816 3141 2816 3419 
Q 2816 3697 2662 3845 
Q 2509 3994 2228 3994 
Q 1941 3994 1786 3844 
Q 1631 3694 1631 3419 
z
" transform="scale(0.015625)"/>
      <path id="DejaVuSans-Bold-d7" d="M 4563 3359 
L 3206 2003 
L 4563 653 
L 4038 128 
L 2681 1478 
L 1325 128 
L 800 653 
L 2156 2003 
L 800 3359 
L 1325 3884 
L 2681 2528 
L 4038 3884 
L 4563 3359 
z
" transform="scale(0.015625)"/>
      <path id="DejaVuSans-Bold-54" d="M 31 4666 
L 4331 4666 
L 4331 3756 
L 2784 3756 
L 2784 0 
L 1581 0 
L 1581 3756 
L 31 3756 
L 31 4666 
z
" transform="scale(0.015625)"/>
      <path id="DejaVuSans-Bold-61" d="M 2106 1575 
Q 1756 1575 1579 1456 
Q 1403 1338 1403 1106 
Q 1403 894 1545 773 
Q 1688 653 1941 653 
Q 2256 653 2472 879 
Q 2688 1106 2688 1447 
L 2688 1575 
L 2106 1575 
z
M 3816 1997 
L 3816 0 
L 2688 0 
L 2688 519 
Q 2463 200 2181 54 
Q 1900 -91 1497 -91 
Q 953 -91 614 226 
Q 275 544 275 1050 
Q 275 1666 698 1953 
Q 1122 2241 2028 2241 
L 2688 2241 
L 2688 2328 
Q 2688 2594 2478 2717 
Q 2269 2841 1825 2841 
Q 1466 2841 1156 2769 
Q 847 2697 581 2553 
L 581 3406 
Q 941 3494 1303 3539 
Q 1666 3584 2028 3584 
Q 2975 3584 3395 3211 
Q 3816 2838 3816 1997 
z
" transform="scale(0.015625)"/>
      <path id="DejaVuSans-Bold-6c" d="M 538 4863 
L 1656 4863 
L 1656 0 
L 538 0 
L 538 4863 
z
" transform="scale(0.015625)"/>
     </defs>
     <use xlink:href="#DejaVuSans-Bold-32"/>
     <use xlink:href="#DejaVuSans-Bold-30" transform="translate(69.580078 0)"/>
     <use xlink:href="#DejaVuSans-Bold-34" transform="translate(139.160156 0)"/>
     <use xlink:href="#DejaVuSans-Bold-38" transform="translate(208.740234 0)"/>
     <use xlink:href="#DejaVuSans-Bold-d7" transform="translate(278.320312 0)"/>
     <use xlink:href="#DejaVuSans-Bold-32" transform="translate(362.109375 0)"/>
     <use xlink:href="#DejaVuSans-Bold-30" transform="translate(431.689453 0)"/>
     <use xlink:href="#DejaVuSans-Bold-34" transform="translate(501.269531 0)"/>
     <use xlink:href="#DejaVuSans-Bold-38" transform="translate(570.849609 0)"/>
     <use xlink:href="#DejaVuSans-Bold-20" transform="translate(640.429688 0)"/>
     <use xlink:href="#DejaVuSans-Bold-54" transform="translate(675.244141 0)"/>
     <use xlink:href="#DejaVuSans-Bold-61" transform="translate(730.582031 0)"/>
     <use xlink:href="#DejaVuSans-Bold-62" transform="translate(798.0625 0)"/>
     <use xlink:href="#DejaVuSans-Bold-6c" transform="translate(869.644531 0)"/>
     <use xlink:href="#DejaVuSans-Bold-65" transform="translate(903.921875 0)"/>
    </g>
   </g>
   <g id="legend_1">
    <g id="patch_7">
     <path d="M 48.01375 88.71625 
L 109.835625 88.71625 
Q 111.835625 88.71625 111.835625 86.71625 
L 111.835625 58.36 
Q 111.835625 56.36 109.835625 56.36 
L 48.01375 56.36 
Q 46.01375 56.36 46.01375 58.36 
L 46.01375 86.71625 
Q 46.01375 88.71625 48.01375 88.71625 
z
" style="fill: #ffffff; opacity: 0.8; stroke: #cccccc; stroke-linejoin: miter"/>
    </g>
    <g id="line2d_31">
     <path d="M 50.01375 64.458437 
L 60.01375 64.458437 
L 70.01375 64.458437 
" style="fill: none; stroke: #1f77b4; stroke-width: 2.5; stroke-linecap: square"/>
     <g>
      <use xlink:href="#mad31410162" x="60.01375" y="64.458437" style="fill: #1f77b4; stroke: #1f77b4"/>
     </g>
    </g>
    <g id="text_18">
     <!-- Jacobi -->
     <g transform="translate(78.01375 67.958437) scale(0.1 -0.1)">
      <defs>
       <path id="DejaVuSans-4a" d="M 628 4666 
L 1259 4666 
L 1259 325 
Q 1259 -519 939 -900 
Q 619 -1281 -91 -1281 
L -331 -1281 
L -331 -750 
L -134 -750 
Q 284 -750 456 -515 
Q 628 -281 628 325 
L 628 4666 
z
" transform="scale(0.015625)"/>
       <path id="DejaVuSans-61" d="M 2194 1759 
Q 1497 1759 1228 1600 
Q 959 1441 959 1056 
Q 959 750 1161 570 
Q 1363 391 1709 391 
Q 2188 391 2477 730 
Q 2766 1069 2766 1631 
L 2766 1759 
L 2194 1759 
z
M 3341 1997 
L 3341 0 
L 2766 0 
L 2766 531 
Q 2569 213 2275 61 
Q 1981 -91 1556 -91 
Q 1019 -91 701 211 
Q 384 513 384 1019 
Q 384 1609 779 1909 
Q 1175 2209 1959 2209 
L 2766 2209 
L 2766 2266 
Q 2766 2663 2505 2880 
Q 2244 3097 1772 3097 
Q 1472 3097 1187 3025 
Q 903 2953 641 2809 
L 641 3341 
Q 956 3463 1253 3523 
Q 1550 3584 1831 3584 
Q 2591 3584 2966 3190 
Q 3341 2797 3341 1997 
z
" transform="scale(0.015625)"/>
       <path id="DejaVuSans-63" d="M 3122 3366 
L 3122 2828 
Q 2878 2963 2633 3030 
Q 2388 3097 2138 3097 
Q 1578 3097 1268 2742 
Q 959 2388 959 1747 
Q 959 1106 1268 751 
Q 1578 397 2138 397 
Q 2388 397 2633 464 
Q 2878 531 3122 666 
L 3122 134 
Q 2881 22 2623 -34 
Q 2366 -91 2075 -91 
Q 1284 -91 818 406 
Q 353 903 353 1747 
Q 353 2603 823 3093 
Q 1294 3584 2113 3584 
Q 2378 3584 2631 3529 
Q 2884 3475 3122 3366 
z
" transform="scale(0.015625)"/>
       <path id="DejaVuSans-6f" d="M 1959 3097 
Q 1497 3097 1228 2736 
Q 959 2375 959 1747 
Q 959 1119 1226 758 
Q 1494 397 1959 397 
Q 2419 397 2687 759 
Q 2956 1122 2956 1747 
Q 2956 2369 2687 2733 
Q 2419 3097 1959 3097 
z
M 1959 3584 
Q 2709 3584 3137 3096 
Q 3566 2609 3566 1747 
Q 3566 888 3137 398 
Q 2709 -91 1959 -91 
Q 1206 -91 779 398 
Q 353 888 353 1747 
Q 353 2609 779 3096 
Q 1206 3584 1959 3584 
z
" transform="scale(0.015625)"/>
       <path id="DejaVuSans-62" d="M 3116 1747 
Q 3116 2381 2855 2742 
Q 2594 3103 2138 3103 
Q 1681 3103 1420 2742 
Q 1159 2381 1159 1747 
Q 1159 1113 1420 752 
Q 1681 391 2138 391 
Q 2594 391 2855 752 
Q 3116 1113 3116 1747 
z
M 1159 2969 
Q 1341 3281 1617 3432 
Q 1894 3584 2278 3584 
Q 2916 3584 3314 3078 
Q 3713 2572 3713 1747 
Q 3713 922 3314 415 
Q 2916 -91 2278 -91 
Q 1894 -91 1617 61 
Q 1341 213 1159 525 
L 1159 0 
L 581 0 
L 581 4863 
L 1159 4863 
L 1159 2969 
z
" transform="scale(0.015625)"/>
       <path id="DejaVuSans-69" d="M 603 3500 
L 1178 3500 
L 1178 0 
L 603 0 
L 603 3500 
z
M 603 4863 
L 1178 4863 
L 1178 4134 
L 603 4134 
L 603 4863 
z
" transform="scale(0.015625)"/>
      </defs>
      <use xlink:href="#DejaVuSans-4a"/>
      <use xlink:href="#DejaVuSans-61" transform="translate(29.492188 0)"/>
      <use xlink:href="#DejaVuSans-63" transform="translate(90.771484 0)"/>
      <use xlink:href="#DejaVuSans-6f" transform="translate(145.751953 0)"/>
      <use xlink:href="#DejaVuSans-62" transform="translate(206.933594 0)"/>
      <use xlink:href="#DejaVuSans-69" transform="translate(270.410156 0)"/>
     </g>
    </g>
    <g id="line2d_32">
     <path d="M 50.01375 79.136562 
L 60.01375 79.136562 
L 70.01375 79.136562 
" style="fill: none; stroke-dasharray: 7.4,3.2; stroke-dashoffset: 0; stroke: #95a5a6; stroke-opacity: 0.8; stroke-width: 2"/>
    </g>
    <g id="text_19">
     <!-- Ideal -->
     <g transform="translate(78.01375 82.636562) scale(0.1 -0.1)">
      <defs>
       <path id="DejaVuSans-49" d="M 628 4666 
L 1259 4666 
L 1259 0 
L 628 0 
L 628 4666 
z
" transform="scale(0.015625)"/>
       <path id="DejaVuSans-64" d="M 2906 2969 
L 2906 4863 
L 3481 4863 
L 3481 0 
L 2906 0 
L 2906 525 
Q 2725 213 2448 61 
Q 2172 -91 1784 -91 
Q 1150 -91 751 415 
Q 353 922 353 1747 
Q 353 2572 751 3078 
Q 1150 3584 1784 3584 
Q 2172 3584 2448 3432 
Q 2725 3281 2906 2969 
z
M 947 1747 
Q 947 1113 1208 752 
Q 1469 391 1925 391 
Q 2381 391 2643 752 
Q 2906 1113 2906 1747 
Q 2906 2381 2643 2742 
Q 2381 3103 1925 3103 
Q 1469 3103 1208 2742 
Q 947 2381 947 1747 
z
" transform="scale(0.015625)"/>
       <path id="DejaVuSans-65" d="M 3597 1894 
L 3597 1613 
L 953 1613 
Q 991 1019 1311 708 
Q 1631 397 2203 397 
Q 2534 397 2845 478 
Q 3156 559 3463 722 
L 3463 178 
Q 3153 47 2828 -22 
Q 2503 -91 2169 -91 
Q 1331 -91 842 396 
Q 353 884 353 1716 
Q 353 2575 817 3079 
Q 1281 3584 2069 3584 
Q 2775 3584 3186 3129 
Q 3597 2675 3597 1894 
z
M 3022 2063 
Q 3016 2534 2758 2815 
Q 2500 3097 2075 3097 
Q 1594 3097 1305 2825 
Q 1016 2553 972 2059 
L 3022 2063 
z
" transform="scale(0.015625)"/>
       <path id="DejaVuSans-6c" d="M 603 4863 
L 1178 4863 
L 1178 0 
L 603 0 
L 603 4863 
z
" transform="scale(0.015625)"/>
      </defs>
      <use xlink:href="#DejaVuSans-49"/>
      <use xlink:href="#DejaVuSans-64" transform="translate(29.492188 0)"/>
      <use xlink:href="#DejaVuSans-65" transform="translate(92.96875 0)"/>
      <use xlink:href="#DejaVuSans-61" transform="translate(154.492188 0)"/>
      <use xlink:href="#DejaVuSans-6c" transform="translate(215.771484 0)"/>
     </g>
    </g>
   </g>
  </g>
  <g id="axes_2">
   <g id="patch_8">
    <path d="M 469.41375 311.848 
L 851.152008 311.848 
L 851.152008 51.36 
L 469.41375 51.36 
z
" style="fill: #ffffff"/>
   </g>
   <g id="matplotlib.axis_3">
    <g id="xtick_8">
     <g id="line2d_33">
      <path d="M 486.765489 311.848 
L 486.765489 51.36 
" clip-path="url(#pd653fd7579)" style="fill: none; stroke-dasharray: 2.96,1.28; stroke-dashoffset: 0; stroke: #b0b0b0; stroke-opacity: 0.4; stroke-width: 0.8"/>
     </g>
     <g id="line2d_34">
      <g>
       <use xlink:href="#m3698c81d77" x="486.765489" y="311.848" style="stroke: #000000; stroke-width: 0.8"/>
      </g>
     </g>
     <g id="text_20">
      <!-- $\mathdefault{2^{0}}$ -->
      <g transform="translate(481.165489 326.446437) scale(0.1 -0.1)">
       <use xlink:href="#DejaVuSans-32" transform="translate(0 0.765625)"/>
       <use xlink:href="#DejaVuSans-30" transform="translate(64.580078 39.046875) scale(0.7)"/>
      </g>
     </g>
    </g>
    <g id="xtick_9">
     <g id="line2d_35">
      <path d="M 544.604619 311.848 
L 544.604619 51.36 
" clip-path="url(#pd653fd7579)" style="fill: none; stroke-dasharray: 2.96,1.28; stroke-dashoffset: 0; stroke: #b0b0b0; stroke-opacity: 0.4; stroke-width: 0.8"/>
     </g>
     <g id="line2d_36">
      <g>
       <use xlink:href="#m3698c81d77" x="544.604619" y="311.848" style="stroke: #000000; stroke-width: 0.8"/>
      </g>
     </g>
     <g id="text_21">
      <!-- $\mathdefault{2^{1}}$ -->
      <g transform="translate(539.004619 326.446437) scale(0.1 -0.1)">
       <use xlink:href="#DejaVuSans-32" transform="translate(0 0.684375)"/>
       <use xlink:href="#DejaVuSans-31" transform="translate(64.580078 38.965625) scale(0.7)"/>
      </g>
     </g>
    </g>
    <g id="xtick_10">
     <g id="line2d_37">
      <path d="M 602.443749 311.848 
L 602.443749 51.36 
" clip-path="url(#pd653fd7579)" style="fill: none; stroke-dasharray: 2.96,1.28; stroke-dashoffset: 0; stroke: #b0b0b0; stroke-opacity: 0.4; stroke-width: 0.8"/>
     </g>
     <g id="line2d_38">
      <g>
       <use xlink:href="#m3698c81d77" x="602.443749" y="311.848" style="stroke: #000000; stroke-width: 0.8"/>
      </g>
     </g>
     <g id="text_22">
      <!-- $\mathdefault{2^{2}}$ -->
      <g transform="translate(596.843749 326.446437) scale(0.1 -0.1)">
       <use xlink:href="#DejaVuSans-32" transform="translate(0 0.765625)"/>
       <use xlink:href="#DejaVuSans-32" transform="translate(64.580078 39.046875) scale(0.7)"/>
      </g>
     </g>
    </g>
    <g id="xtick_11">
     <g id="line2d_39">
      <path d="M 660.282879 311.848 
L 660.282879 51.36 
" clip-path="url(#pd653fd7579)" style="fill: none; stroke-dasharray: 2.96,1.28; stroke-dashoffset: 0; stroke: #b0b0b0; stroke-opacity: 0.4; stroke-width: 0.8"/>
     </g>
     <g id="line2d_40">
      <g>
       <use xlink:href="#m3698c81d77" x="660.282879" y="311.848" style="stroke: #000000; stroke-width: 0.8"/>
      </g>
     </g>
     <g id="text_23">
      <!-- $\mathdefault{2^{3}}$ -->
      <g transform="translate(654.682879 326.446437) scale(0.1 -0.1)">
       <use xlink:href="#DejaVuSans-32" transform="translate(0 0.765625)"/>
       <use xlink:href="#DejaVuSans-33" transform="translate(64.580078 39.046875) scale(0.7)"/>
      </g>
     </g>
    </g>
    <g id="xtick_12">
     <g id="line2d_41">
      <path d="M 718.122009 311.848 
L 718.122009 51.36 
" clip-path="url(#pd653fd7579)" style="fill: none; stroke-dasharray: 2.96,1.28; stroke-dashoffset: 0; stroke: #b0b0b0; stroke-opacity: 0.4; stroke-width: 0.8"/>
     </g>
     <g id="line2d_42">
      <g>
       <use xlink:href="#m3698c81d77" x="718.122009" y="311.848" style="stroke: #000000; stroke-width: 0.8"/>
      </g>
     </g>
     <g id="text_24">
      <!-- $\mathdefault{2^{4}}$ -->
      <g transform="translate(712.522009 326.446437) scale(0.1 -0.1)">
       <use xlink:href="#DejaVuSans-32" transform="translate(0 0.684375)"/>
       <use xlink:href="#DejaVuSans-34" transform="translate(64.580078 38.965625) scale(0.7)"/>
      </g>
     </g>
    </g>
    <g id="xtick_13">
     <g id="line2d_43">
      <path d="M 775.961139 311.848 
L 775.961139 51.36 
" clip-path="url(#pd653fd7579)" style="fill: none; stroke-dasharray: 2.96,1.28; stroke-dashoffset: 0; stroke: #b0b0b0; stroke-opacity: 0.4; stroke-width: 0.8"/>
     </g>
     <g id="line2d_44">
      <g>
       <use xlink:href="#m3698c81d77" x="775.961139" y="311.848" style="stroke: #000000; stroke-width: 0.8"/>
      </g>
     </g>
     <g id="text_25">
      <!-- $\mathdefault{2^{5}}$ -->
      <g transform="translate(770.361139 326.446437) scale(0.1 -0.1)">
       <use xlink:href="#DejaVuSans-32" transform="translate(0 0.684375)"/>
       <use xlink:href="#DejaVuSans-35" transform="translate(64.580078 38.965625) scale(0.7)"/>
      </g>
     </g>
    </g>
    <g id="xtick_14">
     <g id="line2d_45">
      <path d="M 833.800269 311.848 
L 833.800269 51.36 
" clip-path="url(#pd653fd7579)" style="fill: none; stroke-dasharray: 2.96,1.28; stroke-dashoffset: 0; stroke: #b0b0b0; stroke-opacity: 0.4; stroke-width: 0.8"/>
     </g>
     <g id="line2d_46">
      <g>
       <use xlink:href="#m3698c81d77" x="833.800269" y="311.848" style="stroke: #000000; stroke-width: 0.8"/>
      </g>
     </g>
     <g id="text_26">
      <!-- $\mathdefault{2^{6}}$ -->
      <g transform="translate(828.200269 326.446437) scale(0.1 -0.1)">
       <use xlink:href="#DejaVuSans-32" transform="translate(0 0.765625)"/>
       <use xlink:href="#DejaVuSans-36" transform="translate(64.580078 39.046875) scale(0.7)"/>
      </g>
     </g>
    </g>
    <g id="text_27">
     <!-- Number of MPI Processes -->
     <g transform="translate(573.927879 341.64425) scale(0.12 -0.12)">
      <use xlink:href="#DejaVuSans-Bold-4e"/>
      <use xlink:href="#DejaVuSans-Bold-75" transform="translate(83.691406 0)"/>
      <use xlink:href="#DejaVuSans-Bold-6d" transform="translate(154.882812 0)"/>
      <use xlink:href="#DejaVuSans-Bold-62" transform="translate(259.082031 0)"/>
      <use xlink:href="#DejaVuSans-Bold-65" transform="translate(330.664062 0)"/>
      <use xlink:href="#DejaVuSans-Bold-72" transform="translate(398.486328 0)"/>
      <use xlink:href="#DejaVuSans-Bold-20" transform="translate(447.802734 0)"/>
      <use xlink:href="#DejaVuSans-Bold-6f" transform="translate(482.617188 0)"/>
      <use xlink:href="#DejaVuSans-Bold-66" transform="translate(551.318359 0)"/>
      <use xlink:href="#DejaVuSans-Bold-20" transform="translate(594.824219 0)"/>
      <use xlink:href="#DejaVuSans-Bold-4d" transform="translate(629.638672 0)"/>
      <use xlink:href="#DejaVuSans-Bold-50" transform="translate(729.150391 0)"/>
      <use xlink:href="#DejaVuSans-Bold-49" transform="translate(802.441406 0)"/>
      <use xlink:href="#DejaVuSans-Bold-20" transform="translate(839.648438 0)"/>
      <use xlink:href="#DejaVuSans-Bold-50" transform="translate(874.462891 0)"/>
      <use xlink:href="#DejaVuSans-Bold-72" transform="translate(947.753906 0)"/>
      <use xlink:href="#DejaVuSans-Bold-6f" transform="translate(997.070312 0)"/>
      <use xlink:href="#DejaVuSans-Bold-63" transform="translate(1065.771484 0)"/>
      <use xlink:href="#DejaVuSans-Bold-65" transform="translate(1125.048828 0)"/>
      <use xlink:href="#DejaVuSans-Bold-73" transform="translate(1192.871094 0)"/>
      <use xlink:href="#DejaVuSans-Bold-73" transform="translate(1252.392578 0)"/>
      <use xlink:href="#DejaVuSans-Bold-65" transform="translate(1311.914062 0)"/>
      <use xlink:href="#DejaVuSans-Bold-73" transform="translate(1379.736328 0)"/>
     </g>
    </g>
   </g>
   <g id="matplotlib.axis_4">
    <g id="ytick_8">
     <g id="line2d_47">
      <path d="M 469.41375 293.711745 
L 851.152008 293.711745 
" clip-path="url(#pd653fd7579)" style="fill: none; stroke-dasharray: 2.96,1.28; stroke-dashoffset: 0; stroke: #b0b0b0; stroke-opacity: 0.4; stroke-width: 0.8"/>
     </g>
     <g id="line2d_48">
      <g>
       <use xlink:href="#m8761097526" x="469.41375" y="293.711745" style="stroke: #000000; stroke-width: 0.8"/>
      </g>
     </g>
     <g id="text_28">
      <!-- $\mathdefault{2^{0}}$ -->
      <g transform="translate(451.21375 297.510964) scale(0.1 -0.1)">
       <use xlink:href="#DejaVuSans-32" transform="translate(0 0.765625)"/>
       <use xlink:href="#DejaVuSans-30" transform="translate(64.580078 39.046875) scale(0.7)"/>
      </g>
     </g>
    </g>
    <g id="ytick_9">
     <g id="line2d_49">
      <path d="M 469.41375 255.293181 
L 851.152008 255.293181 
" clip-path="url(#pd653fd7579)" style="fill: none; stroke-dasharray: 2.96,1.28; stroke-dashoffset: 0; stroke: #b0b0b0; stroke-opacity: 0.4; stroke-width: 0.8"/>
     </g>
     <g id="line2d_50">
      <g>
       <use xlink:href="#m8761097526" x="469.41375" y="255.293181" style="stroke: #000000; stroke-width: 0.8"/>
      </g>
     </g>
     <g id="text_29">
      <!-- $\mathdefault{2^{1}}$ -->
      <g transform="translate(451.21375 259.0924) scale(0.1 -0.1)">
       <use xlink:href="#DejaVuSans-32" transform="translate(0 0.684375)"/>
       <use xlink:href="#DejaVuSans-31" transform="translate(64.580078 38.965625) scale(0.7)"/>
      </g>
     </g>
    </g>
    <g id="ytick_10">
     <g id="line2d_51">
      <path d="M 469.41375 216.874618 
L 851.152008 216.874618 
" clip-path="url(#pd653fd7579)" style="fill: none; stroke-dasharray: 2.96,1.28; stroke-dashoffset: 0; stroke: #b0b0b0; stroke-opacity: 0.4; stroke-width: 0.8"/>
     </g>
     <g id="line2d_52">
      <g>
       <use xlink:href="#m8761097526" x="469.41375" y="216.874618" style="stroke: #000000; stroke-width: 0.8"/>
      </g>
     </g>
     <g id="text_30">
      <!-- $\mathdefault{2^{2}}$ -->
      <g transform="translate(451.21375 220.673837) scale(0.1 -0.1)">
       <use xlink:href="#DejaVuSans-32" transform="translate(0 0.765625)"/>
       <use xlink:href="#DejaVuSans-32" transform="translate(64.580078 39.046875) scale(0.7)"/>
      </g>
     </g>
    </g>
    <g id="ytick_11">
     <g id="line2d_53">
      <path d="M 469.41375 178.456054 
L 851.152008 178.456054 
" clip-path="url(#pd653fd7579)" style="fill: none; stroke-dasharray: 2.96,1.28; stroke-dashoffset: 0; stroke: #b0b0b0; stroke-opacity: 0.4; stroke-width: 0.8"/>
     </g>
     <g id="line2d_54">
      <g>
       <use xlink:href="#m8761097526" x="469.41375" y="178.456054" style="stroke: #000000; stroke-width: 0.8"/>
      </g>
     </g>
     <g id="text_31">
      <!-- $\mathdefault{2^{3}}$ -->
      <g transform="translate(451.21375 182.255273) scale(0.1 -0.1)">
       <use xlink:href="#DejaVuSans-32" transform="translate(0 0.765625)"/>
       <use xlink:href="#DejaVuSans-33" transform="translate(64.580078 39.046875) scale(0.7)"/>
      </g>
     </g>
    </g>
    <g id="ytick_12">
     <g id="line2d_55">
      <path d="M 469.41375 140.037491 
L 851.152008 140.037491 
" clip-path="url(#pd653fd7579)" style="fill: none; stroke-dasharray: 2.96,1.28; stroke-dashoffset: 0; stroke: #b0b0b0; stroke-opacity: 0.4; stroke-width: 0.8"/>
     </g>
     <g id="line2d_56">
      <g>
       <use xlink:href="#m8761097526" x="469.41375" y="140.037491" style="stroke: #000000; stroke-width: 0.8"/>
      </g>
     </g>
     <g id="text_32">
      <!-- $\mathdefault{2^{4}}$ -->
      <g transform="translate(451.21375 143.836709) scale(0.1 -0.1)">
       <use xlink:href="#DejaVuSans-32" transform="translate(0 0.684375)"/>
       <use xlink:href="#DejaVuSans-34" transform="translate(64.580078 38.965625) scale(0.7)"/>
      </g>
     </g>
    </g>
    <g id="ytick_13">
     <g id="line2d_57">
      <path d="M 469.41375 101.618927 
L 851.152008 101.618927 
" clip-path="url(#pd653fd7579)" style="fill: none; stroke-dasharray: 2.96,1.28; stroke-dashoffset: 0; stroke: #b0b0b0; stroke-opacity: 0.4; stroke-width: 0.8"/>
     </g>
     <g id="line2d_58">
      <g>
       <use xlink:href="#m8761097526" x="469.41375" y="101.618927" style="stroke: #000000; stroke-width: 0.8"/>
      </g>
     </g>
     <g id="text_33">
      <!-- $\mathdefault{2^{5}}$ -->
      <g transform="translate(451.21375 105.418146) scale(0.1 -0.1)">
       <use xlink:href="#DejaVuSans-32" transform="translate(0 0.684375)"/>
       <use xlink:href="#DejaVuSans-35" transform="translate(64.580078 38.965625) scale(0.7)"/>
      </g>
     </g>
    </g>
    <g id="ytick_14">
     <g id="line2d_59">
      <path d="M 469.41375 63.200364 
L 851.152008 63.200364 
" clip-path="url(#pd653fd7579)" style="fill: none; stroke-dasharray: 2.96,1.28; stroke-dashoffset: 0; stroke: #b0b0b0; stroke-opacity: 0.4; stroke-width: 0.8"/>
     </g>
     <g id="line2d_60">
      <g>
       <use xlink:href="#m8761097526" x="469.41375" y="63.200364" style="stroke: #000000; stroke-width: 0.8"/>
      </g>
     </g>
     <g id="text_34">
      <!-- $\mathdefault{2^{6}}$ -->
      <g transform="translate(451.21375 66.999582) scale(0.1 -0.1)">
       <use xlink:href="#DejaVuSans-32" transform="translate(0 0.765625)"/>
       <use xlink:href="#DejaVuSans-36" transform="translate(64.580078 39.046875) scale(0.7)"/>
      </g>
     </g>
    </g>
    <g id="text_35">
     <!-- Speedup -->
     <g transform="translate(444.718125 211.219625) rotate(-90) scale(0.12 -0.12)">
      <use xlink:href="#DejaVuSans-Bold-53"/>
      <use xlink:href="#DejaVuSans-Bold-70" transform="translate(72.021484 0)"/>
      <use xlink:href="#DejaVuSans-Bold-65" transform="translate(143.603516 0)"/>
      <use xlink:href="#DejaVuSans-Bold-65" transform="translate(211.425781 0)"/>
      <use xlink:href="#DejaVuSans-Bold-64" transform="translate(279.248047 0)"/>
      <use xlink:href="#DejaVuSans-Bold-75" transform="translate(350.830078 0)"/>
      <use xlink:href="#DejaVuSans-Bold-70" transform="translate(422.021484 0)"/>
     </g>
    </g>
   </g>
   <g id="line2d_61">
    <path d="M 486.765489 300.007636 
L 544.604619 281.86732 
L 602.443749 263.851958 
L 660.282879 264.764995 
L 718.122009 229.861466 
L 775.961139 201.529631 
L 833.800269 188.328456 
" clip-path="url(#pd653fd7579)" style="fill: none; stroke: #1f77b4; stroke-width: 2.5; stroke-linecap: square"/>
    <g clip-path="url(#pd653fd7579)">
     <use xlink:href="#mad31410162" x="486.765489" y="300.007636" style="fill: #1f77b4; stroke: #1f77b4"/>
     <use xlink:href="#mad31410162" x="544.604619" y="281.86732" style="fill: #1f77b4; stroke: #1f77b4"/>
     <use xlink:href="#mad31410162" x="602.443749" y="263.851958" style="fill: #1f77b4; stroke: #1f77b4"/>
     <use xlink:href="#mad31410162" x="660.282879" y="264.764995" style="fill: #1f77b4; stroke: #1f77b4"/>
     <use xlink:href="#mad31410162" x="718.122009" y="229.861466" style="fill: #1f77b4; stroke: #1f77b4"/>
     <use xlink:href="#mad31410162" x="775.961139" y="201.529631" style="fill: #1f77b4; stroke: #1f77b4"/>
     <use xlink:href="#mad31410162" x="833.800269" y="188.328456" style="fill: #1f77b4; stroke: #1f77b4"/>
    </g>
   </g>
   <g id="line2d_62">
    <path d="M 486.765489 293.711745 
L 544.604619 255.293181 
L 602.443749 216.874618 
L 660.282879 178.456054 
L 718.122009 140.037491 
L 775.961139 101.618927 
L 833.800269 63.200364 
" clip-path="url(#pd653fd7579)" style="fill: none; stroke-dasharray: 7.4,3.2; stroke-dashoffset: 0; stroke: #95a5a6; stroke-opacity: 0.8; stroke-width: 2"/>
   </g>
   <g id="patch_9">
    <path d="M 469.41375 311.848 
L 469.41375 51.36 
" style="fill: none; stroke: #000000; stroke-width: 0.8; stroke-linejoin: miter; stroke-linecap: square"/>
   </g>
   <g id="patch_10">
    <path d="M 851.152008 311.848 
L 851.152008 51.36 
" style="fill: none; stroke: #000000; stroke-width: 0.8; stroke-linejoin: miter; stroke-linecap: square"/>
   </g>
   <g id="patch_11">
    <path d="M 469.41375 311.848 
L 851.152008 311.848 
" style="fill: none; stroke: #000000; stroke-width: 0.8; stroke-linejoin: miter; stroke-linecap: square"/>
   </g>
   <g id="patch_12">
    <path d="M 469.41375 51.36 
L 851.152008 51.36 
" style="fill: none; stroke: #000000; stroke-width: 0.8; stroke-linejoin: miter; stroke-linecap: square"/>
   </g>
   <g id="text_36">
    <!-- 4096×4096 Table -->
    <g transform="translate(601.977879 45.36) scale(0.12 -0.12)">
     <defs>
      <path id="DejaVuSans-Bold-39" d="M 641 103 
L 641 966 
Q 928 831 1190 764 
Q 1453 697 1709 697 
Q 2247 697 2547 995 
Q 2847 1294 2900 1881 
Q 2688 1725 2447 1647 
Q 2206 1569 1925 1569 
Q 1209 1569 770 1986 
Q 331 2403 331 3084 
Q 331 3838 820 4291 
Q 1309 4744 2131 4744 
Q 3044 4744 3544 4128 
Q 4044 3513 4044 2388 
Q 4044 1231 3459 570 
Q 2875 -91 1856 -91 
Q 1528 -91 1228 -42 
Q 928 6 641 103 
z
M 2125 2350 
Q 2441 2350 2600 2554 
Q 2759 2759 2759 3169 
Q 2759 3575 2600 3781 
Q 2441 3988 2125 3988 
Q 1809 3988 1650 3781 
Q 1491 3575 1491 3169 
Q 1491 2759 1650 2554 
Q 1809 2350 2125 2350 
z
" transform="scale(0.015625)"/>
      <path id="DejaVuSans-Bold-36" d="M 2316 2303 
Q 2000 2303 1842 2098 
Q 1684 1894 1684 1484 
Q 1684 1075 1842 870 
Q 2000 666 2316 666 
Q 2634 666 2792 870 
Q 2950 1075 2950 1484 
Q 2950 1894 2792 2098 
Q 2634 2303 2316 2303 
z
M 3803 4544 
L 3803 3681 
Q 3506 3822 3243 3889 
Q 2981 3956 2731 3956 
Q 2194 3956 1894 3657 
Q 1594 3359 1544 2772 
Q 1750 2925 1990 3001 
Q 2231 3078 2516 3078 
Q 3231 3078 3670 2659 
Q 4109 2241 4109 1563 
Q 4109 813 3618 361 
Q 3128 -91 2303 -91 
Q 1394 -91 895 523 
Q 397 1138 397 2266 
Q 397 3422 980 4083 
Q 1563 4744 2578 4744 
Q 2900 4744 3203 4694 
Q 3506 4644 3803 4544 
z
" transform="scale(0.015625)"/>
     </defs>
     <use xlink:href="#DejaVuSans-Bold-34"/>
     <use xlink:href="#DejaVuSans-Bold-30" transform="translate(69.580078 0)"/>
     <use xlink:href="#DejaVuSans-Bold-39" transform="translate(139.160156 0)"/>
     <use xlink:href="#DejaVuSans-Bold-36" transform="translate(208.740234 0)"/>
     <use xlink:href="#DejaVuSans-Bold-d7" transform="translate(278.320312 0)"/>
     <use xlink:href="#DejaVuSans-Bold-34" transform="translate(362.109375 0)"/>
     <use xlink:href="#DejaVuSans-Bold-30" transform="translate(431.689453 0)"/>
     <use xlink:href="#DejaVuSans-Bold-39" transform="translate(501.269531 0)"/>
     <use xlink:href="#DejaVuSans-Bold-36" transform="translate(570.849609 0)"/>
     <use xlink:href="#DejaVuSans-Bold-20" transform="translate(640.429688 0)"/>
     <use xlink:href="#DejaVuSans-Bold-54" transform="translate(675.244141 0)"/>
     <use xlink:href="#DejaVuSans-Bold-61" transform="translate(730.582031 0)"/>
     <use xlink:href="#DejaVuSans-Bold-62" transform="translate(798.0625 0)"/>
     <use xlink:href="#DejaVuSans-Bold-6c" transform="translate(869.644531 0)"/>
     <use xlink:href="#DejaVuSans-Bold-65" transform="translate(903.921875 0)"/>
    </g>
   </g>
   <g id="legend_2">
    <g id="patch_13">
     <path d="M 476.41375 88.71625 
L 538.235625 88.71625 
Q 540.235625 88.71625 540.235625 86.71625 
L 540.235625 58.36 
Q 540.235625 56.36 538.235625 56.36 
L 476.41375 56.36 
Q 474.41375 56.36 474.41375 58.36 
L 474.41375 86.71625 
Q 474.41375 88.71625 476.41375 88.71625 
z
" style="fill: #ffffff; opacity: 0.8; stroke: #cccccc; stroke-linejoin: miter"/>
    </g>
    <g id="line2d_63">
     <path d="M 478.41375 64.458437 
L 488.41375 64.458437 
L 498.41375 64.458437 
" style="fill: none; stroke: #1f77b4; stroke-width: 2.5; stroke-linecap: square"/>
     <g>
      <use xlink:href="#mad31410162" x="488.41375" y="64.458437" style="fill: #1f77b4; stroke: #1f77b4"/>
     </g>
    </g>
    <g id="text_37">
     <!-- Jacobi -->
     <g transform="translate(506.41375 67.958437) scale(0.1 -0.1)">
      <use xlink:href="#DejaVuSans-4a"/>
      <use xlink:href="#DejaVuSans-61" transform="translate(29.492188 0)"/>
      <use xlink:href="#DejaVuSans-63" transform="translate(90.771484 0)"/>
      <use xlink:href="#DejaVuSans-6f" transform="translate(145.751953 0)"/>
      <use xlink:href="#DejaVuSans-62" transform="translate(206.933594 0)"/>
      <use xlink:href="#DejaVuSans-69" transform="translate(270.410156 0)"/>
     </g>
    </g>
    <g id="line2d_64">
     <path d="M 478.41375 79.136562 
L 488.41375 79.136562 
L 498.41375 79.136562 
" style="fill: none; stroke-dasharray: 7.4,3.2; stroke-dashoffset: 0; stroke: #95a5a6; stroke-opacity: 0.8; stroke-width: 2"/>
    </g>
    <g id="text_38">
     <!-- Ideal -->
     <g transform="translate(506.41375 82.636562) scale(0.1 -0.1)">
      <use xlink:href="#DejaVuSans-49"/>
      <use xlink:href="#DejaVuSans-64" transform="translate(29.492188 0)"/>
      <use xlink:href="#DejaVuSans-65" transform="translate(92.96875 0)"/>
      <use xlink:href="#DejaVuSans-61" transform="translate(154.492188 0)"/>
      <use xlink:href="#DejaVuSans-6c" transform="translate(215.771484 0)"/>
     </g>
    </g>
   </g>
  </g>
  <g id="axes_3">
   <g id="patch_14">
    <path d="M 897.81375 311.848 
L 1279.552008 311.848 
L 1279.552008 51.36 
L 897.81375 51.36 
z
" style="fill: #ffffff"/>
   </g>
   <g id="matplotlib.axis_5">
    <g id="xtick_15">
     <g id="line2d_65">
      <path d="M 915.165489 311.848 
L 915.165489 51.36 
" clip-path="url(#p4c41c19fb9)" style="fill: none; stroke-dasharray: 2.96,1.28; stroke-dashoffset: 0; stroke: #b0b0b0; stroke-opacity: 0.4; stroke-width: 0.8"/>
     </g>
     <g id="line2d_66">
      <g>
       <use xlink:href="#m3698c81d77" x="915.165489" y="311.848" style="stroke: #000000; stroke-width: 0.8"/>
      </g>
     </g>
     <g id="text_39">
      <!-- $\mathdefault{2^{0}}$ -->
      <g transform="translate(909.565489 326.446437) scale(0.1 -0.1)">
       <use xlink:href="#DejaVuSans-32" transform="translate(0 0.765625)"/>
       <use xlink:href="#DejaVuSans-30" transform="translate(64.580078 39.046875) scale(0.7)"/>
      </g>
     </g>
    </g>
    <g id="xtick_16">
     <g id="line2d_67">
      <path d="M 973.004619 311.848 
L 973.004619 51.36 
" clip-path="url(#p4c41c19fb9)" style="fill: none; stroke-dasharray: 2.96,1.28; stroke-dashoffset: 0; stroke: #b0b0b0; stroke-opacity: 0.4; stroke-width: 0.8"/>
     </g>
     <g id="line2d_68">
      <g>
       <use xlink:href="#m3698c81d77" x="973.004619" y="311.848" style="stroke: #000000; stroke-width: 0.8"/>
      </g>
     </g>
     <g id="text_40">
      <!-- $\mathdefault{2^{1}}$ -->
      <g transform="translate(967.404619 326.446437) scale(0.1 -0.1)">
       <use xlink:href="#DejaVuSans-32" transform="translate(0 0.684375)"/>
       <use xlink:href="#DejaVuSans-31" transform="translate(64.580078 38.965625) scale(0.7)"/>
      </g>
     </g>
    </g>
    <g id="xtick_17">
     <g id="line2d_69">
      <path d="M 1030.843749 311.848 
L 1030.843749 51.36 
" clip-path="url(#p4c41c19fb9)" style="fill: none; stroke-dasharray: 2.96,1.28; stroke-dashoffset: 0; stroke: #b0b0b0; stroke-opacity: 0.4; stroke-width: 0.8"/>
     </g>
     <g id="line2d_70">
      <g>
       <use xlink:href="#m3698c81d77" x="1030.843749" y="311.848" style="stroke: #000000; stroke-width: 0.8"/>
      </g>
     </g>
     <g id="text_41">
      <!-- $\mathdefault{2^{2}}$ -->
      <g transform="translate(1025.243749 326.446437) scale(0.1 -0.1)">
       <use xlink:href="#DejaVuSans-32" transform="translate(0 0.765625)"/>
       <use xlink:href="#DejaVuSans-32" transform="translate(64.580078 39.046875) scale(0.7)"/>
      </g>
     </g>
    </g>
    <g id="xtick_18">
     <g id="line2d_71">
      <path d="M 1088.682879 311.848 
L 1088.682879 51.36 
" clip-path="url(#p4c41c19fb9)" style="fill: none; stroke-dasharray: 2.96,1.28; stroke-dashoffset: 0; stroke: #b0b0b0; stroke-opacity: 0.4; stroke-width: 0.8"/>
     </g>
     <g id="line2d_72">
      <g>
       <use xlink:href="#m3698c81d77" x="1088.682879" y="311.848" style="stroke: #000000; stroke-width: 0.8"/>
      </g>
     </g>
     <g id="text_42">
      <!-- $\mathdefault{2^{3}}$ -->
      <g transform="translate(1083.082879 326.446437) scale(0.1 -0.1)">
       <use xlink:href="#DejaVuSans-32" transform="translate(0 0.765625)"/>
       <use xlink:href="#DejaVuSans-33" transform="translate(64.580078 39.046875) scale(0.7)"/>
      </g>
     </g>
    </g>
    <g id="xtick_19">
     <g id="line2d_73">
      <path d="M 1146.522009 311.848 
L 1146.522009 51.36 
" clip-path="url(#p4c41c19fb9)" style="fill: none; stroke-dasharray: 2.96,1.28; stroke-dashoffset: 0; stroke: #b0b0b0; stroke-opacity: 0.4; stroke-width: 0.8"/>
     </g>
     <g id="line2d_74">
      <g>
       <use xlink:href="#m3698c81d77" x="1146.522009" y="311.848" style="stroke: #000000; stroke-width: 0.8"/>
      </g>
     </g>
     <g id="text_43">
      <!-- $\mathdefault{2^{4}}$ -->
      <g transform="translate(1140.922009 326.446437) scale(0.1 -0.1)">
       <use xlink:href="#DejaVuSans-32" transform="translate(0 0.684375)"/>
       <use xlink:href="#DejaVuSans-34" transform="translate(64.580078 38.965625) scale(0.7)"/>
      </g>
     </g>
    </g>
    <g id="xtick_20">
     <g id="line2d_75">
      <path d="M 1204.361139 311.848 
L 1204.361139 51.36 
" clip-path="url(#p4c41c19fb9)" style="fill: none; stroke-dasharray: 2.96,1.28; stroke-dashoffset: 0; stroke: #b0b0b0; stroke-opacity: 0.4; stroke-width: 0.8"/>
     </g>
     <g id="line2d_76">
      <g>
       <use xlink:href="#m3698c81d77" x="1204.361139" y="311.848" style="stroke: #000000; stroke-width: 0.8"/>
      </g>
     </g>
     <g id="text_44">
      <!-- $\mathdefault{2^{5}}$ -->
      <g transform="translate(1198.761139 326.446437) scale(0.1 -0.1)">
       <use xlink:href="#DejaVuSans-32" transform="translate(0 0.684375)"/>
       <use xlink:href="#DejaVuSans-35" transform="translate(64.580078 38.965625) scale(0.7)"/>
      </g>
     </g>
    </g>
    <g id="xtick_21">
     <g id="line2d_77">
      <path d="M 1262.200269 311.848 
L 1262.200269 51.36 
" clip-path="url(#p4c41c19fb9)" style="fill: none; stroke-dasharray: 2.96,1.28; stroke-dashoffset: 0; stroke: #b0b0b0; stroke-opacity: 0.4; stroke-width: 0.8"/>
     </g>
     <g id="line2d_78">
      <g>
       <use xlink:href="#m3698c81d77" x="1262.200269" y="311.848" style="stroke: #000000; stroke-width: 0.8"/>
      </g>
     </g>
     <g id="text_45">
      <!-- $\mathdefault{2^{6}}$ -->
      <g transform="translate(1256.600269 326.446437) scale(0.1 -0.1)">
       <use xlink:href="#DejaVuSans-32" transform="translate(0 0.765625)"/>
       <use xlink:href="#DejaVuSans-36" transform="translate(64.580078 39.046875) scale(0.7)"/>
      </g>
     </g>
    </g>
    <g id="text_46">
     <!-- Number of MPI Processes -->
     <g transform="translate(1002.327879 341.64425) scale(0.12 -0.12)">
      <use xlink:href="#DejaVuSans-Bold-4e"/>
      <use xlink:href="#DejaVuSans-Bold-75" transform="translate(83.691406 0)"/>
      <use xlink:href="#DejaVuSans-Bold-6d" transform="translate(154.882812 0)"/>
      <use xlink:href="#DejaVuSans-Bold-62" transform="translate(259.082031 0)"/>
      <use xlink:href="#DejaVuSans-Bold-65" transform="translate(330.664062 0)"/>
      <use xlink:href="#DejaVuSans-Bold-72" transform="translate(398.486328 0)"/>
      <use xlink:href="#DejaVuSans-Bold-20" transform="translate(447.802734 0)"/>
      <use xlink:href="#DejaVuSans-Bold-6f" transform="translate(482.617188 0)"/>
      <use xlink:href="#DejaVuSans-Bold-66" transform="translate(551.318359 0)"/>
      <use xlink:href="#DejaVuSans-Bold-20" transform="translate(594.824219 0)"/>
      <use xlink:href="#DejaVuSans-Bold-4d" transform="translate(629.638672 0)"/>
      <use xlink:href="#DejaVuSans-Bold-50" transform="translate(729.150391 0)"/>
      <use xlink:href="#DejaVuSans-Bold-49" transform="translate(802.441406 0)"/>
      <use xlink:href="#DejaVuSans-Bold-20" transform="translate(839.648438 0)"/>
      <use xlink:href="#DejaVuSans-Bold-50" transform="translate(874.462891 0)"/>
      <use xlink:href="#DejaVuSans-Bold-72" transform="translate(947.753906 0)"/>
      <use xlink:href="#DejaVuSans-Bold-6f" transform="translate(997.070312 0)"/>
      <use xlink:href="#DejaVuSans-Bold-63" transform="translate(1065.771484 0)"/>
      <use xlink:href="#DejaVuSans-Bold-65" transform="translate(1125.048828 0)"/>
      <use xlink:href="#DejaVuSans-Bold-73" transform="translate(1192.871094 0)"/>
      <use xlink:href="#DejaVuSans-Bold-73" transform="translate(1252.392578 0)"/>
      <use xlink:href="#DejaVuSans-Bold-65" transform="translate(1311.914062 0)"/>
      <use xlink:href="#DejaVuSans-Bold-73" transform="translate(1379.736328 0)"/>
     </g>
    </g>
   </g>
   <g id="matplotlib.axis_6">
    <g id="ytick_15">
     <g id="line2d_79">
      <path d="M 897.81375 293.58425 
L 1279.552008 293.58425 
" clip-path="url(#p4c41c19fb9)" style="fill: none; stroke-dasharray: 2.96,1.28; stroke-dashoffset: 0; stroke: #b0b0b0; stroke-opacity: 0.4; stroke-width: 0.8"/>
     </g>
     <g id="line2d_80">
      <g>
       <use xlink:href="#m8761097526" x="897.81375" y="293.58425" style="stroke: #000000; stroke-width: 0.8"/>
      </g>
     </g>
     <g id="text_47">
      <!-- $\mathdefault{2^{0}}$ -->
      <g transform="translate(879.61375 297.383469) scale(0.1 -0.1)">
       <use xlink:href="#DejaVuSans-32" transform="translate(0 0.765625)"/>
       <use xlink:href="#DejaVuSans-30" transform="translate(64.580078 39.046875) scale(0.7)"/>
      </g>
     </g>
    </g>
    <g id="ytick_16">
     <g id="line2d_81">
      <path d="M 897.81375 255.186935 
L 1279.552008 255.186935 
" clip-path="url(#p4c41c19fb9)" style="fill: none; stroke-dasharray: 2.96,1.28; stroke-dashoffset: 0; stroke: #b0b0b0; stroke-opacity: 0.4; stroke-width: 0.8"/>
     </g>
     <g id="line2d_82">
      <g>
       <use xlink:href="#m8761097526" x="897.81375" y="255.186935" style="stroke: #000000; stroke-width: 0.8"/>
      </g>
     </g>
     <g id="text_48">
      <!-- $\mathdefault{2^{1}}$ -->
      <g transform="translate(879.61375 258.986154) scale(0.1 -0.1)">
       <use xlink:href="#DejaVuSans-32" transform="translate(0 0.684375)"/>
       <use xlink:href="#DejaVuSans-31" transform="translate(64.580078 38.965625) scale(0.7)"/>
      </g>
     </g>
    </g>
    <g id="ytick_17">
     <g id="line2d_83">
      <path d="M 897.81375 216.789621 
L 1279.552008 216.789621 
" clip-path="url(#p4c41c19fb9)" style="fill: none; stroke-dasharray: 2.96,1.28; stroke-dashoffset: 0; stroke: #b0b0b0; stroke-opacity: 0.4; stroke-width: 0.8"/>
     </g>
     <g id="line2d_84">
      <g>
       <use xlink:href="#m8761097526" x="897.81375" y="216.789621" style="stroke: #000000; stroke-width: 0.8"/>
      </g>
     </g>
     <g id="text_49">
      <!-- $\mathdefault{2^{2}}$ -->
      <g transform="translate(879.61375 220.58884) scale(0.1 -0.1)">
       <use xlink:href="#DejaVuSans-32" transform="translate(0 0.765625)"/>
       <use xlink:href="#DejaVuSans-32" transform="translate(64.580078 39.046875) scale(0.7)"/>
      </g>
     </g>
    </g>
    <g id="ytick_18">
     <g id="line2d_85">
      <path d="M 897.81375 178.392307 
L 1279.552008 178.392307 
" clip-path="url(#p4c41c19fb9)" style="fill: none; stroke-dasharray: 2.96,1.28; stroke-dashoffset: 0; stroke: #b0b0b0; stroke-opacity: 0.4; stroke-width: 0.8"/>
     </g>
     <g id="line2d_86">
      <g>
       <use xlink:href="#m8761097526" x="897.81375" y="178.392307" style="stroke: #000000; stroke-width: 0.8"/>
      </g>
     </g>
     <g id="text_50">
      <!-- $\mathdefault{2^{3}}$ -->
      <g transform="translate(879.61375 182.191525) scale(0.1 -0.1)">
       <use xlink:href="#DejaVuSans-32" transform="translate(0 0.765625)"/>
       <use xlink:href="#DejaVuSans-33" transform="translate(64.580078 39.046875) scale(0.7)"/>
      </g>
     </g>
    </g>
    <g id="ytick_19">
     <g id="line2d_87">
      <path d="M 897.81375 139.994992 
L 1279.552008 139.994992 
" clip-path="url(#p4c41c19fb9)" style="fill: none; stroke-dasharray: 2.96,1.28; stroke-dashoffset: 0; stroke: #b0b0b0; stroke-opacity: 0.4; stroke-width: 0.8"/>
     </g>
     <g id="line2d_88">
      <g>
       <use xlink:href="#m8761097526" x="897.81375" y="139.994992" style="stroke: #000000; stroke-width: 0.8"/>
      </g>
     </g>
     <g id="text_51">
      <!-- $\mathdefault{2^{4}}$ -->
      <g transform="translate(879.61375 143.794211) scale(0.1 -0.1)">
       <use xlink:href="#DejaVuSans-32" transform="translate(0 0.684375)"/>
       <use xlink:href="#DejaVuSans-34" transform="translate(64.580078 38.965625) scale(0.7)"/>
      </g>
     </g>
    </g>
    <g id="ytick_20">
     <g id="line2d_89">
      <path d="M 897.81375 101.597678 
L 1279.552008 101.597678 
" clip-path="url(#p4c41c19fb9)" style="fill: none; stroke-dasharray: 2.96,1.28; stroke-dashoffset: 0; stroke: #b0b0b0; stroke-opacity: 0.4; stroke-width: 0.8"/>
     </g>
     <g id="line2d_90">
      <g>
       <use xlink:href="#m8761097526" x="897.81375" y="101.597678" style="stroke: #000000; stroke-width: 0.8"/>
      </g>
     </g>
     <g id="text_52">
      <!-- $\mathdefault{2^{5}}$ -->
      <g transform="translate(879.61375 105.396897) scale(0.1 -0.1)">
       <use xlink:href="#DejaVuSans-32" transform="translate(0 0.684375)"/>
       <use xlink:href="#DejaVuSans-35" transform="translate(64.580078 38.965625) scale(0.7)"/>
      </g>
     </g>
    </g>
    <g id="ytick_21">
     <g id="line2d_91">
      <path d="M 897.81375 63.200364 
L 1279.552008 63.200364 
" clip-path="url(#p4c41c19fb9)" style="fill: none; stroke-dasharray: 2.96,1.28; stroke-dashoffset: 0; stroke: #b0b0b0; stroke-opacity: 0.4; stroke-width: 0.8"/>
     </g>
     <g id="line2d_92">
      <g>
       <use xlink:href="#m8761097526" x="897.81375" y="63.200364" style="stroke: #000000; stroke-width: 0.8"/>
      </g>
     </g>
     <g id="text_53">
      <!-- $\mathdefault{2^{6}}$ -->
      <g transform="translate(879.61375 66.999582) scale(0.1 -0.1)">
       <use xlink:href="#DejaVuSans-32" transform="translate(0 0.765625)"/>
       <use xlink:href="#DejaVuSans-36" transform="translate(64.580078 39.046875) scale(0.7)"/>
      </g>
     </g>
    </g>
    <g id="text_54">
     <!-- Speedup -->
     <g transform="translate(873.118125 211.219625) rotate(-90) scale(0.12 -0.12)">
      <use xlink:href="#DejaVuSans-Bold-53"/>
      <use xlink:href="#DejaVuSans-Bold-70" transform="translate(72.021484 0)"/>
      <use xlink:href="#DejaVuSans-Bold-65" transform="translate(143.603516 0)"/>
      <use xlink:href="#DejaVuSans-Bold-65" transform="translate(211.425781 0)"/>
      <use xlink:href="#DejaVuSans-Bold-64" transform="translate(279.248047 0)"/>
      <use xlink:href="#DejaVuSans-Bold-75" transform="translate(350.830078 0)"/>
      <use xlink:href="#DejaVuSans-Bold-70" transform="translate(422.021484 0)"/>
     </g>
    </g>
   </g>
   <g id="line2d_93">
    <path d="M 915.165489 300.007636 
L 973.004619 281.807671 
L 1030.843749 263.65693 
L 1088.682879 264.332178 
L 1146.522009 229.464419 
L 1204.361139 201.42518 
L 1262.200269 191.962833 
" clip-path="url(#p4c41c19fb9)" style="fill: none; stroke: #1f77b4; stroke-width: 2.5; stroke-linecap: square"/>
    <g clip-path="url(#p4c41c19fb9)">
     <use xlink:href="#mad31410162" x="915.165489" y="300.007636" style="fill: #1f77b4; stroke: #1f77b4"/>
     <use xlink:href="#mad31410162" x="973.004619" y="281.807671" style="fill: #1f77b4; stroke: #1f77b4"/>
     <use xlink:href="#mad31410162" x="1030.843749" y="263.65693" style="fill: #1f77b4; stroke: #1f77b4"/>
     <use xlink:href="#mad31410162" x="1088.682879" y="264.332178" style="fill: #1f77b4; stroke: #1f77b4"/>
     <use xlink:href="#mad31410162" x="1146.522009" y="229.464419" style="fill: #1f77b4; stroke: #1f77b4"/>
     <use xlink:href="#mad31410162" x="1204.361139" y="201.42518" style="fill: #1f77b4; stroke: #1f77b4"/>
     <use xlink:href="#mad31410162" x="1262.200269" y="191.962833" style="fill: #1f77b4; stroke: #1f77b4"/>
    </g>
   </g>
   <g id="line2d_94">
    <path d="M 915.165489 293.58425 
L 973.004619 255.186935 
L 1030.843749 216.789621 
L 1088.682879 178.392307 
L 1146.522009 139.994992 
L 1204.361139 101.597678 
L 1262.200269 63.200364 
" clip-path="url(#p4c41c19fb9)" style="fill: none; stroke-dasharray: 7.4,3.2; stroke-dashoffset: 0; stroke: #95a5a6; stroke-opacity: 0.8; stroke-width: 2"/>
   </g>
   <g id="patch_15">
    <path d="M 897.81375 311.848 
L 897.81375 51.36 
" style="fill: none; stroke: #000000; stroke-width: 0.8; stroke-linejoin: miter; stroke-linecap: square"/>
   </g>
   <g id="patch_16">
    <path d="M 1279.552008 311.848 
L 1279.552008 51.36 
" style="fill: none; stroke: #000000; stroke-width: 0.8; stroke-linejoin: miter; stroke-linecap: square"/>
   </g>
   <g id="patch_17">
    <path d="M 897.81375 311.848 
L 1279.552008 311.848 
" style="fill: none; stroke: #000000; stroke-width: 0.8; stroke-linejoin: miter; stroke-linecap: square"/>
   </g>
   <g id="patch_18">
    <path d="M 897.81375 51.36 
L 1279.552008 51.36 
" style="fill: none; stroke: #000000; stroke-width: 0.8; stroke-linejoin: miter; stroke-linecap: square"/>
   </g>
   <g id="text_55">
    <!-- 6144×6144 Table -->
    <g transform="translate(1030.377879 45.36) scale(0.12 -0.12)">
     <defs>
      <path id="DejaVuSans-Bold-31" d="M 750 831 
L 1813 831 
L 1813 3847 
L 722 3622 
L 722 4441 
L 1806 4666 
L 2950 4666 
L 2950 831 
L 4013 831 
L 4013 0 
L 750 0 
L 750 831 
z
" transform="scale(0.015625)"/>
     </defs>
     <use xlink:href="#DejaVuSans-Bold-36"/>
     <use xlink:href="#DejaVuSans-Bold-31" transform="translate(69.580078 0)"/>
     <use xlink:href="#DejaVuSans-Bold-34" transform="translate(139.160156 0)"/>
     <use xlink:href="#DejaVuSans-Bold-34" transform="translate(208.740234 0)"/>
     <use xlink:href="#DejaVuSans-Bold-d7" transform="translate(278.320312 0)"/>
     <use xlink:href="#DejaVuSans-Bold-36" transform="translate(362.109375 0)"/>
     <use xlink:href="#DejaVuSans-Bold-31" transform="translate(431.689453 0)"/>
     <use xlink:href="#DejaVuSans-Bold-34" transform="translate(501.269531 0)"/>
     <use xlink:href="#DejaVuSans-Bold-34" transform="translate(570.849609 0)"/>
     <use xlink:href="#DejaVuSans-Bold-20" transform="translate(640.429688 0)"/>
     <use xlink:href="#DejaVuSans-Bold-54" transform="translate(675.244141 0)"/>
     <use xlink:href="#DejaVuSans-Bold-61" transform="translate(730.582031 0)"/>
     <use xlink:href="#DejaVuSans-Bold-62" transform="translate(798.0625 0)"/>
     <use xlink:href="#DejaVuSans-Bold-6c" transform="translate(869.644531 0)"/>
     <use xlink:href="#DejaVuSans-Bold-65" transform="translate(903.921875 0)"/>
    </g>
   </g>
   <g id="legend_3">
    <g id="patch_19">
     <path d="M 904.81375 88.71625 
L 966.635625 88.71625 
Q 968.635625 88.71625 968.635625 86.71625 
L 968.635625 58.36 
Q 968.635625 56.36 966.635625 56.36 
L 904.81375 56.36 
Q 902.81375 56.36 902.81375 58.36 
L 902.81375 86.71625 
Q 902.81375 88.71625 904.81375 88.71625 
z
" style="fill: #ffffff; opacity: 0.8; stroke: #cccccc; stroke-linejoin: miter"/>
    </g>
    <g id="line2d_95">
     <path d="M 906.81375 64.458437 
L 916.81375 64.458437 
L 926.81375 64.458437 
" style="fill: none; stroke: #1f77b4; stroke-width: 2.5; stroke-linecap: square"/>
     <g>
      <use xlink:href="#mad31410162" x="916.81375" y="64.458437" style="fill: #1f77b4; stroke: #1f77b4"/>
     </g>
    </g>
    <g id="text_56">
     <!-- Jacobi -->
     <g transform="translate(934.81375 67.958437) scale(0.1 -0.1)">
      <use xlink:href="#DejaVuSans-4a"/>
      <use xlink:href="#DejaVuSans-61" transform="translate(29.492188 0)"/>
      <use xlink:href="#DejaVuSans-63" transform="translate(90.771484 0)"/>
      <use xlink:href="#DejaVuSans-6f" transform="translate(145.751953 0)"/>
      <use xlink:href="#DejaVuSans-62" transform="translate(206.933594 0)"/>
      <use xlink:href="#DejaVuSans-69" transform="translate(270.410156 0)"/>
     </g>
    </g>
    <g id="line2d_96">
     <path d="M 906.81375 79.136562 
L 916.81375 79.136562 
L 926.81375 79.136562 
" style="fill: none; stroke-dasharray: 7.4,3.2; stroke-dashoffset: 0; stroke: #95a5a6; stroke-opacity: 0.8; stroke-width: 2"/>
    </g>
    <g id="text_57">
     <!-- Ideal -->
     <g transform="translate(934.81375 82.636562) scale(0.1 -0.1)">
      <use xlink:href="#DejaVuSans-49"/>
      <use xlink:href="#DejaVuSans-64" transform="translate(29.492188 0)"/>
      <use xlink:href="#DejaVuSans-65" transform="translate(92.96875 0)"/>
      <use xlink:href="#DejaVuSans-61" transform="translate(154.492188 0)"/>
      <use xlink:href="#DejaVuSans-6c" transform="translate(215.771484 0)"/>
     </g>
    </g>
   </g>
  </g>
  <g id="text_58">
   <!-- MPI Heat Transfer Speedup Analysis -->
   <g transform="translate(499.281851 17.837812) scale(0.14 -0.14)">
    <defs>
     <path id="DejaVuSans-Bold-48" d="M 588 4666 
L 1791 4666 
L 1791 2888 
L 3566 2888 
L 3566 4666 
L 4769 4666 
L 4769 0 
L 3566 0 
L 3566 1978 
L 1791 1978 
L 1791 0 
L 588 0 
L 588 4666 
z
" transform="scale(0.015625)"/>
     <path id="DejaVuSans-Bold-74" d="M 1759 4494 
L 1759 3500 
L 2913 3500 
L 2913 2700 
L 1759 2700 
L 1759 1216 
Q 1759 972 1856 886 
Q 1953 800 2241 800 
L 2816 800 
L 2816 0 
L 1856 0 
Q 1194 0 917 276 
Q 641 553 641 1216 
L 641 2700 
L 84 2700 
L 84 3500 
L 641 3500 
L 641 4494 
L 1759 4494 
z
" transform="scale(0.015625)"/>
     <path id="DejaVuSans-Bold-6e" d="M 4056 2131 
L 4056 0 
L 2931 0 
L 2931 347 
L 2931 1631 
Q 2931 2084 2911 2256 
Q 2891 2428 2841 2509 
Q 2775 2619 2662 2680 
Q 2550 2741 2406 2741 
Q 2056 2741 1856 2470 
Q 1656 2200 1656 1722 
L 1656 0 
L 538 0 
L 538 3500 
L 1656 3500 
L 1656 2988 
Q 1909 3294 2193 3439 
Q 2478 3584 2822 3584 
Q 3428 3584 3742 3212 
Q 4056 2841 4056 2131 
z
" transform="scale(0.015625)"/>
     <path id="DejaVuSans-Bold-41" d="M 3419 850 
L 1538 850 
L 1241 0 
L 31 0 
L 1759 4666 
L 3194 4666 
L 4922 0 
L 3713 0 
L 3419 850 
z
M 1838 1716 
L 3116 1716 
L 2478 3572 
L 1838 1716 
z
" transform="scale(0.015625)"/>
     <path id="DejaVuSans-Bold-79" d="M 78 3500 
L 1197 3500 
L 2138 1125 
L 2938 3500 
L 4056 3500 
L 2584 -331 
Q 2363 -916 2067 -1148 
Q 1772 -1381 1288 -1381 
L 641 -1381 
L 641 -647 
L 991 -647 
Q 1275 -647 1404 -556 
Q 1534 -466 1606 -231 
L 1638 -134 
L 78 3500 
z
" transform="scale(0.015625)"/>
     <path id="DejaVuSans-Bold-69" d="M 538 3500 
L 1656 3500 
L 1656 0 
L 538 0 
L 538 3500 
z
M 538 4863 
L 1656 4863 
L 1656 3950 
L 538 3950 
L 538 4863 
z
" transform="scale(0.015625)"/>
    </defs>
    <use xlink:href="#DejaVuSans-Bold-4d"/>
    <use xlink:href="#DejaVuSans-Bold-50" transform="translate(99.511719 0)"/>
    <use xlink:href="#DejaVuSans-Bold-49" transform="translate(172.802734 0)"/>
    <use xlink:href="#DejaVuSans-Bold-20" transform="translate(210.009766 0)"/>
    <use xlink:href="#DejaVuSans-Bold-48" transform="translate(244.824219 0)"/>
    <use xlink:href="#DejaVuSans-Bold-65" transform="translate(328.515625 0)"/>
    <use xlink:href="#DejaVuSans-Bold-61" transform="translate(396.337891 0)"/>
    <use xlink:href="#DejaVuSans-Bold-74" transform="translate(463.818359 0)"/>
    <use xlink:href="#DejaVuSans-Bold-20" transform="translate(511.621094 0)"/>
    <use xlink:href="#DejaVuSans-Bold-54" transform="translate(546.435547 0)"/>
    <use xlink:href="#DejaVuSans-Bold-72" transform="translate(603.648438 0)"/>
    <use xlink:href="#DejaVuSans-Bold-61" transform="translate(652.964844 0)"/>
    <use xlink:href="#DejaVuSans-Bold-6e" transform="translate(720.445312 0)"/>
    <use xlink:href="#DejaVuSans-Bold-73" transform="translate(791.636719 0)"/>
    <use xlink:href="#DejaVuSans-Bold-66" transform="translate(851.158203 0)"/>
    <use xlink:href="#DejaVuSans-Bold-65" transform="translate(894.664062 0)"/>
    <use xlink:href="#DejaVuSans-Bold-72" transform="translate(962.486328 0)"/>
    <use xlink:href="#DejaVuSans-Bold-20" transform="translate(1011.802734 0)"/>
    <use xlink:href="#DejaVuSans-Bold-53" transform="translate(1046.617188 0)"/>
    <use xlink:href="#DejaVuSans-Bold-70" transform="translate(1118.638672 0)"/>
    <use xlink:href="#DejaVuSans-Bold-65" transform="translate(1190.220703 0)"/>
    <use xlink:href="#DejaVuSans-Bold-65" transform="translate(1258.042969 0)"/>
    <use xlink:href="#DejaVuSans-Bold-64" transform="translate(1325.865234 0)"/>
    <use xlink:href="#DejaVuSans-Bold-75" transform="translate(1397.447266 0)"/>
    <use xlink:href="#DejaVuSans-Bold-70" transform="translate(1468.638672 0)"/>
    <use xlink:href="#DejaVuSans-Bold-20" transform="translate(1540.220703 0)"/>
    <use xlink:href="#DejaVuSans-Bold-41" transform="translate(1575.035156 0)"/>
    <use xlink:href="#DejaVuSans-Bold-6e" transform="translate(1652.427734 0)"/>
    <use xlink:href="#DejaVuSans-Bold-61" transform="translate(1723.619141 0)"/>
    <use xlink:href="#DejaVuSans-Bold-6c" transform="translate(1791.099609 0)"/>
    <use xlink:href="#DejaVuSans-Bold-79" transform="translate(1825.376953 0)"/>
    <use xlink:href="#DejaVuSans-Bold-73" transform="translate(1890.5625 0)"/>
    <use xlink:href="#DejaVuSans-Bold-69" transform="translate(1950.083984 0)"/>
    <use xlink:href="#DejaVuSans-Bold-73" transform="translate(1984.361328 0)"/>
   </g>
  </g>
 </g>
 <defs>
  <clipPath id="p50f2b64410">
   <rect x="41.01375" y="51.36" width="381.738258" height="260.488"/>
  </clipPath>
  <clipPath id="pd653fd7579">
   <rect x="469.41375" y="51.36" width="381.738258" height="260.488"/>
  </clipPath>
  <clipPath id="p4c41c19fb9">
   <rect x="897.81375" y="51.36" width="381.738258" height="260.488"/>
  </clipPath>
 </defs>
</svg>
